<svg width="270" height="270" viewBox="0 0 270 270" fill="none" xmlns="http://www.w3.org/2000/svg">
<rect width="270" height="270" fill="#FFB703"/>
<path d="M30 135C30 77.0101 77.5101 30 135.5 30V30C193.49 30 241 77.0101 241 135V135C241 192.99 193.49 240 135.5 240V240C77.5101 240 30 192.99 30 135V135Z" fill="#2E2525"/>
<path d="M43 135.4C43 84.3689 84.8089 43 135.84 43V43C186.871 43 228.68 84.3689 228.68 135.4V135.4C228.68 186.431 186.871 227.8 135.84 227.8V227.8C84.8089 227.8 43 186.431 43 135.4V135.4Z" fill="#3D3535"/>
<path d="M123.236 72.4432V70.0213L129.309 60.4545H131.397V63.8068H130.161L126.333 69.8651V69.9787H134.962V72.4432H123.236ZM130.218 75V71.7045L130.275 70.6321V60.4545H133.158V75H130.218ZM142.324 75.1989C141.32 75.1989 140.425 75.0142 139.639 74.6449C138.858 74.2756 138.237 73.7666 137.778 73.1179C137.319 72.4692 137.08 71.7259 137.061 70.8878H140.044C140.077 71.4512 140.314 71.9081 140.754 72.2585C141.194 72.6089 141.717 72.7841 142.324 72.7841C142.806 72.7841 143.233 72.6776 143.602 72.4645C143.976 72.2467 144.267 71.946 144.475 71.5625C144.689 71.1742 144.795 70.7292 144.795 70.2273C144.795 69.7159 144.686 69.2661 144.468 68.8778C144.255 68.4896 143.959 68.1866 143.581 67.9688C143.202 67.7509 142.769 67.6397 142.281 67.6349C141.855 67.6349 141.44 67.7225 141.038 67.8977C140.64 68.0729 140.33 68.312 140.108 68.6151L137.373 68.125L138.062 60.4545H146.954V62.9688H140.598L140.221 66.6122H140.306C140.562 66.2524 140.948 65.9541 141.464 65.7173C141.98 65.4806 142.558 65.3622 143.197 65.3622C144.073 65.3622 144.854 65.5682 145.541 65.9801C146.227 66.392 146.77 66.9579 147.167 67.6776C147.565 68.3925 147.761 69.2164 147.757 70.1491C147.761 71.1293 147.534 72.0005 147.075 72.7628C146.62 73.5204 145.984 74.117 145.164 74.5526C144.35 74.9834 143.403 75.1989 142.324 75.1989Z" fill="white"/>
<path d="M113.532 193V190.784L118.71 185.99C119.15 185.564 119.52 185.18 119.818 184.839C120.121 184.499 120.351 184.165 120.507 183.838C120.663 183.507 120.741 183.149 120.741 182.766C120.741 182.339 120.644 181.973 120.45 181.665C120.256 181.352 119.991 181.113 119.655 180.947C119.318 180.777 118.937 180.692 118.511 180.692C118.066 180.692 117.678 180.782 117.346 180.962C117.015 181.142 116.759 181.4 116.579 181.736C116.399 182.072 116.309 182.472 116.309 182.936H113.39C113.39 181.984 113.606 181.158 114.037 180.457C114.468 179.757 115.071 179.214 115.848 178.831C116.624 178.447 117.519 178.256 118.532 178.256C119.574 178.256 120.481 178.44 121.253 178.81C122.029 179.174 122.633 179.681 123.064 180.33C123.495 180.978 123.71 181.722 123.71 182.56C123.71 183.109 123.601 183.651 123.383 184.186C123.17 184.721 122.789 185.315 122.24 185.969C121.691 186.617 120.916 187.396 119.917 188.305L117.794 190.386V190.486H123.902V193H113.532ZM131.833 193.32C130.612 193.315 129.561 193.014 128.68 192.418C127.804 191.821 127.129 190.957 126.656 189.825C126.187 188.694 125.955 187.332 125.96 185.741C125.96 184.155 126.194 182.804 126.663 181.686C127.136 180.569 127.811 179.719 128.687 179.136C129.568 178.549 130.616 178.256 131.833 178.256C133.05 178.256 134.097 178.549 134.972 179.136C135.853 179.723 136.53 180.576 137.004 181.693C137.477 182.806 137.712 184.155 137.707 185.741C137.707 187.337 137.47 188.701 136.997 189.832C136.528 190.964 135.856 191.828 134.98 192.425C134.104 193.021 133.055 193.32 131.833 193.32ZM131.833 190.77C132.667 190.77 133.332 190.351 133.829 189.513C134.326 188.675 134.572 187.418 134.568 185.741C134.568 184.638 134.454 183.72 134.227 182.986C134.004 182.252 133.687 181.7 133.275 181.331C132.868 180.962 132.387 180.777 131.833 180.777C131.005 180.777 130.342 181.191 129.845 182.02C129.347 182.848 129.097 184.089 129.092 185.741C129.092 186.859 129.203 187.792 129.426 188.54C129.653 189.283 129.972 189.842 130.384 190.216C130.796 190.585 131.279 190.77 131.833 190.77ZM141.111 193.185C140.642 193.185 140.239 193.019 139.903 192.688C139.572 192.351 139.406 191.949 139.406 191.48C139.406 191.016 139.572 190.618 139.903 190.287C140.239 189.955 140.642 189.79 141.111 189.79C141.565 189.79 141.963 189.955 142.304 190.287C142.645 190.618 142.815 191.016 142.815 191.48C142.815 191.793 142.735 192.079 142.574 192.339C142.417 192.595 142.211 192.801 141.956 192.957C141.7 193.109 141.418 193.185 141.111 193.185ZM145.051 190.443V188.021L151.123 178.455H153.211V181.807H151.975L148.147 187.865V187.979H156.776V190.443H145.051ZM152.032 193V189.705L152.089 188.632V178.455H154.972V193H152.032Z" fill="white"/>
<path d="M122.32 94V83.0909H124.626V92.0984H129.303V94H122.32ZM130.83 94V83.0909H135.198C136.001 83.0909 136.67 83.2099 137.207 83.4478C137.743 83.6857 138.146 84.016 138.416 84.4386C138.686 84.8576 138.821 85.3406 138.821 85.8874C138.821 86.3136 138.735 86.6882 138.565 87.0114C138.394 87.331 138.16 87.5937 137.862 87.7997C137.567 88.0021 137.23 88.146 136.85 88.2312V88.3377C137.265 88.3555 137.654 88.4727 138.016 88.6893C138.382 88.9059 138.678 89.2095 138.906 89.6001C139.133 89.9872 139.247 90.4489 139.247 90.9851C139.247 91.5639 139.103 92.0806 138.815 92.5352C138.531 92.9862 138.11 93.343 137.553 93.6058C136.995 93.8686 136.308 94 135.491 94H130.83ZM133.137 92.1143H135.017C135.66 92.1143 136.129 91.9918 136.424 91.7468C136.718 91.4982 136.866 91.168 136.866 90.756C136.866 90.4542 136.793 90.1879 136.647 89.957C136.502 89.7262 136.294 89.5451 136.024 89.4137C135.758 89.2823 135.44 89.2166 135.071 89.2166H133.137V92.1143ZM133.137 87.6559H134.847C135.163 87.6559 135.443 87.6009 135.688 87.4908C135.937 87.3771 136.132 87.2173 136.274 87.0114C136.42 86.8054 136.493 86.5586 136.493 86.271C136.493 85.8768 136.352 85.5589 136.072 85.3175C135.795 85.076 135.401 84.9553 134.889 84.9553H133.137V87.6559ZM146.665 86.2283C146.623 85.7987 146.44 85.4648 146.117 85.2269C145.794 84.989 145.355 84.87 144.801 84.87C144.425 84.87 144.107 84.9233 143.848 85.0298C143.588 85.1328 143.39 85.2766 143.251 85.4613C143.116 85.646 143.049 85.8555 143.049 86.0898C143.042 86.2852 143.082 86.4556 143.171 86.6012C143.263 86.7468 143.39 86.8729 143.549 86.9794C143.709 87.0824 143.894 87.1729 144.103 87.2511C144.313 87.3256 144.537 87.3896 144.774 87.4428L145.755 87.6772C146.23 87.7837 146.667 87.9258 147.065 88.1033C147.463 88.2809 147.807 88.4993 148.098 88.7585C148.39 89.0178 148.615 89.3232 148.775 89.6747C148.938 90.0263 149.022 90.4293 149.025 90.8839C149.022 91.5515 148.851 92.1303 148.514 92.6204C148.18 93.1069 147.697 93.4851 147.065 93.755C146.436 94.0213 145.678 94.1545 144.79 94.1545C143.91 94.1545 143.143 94.0195 142.489 93.7496C141.839 93.4798 141.332 93.0803 140.966 92.5511C140.604 92.0185 140.414 91.3597 140.396 90.5749H142.628C142.653 90.9407 142.757 91.2461 142.942 91.4911C143.13 91.7326 143.381 91.9155 143.693 92.0398C144.009 92.1605 144.366 92.2209 144.764 92.2209C145.154 92.2209 145.494 92.1641 145.781 92.0504C146.072 91.9368 146.298 91.7788 146.458 91.5763C146.617 91.3739 146.697 91.1413 146.697 90.8786C146.697 90.6335 146.625 90.4276 146.479 90.2607C146.337 90.0937 146.127 89.9517 145.85 89.8345C145.577 89.7173 145.241 89.6108 144.844 89.5149L143.656 89.2166C142.736 88.9929 142.01 88.6431 141.477 88.1673C140.945 87.6914 140.68 87.0504 140.684 86.2443C140.68 85.5838 140.856 85.0067 141.211 84.5131C141.57 84.0195 142.061 83.6342 142.686 83.3572C143.311 83.0803 144.022 82.9418 144.817 82.9418C145.627 82.9418 146.333 83.0803 146.937 83.3572C147.544 83.6342 148.017 84.0195 148.354 84.5131C148.691 85.0067 148.865 85.5785 148.876 86.2283H146.665Z" fill="white"/>
<path d="M120.965 212V201.091H123.271V205.901H123.415L127.341 201.091H130.105L126.057 205.975L130.153 212H127.394L124.406 207.515L123.271 208.9V212H120.965ZM137.925 204.617C137.85 204.358 137.746 204.129 137.611 203.93C137.476 203.728 137.311 203.557 137.115 203.419C136.924 203.277 136.703 203.168 136.455 203.094C136.21 203.019 135.938 202.982 135.64 202.982C135.082 202.982 134.592 203.12 134.17 203.397C133.751 203.674 133.424 204.077 133.19 204.607C132.955 205.132 132.838 205.775 132.838 206.535C132.838 207.295 132.953 207.941 133.184 208.474C133.415 209.006 133.742 209.413 134.164 209.694C134.587 209.971 135.086 210.109 135.661 210.109C136.183 210.109 136.629 210.017 136.998 209.832C137.371 209.644 137.655 209.379 137.85 209.038C138.049 208.697 138.149 208.294 138.149 207.829L138.617 207.898H135.805V206.162H140.37V207.536C140.37 208.495 140.168 209.319 139.763 210.008C139.358 210.693 138.8 211.222 138.09 211.595C137.38 211.964 136.567 212.149 135.65 212.149C134.628 212.149 133.729 211.924 132.955 211.473C132.181 211.018 131.577 210.374 131.144 209.539C130.714 208.701 130.5 207.707 130.5 206.556C130.5 205.672 130.627 204.884 130.883 204.191C131.142 203.495 131.505 202.906 131.97 202.423C132.435 201.94 132.976 201.572 133.594 201.32C134.212 201.068 134.882 200.942 135.603 200.942C136.22 200.942 136.796 201.032 137.328 201.213C137.861 201.391 138.333 201.643 138.745 201.97C139.161 202.297 139.5 202.685 139.763 203.136C140.025 203.584 140.194 204.077 140.269 204.617H137.925ZM148.02 204.228C147.978 203.799 147.795 203.465 147.472 203.227C147.149 202.989 146.71 202.87 146.156 202.87C145.78 202.87 145.462 202.923 145.203 203.03C144.943 203.133 144.744 203.277 144.606 203.461C144.471 203.646 144.404 203.855 144.404 204.09C144.396 204.285 144.437 204.456 144.526 204.601C144.618 204.747 144.744 204.873 144.904 204.979C145.064 205.082 145.249 205.173 145.458 205.251C145.668 205.326 145.892 205.39 146.129 205.443L147.11 205.677C147.585 205.784 148.022 205.926 148.42 206.103C148.818 206.281 149.162 206.499 149.453 206.759C149.744 207.018 149.97 207.323 150.13 207.675C150.293 208.026 150.377 208.429 150.38 208.884C150.377 209.551 150.206 210.13 149.869 210.62C149.535 211.107 149.052 211.485 148.42 211.755C147.791 212.021 147.033 212.154 146.145 212.154C145.265 212.154 144.498 212.02 143.844 211.75C143.194 211.48 142.687 211.08 142.321 210.551C141.959 210.018 141.769 209.36 141.751 208.575H143.983C144.008 208.941 144.112 209.246 144.297 209.491C144.485 209.733 144.736 209.915 145.048 210.04C145.364 210.161 145.721 210.221 146.119 210.221C146.509 210.221 146.849 210.164 147.136 210.05C147.427 209.937 147.653 209.779 147.813 209.576C147.972 209.374 148.052 209.141 148.052 208.879C148.052 208.634 147.98 208.428 147.834 208.261C147.692 208.094 147.482 207.952 147.205 207.835C146.932 207.717 146.596 207.611 146.199 207.515L145.011 207.217C144.091 206.993 143.365 206.643 142.832 206.167C142.3 205.691 142.035 205.05 142.039 204.244C142.035 203.584 142.211 203.007 142.566 202.513C142.925 202.02 143.416 201.634 144.041 201.357C144.666 201.08 145.377 200.942 146.172 200.942C146.982 200.942 147.688 201.08 148.292 201.357C148.899 201.634 149.372 202.02 149.709 202.513C150.046 203.007 150.22 203.578 150.231 204.228H148.02Z" fill="white"/>
<g filter="url(#filter0_bd_61_1427)">
<rect width="184.475" height="6.31241" transform="matrix(0.767545 0.640995 -0.644579 0.764538 66.8369 73.4034)" fill="#2E2525"/>
</g>
<g filter="url(#filter1_bd_61_1427)">
<rect width="184.398" height="6.31502" transform="matrix(0.708784 -0.705425 0.708784 0.705425 67.6143 197.899)" fill="#2E2525"/>
</g>
<g filter="url(#filter2_d_61_1427)">
<path d="M105.96 135C105.96 118.763 119.263 105.6 135.5 105.6V105.6C151.737 105.6 165.04 118.763 165.04 135V135C165.04 151.237 151.737 164.4 135.5 164.4V164.4C119.263 164.4 105.96 151.237 105.96 135V135Z" fill="#201919"/>
</g>
<g filter="url(#filter3_bd_61_1427)">
<path d="M112.29 135C112.29 122.242 122.742 111.9 135.5 111.9V111.9C148.258 111.9 158.71 122.242 158.71 135V135C158.71 147.758 148.258 158.1 135.5 158.1V158.1C122.742 158.1 112.29 147.758 112.29 135V135Z" fill="url(#paint0_linear_61_1427)"/>
</g>
<path d="M120.73 135C120.73 126.881 127.381 120.3 135.5 120.3V120.3C143.619 120.3 150.27 126.881 150.27 135V135C150.27 143.119 143.619 149.7 135.5 149.7V149.7C127.381 149.7 120.73 143.119 120.73 135V135Z" fill="url(#paint1_linear_61_1427)"/>
<path d="M30 135C30 77.0101 77.5101 30 135.5 30V30C193.49 30 241 77.0101 241 135V135C241 192.99 193.49 240 135.5 240V240C77.5101 240 30 192.99 30 135V135Z" fill="#2E2525"/>
<g filter="url(#filter4_d_61_1427)">
<path d="M43 135.4C43 84.3689 84.8089 43 135.84 43V43C186.871 43 228.68 84.3689 228.68 135.4V135.4C228.68 186.431 186.871 227.8 135.84 227.8V227.8C84.8089 227.8 43 186.431 43 135.4V135.4Z" fill="#3D3535" fill-opacity="0.98"/>
<path d="M130.73 60.4545V75H127.654V63.3736H127.569L124.238 65.4616V62.7344L127.839 60.4545H130.73ZM139.89 75.3196C138.668 75.3149 137.617 75.0142 136.737 74.4176C135.861 73.821 135.186 72.9569 134.712 71.8253C134.244 70.6937 134.012 69.3324 134.016 67.7415C134.016 66.1553 134.251 64.8035 134.719 63.6861C135.193 62.5687 135.868 61.7187 136.744 61.1364C137.624 60.5492 138.673 60.2557 139.89 60.2557C141.107 60.2557 142.153 60.5492 143.029 61.1364C143.91 61.7235 144.587 62.5758 145.06 63.6932C145.534 64.8059 145.768 66.1553 145.763 67.7415C145.763 69.3371 145.527 70.7008 145.053 71.8324C144.585 72.964 143.912 73.8281 143.036 74.4247C142.16 75.0213 141.112 75.3196 139.89 75.3196ZM139.89 72.7699C140.723 72.7699 141.388 72.3509 141.886 71.5128C142.383 70.6747 142.629 69.4176 142.624 67.7415C142.624 66.6383 142.511 65.7197 142.283 64.9858C142.061 64.2519 141.744 63.7003 141.332 63.331C140.924 62.9616 140.444 62.777 139.89 62.777C139.061 62.777 138.398 63.1913 137.901 64.0199C137.404 64.8485 137.153 66.089 137.148 67.7415C137.148 68.8589 137.26 69.7917 137.482 70.5398C137.71 71.2831 138.029 71.8419 138.441 72.2159C138.853 72.5852 139.336 72.7699 139.89 72.7699Z" fill="white"/>
<path d="M120.453 190.443V188.021L126.525 178.455H128.613V181.807H127.378L123.55 187.865V187.979H132.179V190.443H120.453ZM127.434 193V189.705L127.491 188.632V178.455H130.375V193H127.434ZM135.751 193.185C135.282 193.185 134.88 193.019 134.544 192.688C134.212 192.351 134.047 191.949 134.047 191.48C134.047 191.016 134.212 190.618 134.544 190.287C134.88 189.955 135.282 189.79 135.751 189.79C136.206 189.79 136.604 189.955 136.944 190.287C137.285 190.618 137.456 191.016 137.456 191.48C137.456 191.793 137.375 192.079 137.214 192.339C137.058 192.595 136.852 192.801 136.596 192.957C136.341 193.109 136.059 193.185 135.751 193.185ZM145.107 193.199C144.103 193.199 143.208 193.014 142.422 192.645C141.641 192.276 141.021 191.767 140.561 191.118C140.102 190.469 139.863 189.726 139.844 188.888H142.827C142.86 189.451 143.097 189.908 143.537 190.259C143.977 190.609 144.501 190.784 145.107 190.784C145.59 190.784 146.016 190.678 146.385 190.464C146.759 190.247 147.05 189.946 147.259 189.562C147.472 189.174 147.578 188.729 147.578 188.227C147.578 187.716 147.469 187.266 147.252 186.878C147.039 186.49 146.743 186.187 146.364 185.969C145.985 185.751 145.552 185.64 145.064 185.635C144.638 185.635 144.224 185.723 143.821 185.898C143.423 186.073 143.113 186.312 142.891 186.615L140.156 186.125L140.845 178.455H149.737V180.969H143.381L143.004 184.612H143.09C143.345 184.252 143.731 183.954 144.247 183.717C144.763 183.481 145.341 183.362 145.98 183.362C146.856 183.362 147.637 183.568 148.324 183.98C149.011 184.392 149.553 184.958 149.95 185.678C150.348 186.393 150.545 187.216 150.54 188.149C150.545 189.129 150.317 190 149.858 190.763C149.404 191.52 148.767 192.117 147.948 192.553C147.133 192.983 146.186 193.199 145.107 193.199Z" fill="white"/>
<path d="M122.32 94V83.0909H124.626V92.0984H129.303V94H122.32ZM130.83 94V83.0909H135.198C136.001 83.0909 136.67 83.2099 137.207 83.4478C137.743 83.6857 138.146 84.016 138.416 84.4386C138.686 84.8576 138.821 85.3406 138.821 85.8874C138.821 86.3136 138.735 86.6882 138.565 87.0114C138.394 87.331 138.16 87.5937 137.862 87.7997C137.567 88.0021 137.23 88.146 136.85 88.2312V88.3377C137.265 88.3555 137.654 88.4727 138.016 88.6893C138.382 88.9059 138.678 89.2095 138.906 89.6001C139.133 89.9872 139.247 90.4489 139.247 90.9851C139.247 91.5639 139.103 92.0806 138.815 92.5352C138.531 92.9862 138.11 93.343 137.553 93.6058C136.995 93.8686 136.308 94 135.491 94H130.83ZM133.137 92.1143H135.017C135.66 92.1143 136.129 91.9918 136.424 91.7468C136.718 91.4982 136.866 91.168 136.866 90.756C136.866 90.4542 136.793 90.1879 136.647 89.957C136.502 89.7262 136.294 89.5451 136.024 89.4137C135.758 89.2823 135.44 89.2166 135.071 89.2166H133.137V92.1143ZM133.137 87.6559H134.847C135.163 87.6559 135.443 87.6009 135.688 87.4908C135.937 87.3771 136.132 87.2173 136.274 87.0114C136.42 86.8054 136.493 86.5586 136.493 86.271C136.493 85.8768 136.352 85.5589 136.072 85.3175C135.795 85.076 135.401 84.9553 134.889 84.9553H133.137V87.6559ZM146.665 86.2283C146.623 85.7987 146.44 85.4648 146.117 85.2269C145.794 84.989 145.355 84.87 144.801 84.87C144.425 84.87 144.107 84.9233 143.848 85.0298C143.588 85.1328 143.39 85.2766 143.251 85.4613C143.116 85.646 143.049 85.8555 143.049 86.0898C143.042 86.2852 143.082 86.4556 143.171 86.6012C143.263 86.7468 143.39 86.8729 143.549 86.9794C143.709 87.0824 143.894 87.1729 144.103 87.2511C144.313 87.3256 144.537 87.3896 144.774 87.4428L145.755 87.6772C146.23 87.7837 146.667 87.9258 147.065 88.1033C147.463 88.2809 147.807 88.4993 148.098 88.7585C148.39 89.0178 148.615 89.3232 148.775 89.6747C148.938 90.0263 149.022 90.4293 149.025 90.8839C149.022 91.5515 148.851 92.1303 148.514 92.6204C148.18 93.1069 147.697 93.4851 147.065 93.755C146.436 94.0213 145.678 94.1545 144.79 94.1545C143.91 94.1545 143.143 94.0195 142.489 93.7496C141.839 93.4798 141.332 93.0803 140.966 92.5511C140.604 92.0185 140.414 91.3597 140.396 90.5749H142.628C142.653 90.9407 142.757 91.2461 142.942 91.4911C143.13 91.7326 143.381 91.9155 143.693 92.0398C144.009 92.1605 144.366 92.2209 144.764 92.2209C145.154 92.2209 145.494 92.1641 145.781 92.0504C146.072 91.9368 146.298 91.7788 146.458 91.5763C146.617 91.3739 146.697 91.1413 146.697 90.8786C146.697 90.6335 146.625 90.4276 146.479 90.2607C146.337 90.0937 146.127 89.9517 145.85 89.8345C145.577 89.7173 145.241 89.6108 144.844 89.5149L143.656 89.2166C142.736 88.9929 142.01 88.6431 141.477 88.1673C140.945 87.6914 140.68 87.0504 140.684 86.2443C140.68 85.5838 140.856 85.0067 141.211 84.5131C141.57 84.0195 142.061 83.6342 142.686 83.3572C143.311 83.0803 144.022 82.9418 144.817 82.9418C145.627 82.9418 146.333 83.0803 146.937 83.3572C147.544 83.6342 148.017 84.0195 148.354 84.5131C148.691 85.0067 148.865 85.5785 148.876 86.2283H146.665Z" fill="white"/>
<path d="M120.965 212V201.091H123.271V205.901H123.415L127.341 201.091H130.105L126.057 205.975L130.153 212H127.394L124.406 207.515L123.271 208.9V212H120.965ZM137.925 204.617C137.85 204.358 137.746 204.129 137.611 203.93C137.476 203.728 137.311 203.557 137.115 203.419C136.924 203.277 136.703 203.168 136.455 203.094C136.21 203.019 135.938 202.982 135.64 202.982C135.082 202.982 134.592 203.12 134.17 203.397C133.751 203.674 133.424 204.077 133.19 204.607C132.955 205.132 132.838 205.775 132.838 206.535C132.838 207.295 132.953 207.941 133.184 208.474C133.415 209.006 133.742 209.413 134.164 209.694C134.587 209.971 135.086 210.109 135.661 210.109C136.183 210.109 136.629 210.017 136.998 209.832C137.371 209.644 137.655 209.379 137.85 209.038C138.049 208.697 138.149 208.294 138.149 207.829L138.617 207.898H135.805V206.162H140.37V207.536C140.37 208.495 140.168 209.319 139.763 210.008C139.358 210.693 138.8 211.222 138.09 211.595C137.38 211.964 136.567 212.149 135.65 212.149C134.628 212.149 133.729 211.924 132.955 211.473C132.181 211.018 131.577 210.374 131.144 209.539C130.714 208.701 130.5 207.707 130.5 206.556C130.5 205.672 130.627 204.884 130.883 204.191C131.142 203.495 131.505 202.906 131.97 202.423C132.435 201.94 132.976 201.572 133.594 201.32C134.212 201.068 134.882 200.942 135.603 200.942C136.22 200.942 136.796 201.032 137.328 201.213C137.861 201.391 138.333 201.643 138.745 201.97C139.161 202.297 139.5 202.685 139.763 203.136C140.025 203.584 140.194 204.077 140.269 204.617H137.925ZM148.02 204.228C147.978 203.799 147.795 203.465 147.472 203.227C147.149 202.989 146.71 202.87 146.156 202.87C145.78 202.87 145.462 202.923 145.203 203.03C144.943 203.133 144.744 203.277 144.606 203.461C144.471 203.646 144.404 203.855 144.404 204.09C144.396 204.285 144.437 204.456 144.526 204.601C144.618 204.747 144.744 204.873 144.904 204.979C145.064 205.082 145.249 205.173 145.458 205.251C145.668 205.326 145.892 205.39 146.129 205.443L147.11 205.677C147.585 205.784 148.022 205.926 148.42 206.103C148.818 206.281 149.162 206.499 149.453 206.759C149.744 207.018 149.97 207.323 150.13 207.675C150.293 208.026 150.377 208.429 150.38 208.884C150.377 209.551 150.206 210.13 149.869 210.62C149.535 211.107 149.052 211.485 148.42 211.755C147.791 212.021 147.033 212.154 146.145 212.154C145.265 212.154 144.498 212.02 143.844 211.75C143.194 211.48 142.687 211.08 142.321 210.551C141.959 210.018 141.769 209.36 141.751 208.575H143.983C144.008 208.941 144.112 209.246 144.297 209.491C144.485 209.733 144.736 209.915 145.048 210.04C145.364 210.161 145.721 210.221 146.119 210.221C146.509 210.221 146.849 210.164 147.136 210.05C147.427 209.937 147.653 209.779 147.813 209.576C147.972 209.374 148.052 209.141 148.052 208.879C148.052 208.634 147.98 208.428 147.834 208.261C147.692 208.094 147.482 207.952 147.205 207.835C146.932 207.717 146.596 207.611 146.199 207.515L145.011 207.217C144.091 206.993 143.365 206.643 142.832 206.167C142.3 205.691 142.035 205.05 142.039 204.244C142.035 203.584 142.211 203.007 142.566 202.513C142.925 202.02 143.416 201.634 144.041 201.357C144.666 201.08 145.377 200.942 146.172 200.942C146.982 200.942 147.688 201.08 148.292 201.357C148.899 201.634 149.372 202.02 149.709 202.513C150.046 203.007 150.22 203.578 150.231 204.228H148.02Z" fill="white"/>
</g>
<g filter="url(#filter5_bd_61_1427)">
<rect width="184.475" height="6.31241" transform="matrix(0.767545 0.640995 -0.644579 0.764538 66.8369 73.4034)" fill="#2E2525"/>
</g>
<g filter="url(#filter6_bd_61_1427)">
<rect width="184.398" height="6.31502" transform="matrix(0.708784 -0.705425 0.708784 0.705425 67.6143 197.899)" fill="#2E2525"/>
</g>
<g filter="url(#filter7_d_61_1427)">
<path d="M105.96 135C105.96 118.763 119.263 105.6 135.5 105.6V105.6C151.737 105.6 165.04 118.763 165.04 135V135C165.04 151.237 151.737 164.4 135.5 164.4V164.4C119.263 164.4 105.96 151.237 105.96 135V135Z" fill="#201919"/>
</g>
<g filter="url(#filter8_bd_61_1427)">
<path d="M112.29 135C112.29 122.242 122.742 111.9 135.5 111.9V111.9C148.258 111.9 158.71 122.242 158.71 135V135C158.71 147.758 148.258 158.1 135.5 158.1V158.1C122.742 158.1 112.29 147.758 112.29 135V135Z" fill="url(#paint2_linear_61_1427)"/>
</g>
<path d="M120.73 135C120.73 126.881 127.381 120.3 135.5 120.3V120.3C143.619 120.3 150.27 126.881 150.27 135V135C150.27 143.119 143.619 149.7 135.5 149.7V149.7C127.381 149.7 120.73 143.119 120.73 135V135Z" fill="url(#paint3_linear_61_1427)"/>
<path d="M56 135C56 90.8172 91.8172 55 136 55V55C180.183 55 216 90.8172 216 135V135C216 179.183 180.183 215 136 215V215C91.8172 215 56 179.183 56 135V135Z" fill="#2E2525"/>
<g filter="url(#filter9_d_61_1427)">
<path d="M65.6001 135C65.6001 96.1191 97.1192 64.6 136 64.6V64.6C174.881 64.6 206.4 96.1191 206.4 135V135C206.4 173.881 174.881 205.4 136 205.4V205.4C97.1192 205.4 65.6001 173.881 65.6001 135V135Z" fill="#3D3535" fill-opacity="0.98"/>
</g>
<g filter="url(#filter10_bd_61_1427)">
<rect width="140.16" height="4.8" transform="translate(83.9331 88.0692) rotate(40)" fill="#2E2525"/>
</g>
<g filter="url(#filter11_bd_61_1427)">
<rect width="140.16" height="4.8" transform="translate(84.5225 182.923) rotate(-45)" fill="#2E2525"/>
</g>
<g filter="url(#filter12_d_61_1427)">
<path d="M113.6 135C113.6 122.629 123.629 112.6 136 112.6V112.6C148.371 112.6 158.4 122.629 158.4 135V135C158.4 147.371 148.371 157.4 136 157.4V157.4C123.629 157.4 113.6 147.371 113.6 135V135Z" fill="#201919"/>
</g>
<g filter="url(#filter13_bd_61_1427)">
<path d="M118.4 135C118.4 125.28 126.28 117.4 136 117.4V117.4C145.72 117.4 153.6 125.28 153.6 135V135C153.6 144.72 145.72 152.6 136 152.6V152.6C126.28 152.6 118.4 144.72 118.4 135V135Z" fill="url(#paint4_linear_61_1427)"/>
</g>
<path d="M124.8 135C124.8 128.814 129.814 123.8 136 123.8V123.8C142.185 123.8 147.2 128.814 147.2 135V135C147.2 141.186 142.185 146.2 136 146.2V146.2C129.814 146.2 124.8 141.186 124.8 135V135Z" fill="url(#paint5_linear_61_1427)"/>
<path d="M129.748 191V185.182H130.978V187.747H131.055L133.148 185.182H134.623L132.464 187.787L134.648 191H133.177L131.583 188.608L130.978 189.347V191H129.748ZM138.793 187.062C138.754 186.924 138.698 186.802 138.626 186.696C138.554 186.588 138.466 186.497 138.362 186.423C138.259 186.348 138.142 186.29 138.009 186.25C137.879 186.21 137.734 186.19 137.575 186.19C137.277 186.19 137.016 186.264 136.79 186.412C136.567 186.56 136.393 186.775 136.268 187.057C136.143 187.337 136.08 187.68 136.08 188.085C136.08 188.491 136.142 188.835 136.265 189.119C136.388 189.403 136.562 189.62 136.788 189.77C137.013 189.918 137.279 189.991 137.586 189.991C137.864 189.991 138.102 189.942 138.299 189.844C138.498 189.743 138.649 189.602 138.754 189.42C138.86 189.239 138.913 189.024 138.913 188.776L139.163 188.812H137.663V187.886H140.097V188.619C140.097 189.131 139.989 189.57 139.773 189.938C139.558 190.303 139.26 190.585 138.881 190.784C138.503 190.981 138.069 191.08 137.58 191.08C137.035 191.08 136.556 190.959 136.143 190.719C135.73 190.476 135.408 190.133 135.177 189.688C134.948 189.241 134.833 188.71 134.833 188.097C134.833 187.625 134.901 187.205 135.038 186.835C135.176 186.464 135.369 186.15 135.617 185.892C135.865 185.634 136.154 185.438 136.484 185.304C136.813 185.17 137.17 185.102 137.555 185.102C137.884 185.102 138.191 185.151 138.475 185.247C138.759 185.342 139.011 185.476 139.231 185.651C139.452 185.825 139.633 186.032 139.773 186.273C139.914 186.511 140.004 186.775 140.043 187.062H138.793ZM144.178 186.855C144.155 186.626 144.057 186.448 143.885 186.321C143.713 186.194 143.479 186.131 143.183 186.131C142.982 186.131 142.813 186.159 142.675 186.216C142.536 186.271 142.43 186.348 142.357 186.446C142.285 186.545 142.249 186.656 142.249 186.781C142.245 186.885 142.267 186.976 142.314 187.054C142.363 187.132 142.43 187.199 142.516 187.256C142.601 187.311 142.699 187.359 142.811 187.401C142.923 187.44 143.042 187.474 143.169 187.503L143.692 187.628C143.946 187.685 144.179 187.76 144.391 187.855C144.603 187.95 144.786 188.066 144.942 188.205C145.097 188.343 145.217 188.506 145.303 188.693C145.39 188.881 145.434 189.096 145.436 189.338C145.434 189.694 145.343 190.003 145.163 190.264C144.985 190.524 144.728 190.725 144.391 190.869C144.055 191.011 143.651 191.082 143.178 191.082C142.708 191.082 142.299 191.01 141.95 190.866C141.604 190.723 141.333 190.509 141.138 190.227C140.945 189.943 140.843 189.592 140.834 189.173H142.024C142.037 189.368 142.093 189.531 142.192 189.662C142.292 189.791 142.426 189.888 142.592 189.955C142.761 190.019 142.951 190.051 143.163 190.051C143.372 190.051 143.553 190.021 143.706 189.96C143.861 189.9 143.982 189.815 144.067 189.707C144.152 189.599 144.195 189.475 144.195 189.335C144.195 189.205 144.156 189.095 144.078 189.006C144.002 188.917 143.891 188.841 143.743 188.778C143.597 188.716 143.418 188.659 143.206 188.608L142.572 188.449C142.082 188.33 141.695 188.143 141.411 187.889C141.126 187.635 140.985 187.294 140.987 186.864C140.985 186.511 141.079 186.204 141.268 185.94C141.46 185.677 141.722 185.472 142.055 185.324C142.389 185.176 142.768 185.102 143.192 185.102C143.624 185.102 144 185.176 144.322 185.324C144.646 185.472 144.898 185.677 145.078 185.94C145.258 186.204 145.351 186.509 145.357 186.855H144.178Z" fill="white"/>
<path d="M135.755 87.1491C135.002 87.1491 134.331 87.0107 133.741 86.7337C133.155 86.4567 132.69 86.0749 132.346 85.5884C132.001 85.1019 131.822 84.5444 131.808 83.9158H134.045C134.07 84.3384 134.247 84.6811 134.577 84.9439C134.908 85.2067 135.3 85.3381 135.755 85.3381C136.117 85.3381 136.436 85.2582 136.713 85.0984C136.994 84.935 137.212 84.7095 137.369 84.4219C137.528 84.1307 137.608 83.7969 137.608 83.4205C137.608 83.0369 137.527 82.6996 137.363 82.4084C137.203 82.1172 136.982 81.8899 136.697 81.7266C136.413 81.5632 136.088 81.4798 135.723 81.4762C135.403 81.4762 135.092 81.5419 134.79 81.6733C134.492 81.8047 134.26 81.984 134.093 82.2113L132.042 81.8438L132.559 76.0909H139.228V77.9766H134.46L134.178 80.7092H134.242C134.434 80.4393 134.723 80.2156 135.11 80.038C135.497 79.8604 135.93 79.7717 136.41 79.7717C137.067 79.7717 137.653 79.9261 138.168 80.2351C138.683 80.544 139.089 80.9684 139.387 81.5082C139.686 82.0444 139.833 82.6623 139.83 83.3619C139.833 84.0969 139.663 84.7504 139.318 85.3221C138.977 85.8903 138.5 86.3377 137.885 86.6644C137.275 86.9876 136.564 87.1491 135.755 87.1491Z" fill="white"/>
<path d="M125.658 179V177.338L129.541 173.743C129.872 173.423 130.149 173.135 130.372 172.88C130.6 172.624 130.772 172.374 130.889 172.129C131.006 171.88 131.065 171.612 131.065 171.324C131.065 171.005 130.992 170.729 130.846 170.499C130.701 170.264 130.502 170.085 130.25 169.961C129.998 169.833 129.712 169.769 129.392 169.769C129.058 169.769 128.767 169.836 128.519 169.971C128.27 170.106 128.078 170.3 127.943 170.552C127.808 170.804 127.741 171.104 127.741 171.452H125.552C125.552 170.738 125.713 170.119 126.036 169.593C126.36 169.067 126.812 168.661 127.395 168.373C127.977 168.086 128.648 167.942 129.408 167.942C130.189 167.942 130.869 168.08 131.448 168.357C132.031 168.631 132.483 169.011 132.807 169.497C133.13 169.984 133.291 170.541 133.291 171.17C133.291 171.582 133.21 171.988 133.046 172.39C132.886 172.791 132.601 173.237 132.189 173.727C131.777 174.213 131.196 174.797 130.447 175.479L128.854 177.04V177.114H133.435V179H125.658ZM136.454 179.138C136.102 179.138 135.801 179.014 135.549 178.766C135.3 178.513 135.176 178.212 135.176 177.86C135.176 177.512 135.3 177.214 135.549 176.965C135.801 176.717 136.102 176.592 136.454 176.592C136.795 176.592 137.093 176.717 137.349 176.965C137.605 177.214 137.732 177.512 137.732 177.86C137.732 178.094 137.672 178.309 137.551 178.505C137.434 178.696 137.28 178.851 137.088 178.968C136.896 179.082 136.685 179.138 136.454 179.138ZM143.255 179.149C142.459 179.149 141.751 179.012 141.13 178.739C140.512 178.462 140.023 178.082 139.665 177.599C139.31 177.113 139.127 176.551 139.116 175.916H141.439C141.453 176.182 141.54 176.417 141.7 176.619C141.863 176.818 142.079 176.972 142.349 177.082C142.619 177.192 142.923 177.248 143.26 177.248C143.612 177.248 143.923 177.185 144.192 177.061C144.462 176.937 144.674 176.765 144.826 176.544C144.979 176.324 145.055 176.07 145.055 175.783C145.055 175.491 144.974 175.234 144.81 175.01C144.651 174.783 144.42 174.605 144.118 174.478C143.82 174.35 143.464 174.286 143.053 174.286H142.035V172.592H143.053C143.401 172.592 143.708 172.532 143.974 172.411C144.244 172.29 144.453 172.123 144.603 171.91C144.752 171.694 144.826 171.441 144.826 171.154C144.826 170.88 144.761 170.641 144.629 170.435C144.501 170.225 144.32 170.062 144.086 169.945C143.855 169.827 143.585 169.769 143.276 169.769C142.964 169.769 142.678 169.826 142.419 169.939C142.159 170.049 141.952 170.207 141.795 170.413C141.639 170.619 141.556 170.861 141.545 171.138H139.334C139.345 170.509 139.524 169.955 139.872 169.476C140.22 168.996 140.689 168.622 141.279 168.352C141.872 168.078 142.541 167.942 143.287 167.942C144.04 167.942 144.698 168.078 145.263 168.352C145.828 168.625 146.266 168.995 146.579 169.46C146.895 169.922 147.051 170.44 147.048 171.015C147.051 171.626 146.861 172.136 146.478 172.544C146.098 172.952 145.602 173.212 144.991 173.322V173.407C145.794 173.51 146.405 173.789 146.824 174.243C147.246 174.694 147.456 175.259 147.452 175.937C147.456 176.559 147.277 177.111 146.914 177.594C146.556 178.077 146.06 178.457 145.428 178.734C144.796 179.011 144.072 179.149 143.255 179.149Z" fill="white"/>
<path d="M129.231 98V92.1818H130.461V96.9858H132.955V98H129.231ZM133.77 98V92.1818H136.099C136.527 92.1818 136.884 92.2453 137.17 92.3722C137.456 92.4991 137.671 92.6752 137.815 92.9006C137.959 93.1241 138.031 93.3816 138.031 93.6733C138.031 93.9006 137.985 94.1004 137.895 94.2727C137.804 94.4432 137.679 94.5833 137.52 94.6932C137.362 94.8011 137.182 94.8778 136.98 94.9233V94.9801C137.201 94.9896 137.409 95.0521 137.602 95.1676C137.797 95.2831 137.955 95.4451 138.076 95.6534C138.198 95.8598 138.258 96.1061 138.258 96.392C138.258 96.7008 138.182 96.9763 138.028 97.2188C137.877 97.4593 137.652 97.6496 137.355 97.7898C137.057 97.9299 136.691 98 136.255 98H133.77ZM135 96.9943H136.003C136.345 96.9943 136.595 96.929 136.753 96.7983C136.91 96.6657 136.988 96.4896 136.988 96.2699C136.988 96.1089 136.95 95.9669 136.872 95.8438C136.794 95.7206 136.683 95.6241 136.539 95.554C136.397 95.4839 136.228 95.4489 136.031 95.4489H135V96.9943ZM135 94.6165H135.912C136.08 94.6165 136.23 94.5871 136.36 94.5284C136.493 94.4678 136.597 94.3826 136.673 94.2727C136.751 94.1629 136.789 94.0312 136.789 93.8778C136.789 93.6676 136.715 93.4981 136.565 93.3693C136.417 93.2405 136.207 93.1761 135.934 93.1761H135V94.6165ZM142.215 93.8551C142.192 93.6259 142.095 93.4479 141.922 93.321C141.75 93.1941 141.516 93.1307 141.221 93.1307C141.02 93.1307 140.85 93.1591 140.712 93.2159C140.574 93.2708 140.468 93.3475 140.394 93.446C140.322 93.5445 140.286 93.6562 140.286 93.7812C140.282 93.8854 140.304 93.9763 140.351 94.054C140.401 94.1316 140.468 94.1989 140.553 94.2557C140.638 94.3106 140.737 94.3589 140.848 94.4006C140.96 94.4403 141.079 94.4744 141.206 94.5028L141.729 94.6278C141.983 94.6847 142.216 94.7604 142.428 94.8551C142.64 94.9498 142.824 95.0663 142.979 95.2045C143.134 95.3428 143.255 95.5057 143.34 95.6932C143.427 95.8807 143.472 96.0956 143.473 96.3381C143.472 96.6941 143.381 97.0028 143.201 97.2642C143.023 97.5237 142.765 97.7254 142.428 97.8693C142.093 98.0114 141.688 98.0824 141.215 98.0824C140.745 98.0824 140.336 98.0104 139.988 97.8665C139.641 97.7225 139.37 97.5095 139.175 97.2273C138.982 96.9432 138.881 96.5919 138.871 96.1733H140.061C140.075 96.3684 140.131 96.5312 140.229 96.6619C140.329 96.7907 140.463 96.8883 140.63 96.9545C140.798 97.0189 140.989 97.0511 141.201 97.0511C141.409 97.0511 141.59 97.0208 141.743 96.9602C141.899 96.8996 142.019 96.8153 142.104 96.7074C142.189 96.5994 142.232 96.4754 142.232 96.3352C142.232 96.2045 142.193 96.0947 142.115 96.0057C142.04 95.9167 141.928 95.8409 141.78 95.7784C141.634 95.7159 141.455 95.6591 141.243 95.608L140.61 95.4489C140.119 95.3295 139.732 95.143 139.448 94.8892C139.164 94.6354 139.023 94.2936 139.025 93.8636C139.023 93.5114 139.116 93.2036 139.306 92.9403C139.497 92.6771 139.759 92.4716 140.093 92.3239C140.426 92.1761 140.805 92.1023 141.229 92.1023C141.661 92.1023 142.038 92.1761 142.36 92.3239C142.684 92.4716 142.936 92.6771 143.115 92.9403C143.295 93.2036 143.388 93.5085 143.394 93.8551H142.215Z" fill="white"/>
<g filter="url(#filter14_d_61_1427)">
<path d="M106.192 132.18C106.192 115.943 119.495 102.78 135.732 102.78V102.78C151.969 102.78 165.272 115.943 165.272 132.18V132.18C165.272 148.417 151.969 161.58 135.732 161.58V161.58C119.495 161.58 106.192 148.417 106.192 132.18V132.18Z" fill="#201919"/>
</g>
<g filter="url(#filter15_bd_61_1427)">
<path d="M112.522 132.18C112.522 119.422 122.974 109.08 135.732 109.08V109.08C148.49 109.08 158.942 119.422 158.942 132.18V132.18C158.942 144.938 148.49 155.28 135.732 155.28V155.28C122.974 155.28 112.522 144.938 112.522 132.18V132.18Z" fill="url(#paint6_linear_61_1427)"/>
</g>
<path d="M120.962 132.18C120.962 124.061 127.614 117.48 135.732 117.48V117.48C143.851 117.48 150.502 124.061 150.502 132.18V132.18C150.502 140.299 143.851 146.88 135.732 146.88V146.88C127.614 146.88 120.962 140.299 120.962 132.18V132.18Z" fill="url(#paint7_linear_61_1427)"/>
<path d="M76 135C76 101.863 102.863 75 136 75V75C169.137 75 196 101.863 196 135V135C196 168.137 169.137 195 136 195V195C102.863 195 76 168.137 76 135V135Z" fill="#2E2525"/>
<g filter="url(#filter16_d_61_1427)">
<path d="M83.2 135C83.2 105.839 106.839 82.2 136 82.2V82.2C165.161 82.2 188.8 105.839 188.8 135V135C188.8 164.161 165.161 187.8 136 187.8V187.8C106.839 187.8 83.2 164.161 83.2 135V135Z" fill="#3D3535" fill-opacity="0.98"/>
</g>
<g filter="url(#filter17_bd_61_1427)">
<rect width="105.12" height="3.6" transform="translate(96.9497 99.8019) rotate(40)" fill="#2E2525"/>
</g>
<g filter="url(#filter18_bd_61_1427)">
<rect width="105.12" height="3.6" transform="translate(97.3921 170.942) rotate(-45)" fill="#2E2525"/>
</g>
<g filter="url(#filter19_d_61_1427)">
<path d="M119.2 135C119.2 125.722 126.722 118.2 136 118.2V118.2C145.278 118.2 152.8 125.722 152.8 135V135C152.8 144.278 145.278 151.8 136 151.8V151.8C126.722 151.8 119.2 144.278 119.2 135V135Z" fill="#201919"/>
</g>
<g filter="url(#filter20_bd_61_1427)">
<path d="M122.8 135C122.8 127.71 128.71 121.8 136 121.8V121.8C143.29 121.8 149.2 127.71 149.2 135V135C149.2 142.29 143.29 148.2 136 148.2V148.2C128.71 148.2 122.8 142.29 122.8 135V135Z" fill="url(#paint8_linear_61_1427)"/>
</g>
<path d="M127.6 135C127.6 130.361 131.361 126.6 136 126.6V126.6C140.639 126.6 144.4 130.361 144.4 135V135C144.4 139.639 140.639 143.4 136 143.4V143.4C131.361 143.4 127.6 139.639 127.6 135V135Z" fill="url(#paint9_linear_61_1427)"/>
<path d="M130.186 180V175.636H131.108V177.56H131.166L132.736 175.636H133.842L132.223 177.59L133.861 180H132.758L131.562 178.206L131.108 178.76V180H130.186ZM136.97 177.047C136.94 176.943 136.898 176.852 136.844 176.772C136.79 176.691 136.724 176.623 136.646 176.567C136.569 176.511 136.481 176.467 136.382 176.438C136.284 176.408 136.175 176.393 136.056 176.393C135.833 176.393 135.637 176.448 135.468 176.559C135.3 176.67 135.17 176.831 135.076 177.043C134.982 177.253 134.935 177.51 134.935 177.814C134.935 178.118 134.981 178.376 135.074 178.589C135.166 178.803 135.297 178.965 135.466 179.077C135.635 179.188 135.834 179.244 136.064 179.244C136.273 179.244 136.452 179.207 136.599 179.133C136.748 179.058 136.862 178.952 136.94 178.815C137.02 178.679 137.059 178.518 137.059 178.332L137.247 178.359H136.122V177.665H137.948V178.214C137.948 178.598 137.867 178.928 137.705 179.203C137.543 179.477 137.32 179.689 137.036 179.838C136.752 179.986 136.427 180.06 136.06 180.06C135.651 180.06 135.292 179.969 134.982 179.789C134.672 179.607 134.431 179.349 134.258 179.016C134.086 178.68 134 178.283 134 177.822C134 177.469 134.051 177.153 134.153 176.876C134.257 176.598 134.402 176.362 134.588 176.169C134.774 175.976 134.991 175.829 135.238 175.728C135.485 175.627 135.753 175.577 136.041 175.577C136.288 175.577 136.518 175.613 136.731 175.685C136.944 175.756 137.133 175.857 137.298 175.988C137.464 176.119 137.6 176.274 137.705 176.455C137.81 176.634 137.878 176.831 137.907 177.047H136.97ZM141.008 176.891C140.991 176.719 140.918 176.586 140.789 176.491C140.659 176.396 140.484 176.348 140.262 176.348C140.112 176.348 139.985 176.369 139.881 176.412C139.777 176.453 139.698 176.511 139.642 176.585C139.588 176.658 139.561 176.742 139.561 176.836C139.559 176.914 139.575 176.982 139.61 177.04C139.647 177.099 139.698 177.149 139.762 177.192C139.826 177.233 139.9 177.269 139.983 177.3C140.067 177.33 140.157 177.356 140.252 177.377L140.644 177.471C140.834 177.513 141.009 177.57 141.168 177.641C141.327 177.712 141.465 177.8 141.581 177.903C141.698 178.007 141.788 178.129 141.852 178.27C141.917 178.411 141.951 178.572 141.952 178.754C141.951 179.021 141.882 179.252 141.748 179.448C141.614 179.643 141.421 179.794 141.168 179.902C140.917 180.009 140.613 180.062 140.258 180.062C139.906 180.062 139.599 180.008 139.338 179.9C139.078 179.792 138.875 179.632 138.728 179.42C138.583 179.207 138.507 178.944 138.5 178.63H139.393C139.403 178.776 139.445 178.898 139.519 178.996C139.594 179.093 139.694 179.166 139.819 179.216C139.946 179.264 140.088 179.288 140.248 179.288C140.404 179.288 140.539 179.266 140.654 179.22C140.771 179.175 140.861 179.112 140.925 179.031C140.989 178.95 141.021 178.857 141.021 178.751C141.021 178.653 140.992 178.571 140.934 178.504C140.877 178.437 140.793 178.381 140.682 178.334C140.573 178.287 140.439 178.244 140.279 178.206L139.804 178.087C139.436 177.997 139.146 177.857 138.933 177.667C138.72 177.477 138.614 177.22 138.615 176.898C138.614 176.634 138.684 176.403 138.826 176.205C138.97 176.008 139.167 175.854 139.417 175.743C139.667 175.632 139.951 175.577 140.269 175.577C140.593 175.577 140.875 175.632 141.117 175.743C141.36 175.854 141.549 176.008 141.684 176.205C141.819 176.403 141.888 176.631 141.892 176.891H141.008Z" fill="#2E2525"/>
<path d="M128.257 92V90.892L130.846 88.495C131.066 88.282 131.251 88.0902 131.4 87.9197C131.552 87.7493 131.667 87.5824 131.745 87.419C131.823 87.2533 131.862 87.0746 131.862 86.8828C131.862 86.6697 131.813 86.4863 131.716 86.3324C131.619 86.1761 131.487 86.0566 131.319 85.9737C131.15 85.8885 130.96 85.8459 130.747 85.8459C130.524 85.8459 130.33 85.8909 130.164 85.9808C129.999 86.0708 129.871 86.1998 129.781 86.3679C129.691 86.536 129.646 86.736 129.646 86.968H128.186C128.186 86.4922 128.294 86.0791 128.51 85.7287C128.725 85.3783 129.027 85.1072 129.415 84.9155C129.803 84.7237 130.251 84.6278 130.757 84.6278C131.278 84.6278 131.732 84.7202 132.118 84.9048C132.506 85.0871 132.808 85.3404 133.023 85.6648C133.239 85.9891 133.346 86.3608 133.346 86.7798C133.346 87.0545 133.292 87.3255 133.183 87.593C133.076 87.8606 132.886 88.1577 132.611 88.4844C132.337 88.8087 131.949 89.1982 131.45 89.6527L130.388 90.6932V90.7429H133.442V92H128.257ZM135.455 92.0923C135.22 92.0923 135.019 92.0095 134.851 91.8438C134.685 91.6757 134.602 91.4744 134.602 91.2401C134.602 91.008 134.685 90.8092 134.851 90.6435C135.019 90.4777 135.22 90.3949 135.455 90.3949C135.682 90.3949 135.881 90.4777 136.051 90.6435C136.222 90.8092 136.307 91.008 136.307 91.2401C136.307 91.3963 136.267 91.5395 136.186 91.6697C136.108 91.7976 136.005 91.9006 135.877 91.9787C135.749 92.0545 135.609 92.0923 135.455 92.0923ZM140.132 92.0994C139.631 92.0994 139.183 92.0071 138.79 91.8224C138.4 91.6378 138.089 91.3833 137.86 91.0589C137.63 90.7346 137.511 90.3629 137.501 89.9439H138.993C139.009 90.2256 139.127 90.4541 139.348 90.6293C139.568 90.8045 139.829 90.892 140.132 90.892C140.374 90.892 140.587 90.8388 140.772 90.7322C140.959 90.6233 141.104 90.473 141.208 90.2812C141.315 90.0871 141.368 89.8646 141.368 89.6136C141.368 89.358 141.314 89.133 141.205 88.9389C141.098 88.7448 140.95 88.5933 140.761 88.4844C140.572 88.3755 140.355 88.3198 140.111 88.3175C139.898 88.3175 139.691 88.3613 139.49 88.4489C139.291 88.5365 139.136 88.656 139.025 88.8075L137.657 88.5625L138.002 84.7273H142.448V85.9844H139.27L139.081 87.8061H139.124C139.252 87.6262 139.445 87.477 139.703 87.3587C139.961 87.2403 140.25 87.1811 140.569 87.1811C141.007 87.1811 141.398 87.2841 141.741 87.4901C142.084 87.696 142.355 87.9789 142.554 88.3388C142.753 88.6963 142.851 89.1082 142.849 89.5746C142.851 90.0646 142.738 90.5002 142.508 90.8814C142.281 91.2602 141.962 91.5585 141.553 91.7763C141.146 91.9917 140.672 92.0994 140.132 92.0994Z" fill="#2E2525"/>
<path d="M130.1 166.983V174.256H128.563V168.443H128.52L126.854 169.487V168.123L128.655 166.983H130.1ZM132.337 174.348C132.102 174.348 131.901 174.265 131.733 174.099C131.567 173.931 131.484 173.73 131.484 173.496C131.484 173.264 131.567 173.065 131.733 172.899C131.901 172.733 132.102 172.651 132.337 172.651C132.564 172.651 132.763 172.733 132.933 172.899C133.104 173.065 133.189 173.264 133.189 173.496C133.189 173.652 133.149 173.795 133.068 173.925C132.99 174.053 132.887 174.156 132.759 174.234C132.631 174.31 132.49 174.348 132.337 174.348ZM136.672 166.983V174.256H135.135V168.443H135.092L133.427 169.487V168.123L135.227 166.983H136.672ZM141.089 174.355C140.559 174.355 140.087 174.264 139.672 174.082C139.26 173.897 138.935 173.644 138.696 173.322C138.459 172.997 138.337 172.623 138.33 172.2H139.878C139.888 172.377 139.946 172.533 140.052 172.668C140.161 172.801 140.306 172.904 140.486 172.977C140.665 173.051 140.868 173.087 141.093 173.087C141.327 173.087 141.534 173.046 141.714 172.963C141.894 172.88 142.035 172.765 142.137 172.619C142.239 172.472 142.29 172.303 142.29 172.111C142.29 171.917 142.235 171.745 142.126 171.596C142.02 171.444 141.866 171.326 141.665 171.241C141.466 171.156 141.229 171.113 140.954 171.113H140.276V169.984H140.954C141.186 169.984 141.391 169.943 141.569 169.863C141.749 169.782 141.888 169.671 141.988 169.529C142.087 169.385 142.137 169.217 142.137 169.025C142.137 168.843 142.093 168.683 142.005 168.546C141.92 168.406 141.799 168.297 141.643 168.219C141.489 168.141 141.309 168.102 141.103 168.102C140.895 168.102 140.705 168.139 140.532 168.215C140.359 168.289 140.22 168.394 140.116 168.531C140.012 168.669 139.956 168.83 139.949 169.014H138.476C138.483 168.595 138.602 168.226 138.834 167.906C139.066 167.587 139.379 167.337 139.772 167.157C140.167 166.975 140.613 166.884 141.111 166.884C141.612 166.884 142.052 166.975 142.428 167.157C142.804 167.339 143.097 167.586 143.305 167.896C143.516 168.203 143.62 168.549 143.618 168.933C143.62 169.34 143.493 169.68 143.238 169.952C142.984 170.224 142.654 170.397 142.247 170.47V170.527C142.782 170.596 143.189 170.782 143.468 171.085C143.75 171.385 143.89 171.762 143.888 172.214C143.89 172.628 143.77 172.996 143.529 173.318C143.29 173.64 142.959 173.894 142.538 174.078C142.117 174.263 141.634 174.355 141.089 174.355Z" fill="#2E2525"/>
<path d="M130.311 100.705V96.341H131.102V100.042H133.024V100.705H130.311ZM133.71 100.705V96.341H135.38C135.695 96.341 135.958 96.3907 136.166 96.4901C136.377 96.5881 136.534 96.7223 136.637 96.8928C136.742 97.0633 136.795 97.2564 136.795 97.4723C136.795 97.6499 136.761 97.8019 136.693 97.9283C136.624 98.0533 136.533 98.1549 136.418 98.233C136.303 98.3111 136.174 98.3672 136.032 98.4013V98.4439C136.187 98.4525 136.335 98.5 136.477 98.5867C136.621 98.6719 136.738 98.7927 136.829 98.9489C136.92 99.1052 136.965 99.2941 136.965 99.5157C136.965 99.7415 136.911 99.9446 136.801 100.125C136.692 100.304 136.527 100.445 136.307 100.549C136.087 100.653 135.81 100.705 135.476 100.705H133.71ZM134.5 100.044H135.35C135.637 100.044 135.844 99.9894 135.97 99.88C136.098 99.7692 136.162 99.6272 136.162 99.4539C136.162 99.3246 136.13 99.2081 136.066 99.1044C136.002 98.9993 135.911 98.9169 135.793 98.8573C135.676 98.7962 135.535 98.7657 135.372 98.7657H134.5V100.044ZM134.5 98.1968H135.282C135.418 98.1968 135.541 98.1719 135.651 98.1222C135.76 98.0711 135.846 97.9993 135.909 97.907C135.972 97.8133 136.004 97.7025 136.004 97.5746C136.004 97.4056 135.945 97.2664 135.825 97.157C135.708 97.0476 135.532 96.9929 135.299 96.9929H134.5V98.1968ZM140.025 97.5405C140.005 97.3544 139.921 97.2096 139.773 97.1059C139.627 97.0022 139.436 96.9503 139.202 96.9503C139.037 96.9503 138.896 96.9752 138.778 97.0249C138.66 97.0746 138.57 97.1421 138.507 97.2273C138.445 97.3125 138.413 97.4098 138.412 97.5192C138.412 97.6101 138.432 97.689 138.473 97.7557C138.516 97.8225 138.574 97.8793 138.646 97.9262C138.718 97.9716 138.799 98.01 138.887 98.0412C138.975 98.0725 139.064 98.0988 139.153 98.1201L139.562 98.2223C139.727 98.2607 139.885 98.3125 140.037 98.3779C140.191 98.4432 140.328 98.5256 140.449 98.625C140.571 98.7245 140.667 98.8445 140.738 98.9851C140.809 99.1258 140.845 99.2905 140.845 99.4794C140.845 99.7351 140.779 99.9603 140.649 100.155C140.518 100.348 140.329 100.499 140.082 100.609C139.836 100.717 139.539 100.771 139.189 100.771C138.85 100.771 138.555 100.718 138.305 100.613C138.056 100.508 137.862 100.354 137.721 100.153C137.582 99.951 137.507 99.7053 137.495 99.4155H138.273C138.284 99.5675 138.331 99.6939 138.414 99.7948C138.496 99.8956 138.603 99.9709 138.735 100.021C138.869 100.07 139.018 100.095 139.183 100.095C139.355 100.095 139.505 100.07 139.635 100.019C139.765 99.966 139.868 99.8935 139.941 99.8012C140.015 99.7074 140.053 99.5981 140.054 99.4731C140.053 99.3594 140.02 99.2657 139.954 99.1918C139.889 99.1165 139.797 99.054 139.679 99.0043C139.563 98.9532 139.426 98.9077 139.27 98.8679L138.774 98.7401C138.414 98.6478 138.13 98.5079 137.922 98.3204C137.714 98.1314 137.61 97.8807 137.61 97.5682C137.61 97.3111 137.68 97.086 137.819 96.8928C137.96 96.6996 138.151 96.5498 138.392 96.4432C138.634 96.3353 138.907 96.2813 139.213 96.2813C139.522 96.2813 139.794 96.3353 140.027 96.4432C140.261 96.5498 140.445 96.6982 140.578 96.8885C140.712 97.0775 140.781 97.2948 140.785 97.5405H140.025Z" fill="#2E2525"/>
<g filter="url(#filter21_d_61_1427)">
<path d="M106 135.4C106 119.163 119.303 106 135.54 106V106C151.777 106 165.08 119.163 165.08 135.4V135.4C165.08 151.637 151.777 164.8 135.54 164.8V164.8C119.303 164.8 106 151.637 106 135.4V135.4Z" fill="#201919"/>
</g>
<g filter="url(#filter22_bd_61_1427)">
<path d="M112.33 135.4C112.33 122.642 122.782 112.3 135.54 112.3V112.3C148.298 112.3 158.75 122.642 158.75 135.4V135.4C158.75 148.158 148.298 158.5 135.54 158.5V158.5C122.782 158.5 112.33 148.158 112.33 135.4V135.4Z" fill="url(#paint10_linear_61_1427)"/>
</g>
<path d="M120.77 135.4C120.77 127.281 127.421 120.7 135.54 120.7V120.7C143.659 120.7 150.31 127.281 150.31 135.4V135.4C150.31 143.519 143.659 150.1 135.54 150.1V150.1C127.421 150.1 120.77 143.519 120.77 135.4V135.4Z" fill="url(#paint11_linear_61_1427)"/>
<defs>
<filter id="filter0_bd_61_1427" x="56.7681" y="67.4034" width="157.661" height="137.073" filterUnits="userSpaceOnUse" color-interpolation-filters="sRGB">
<feFlood flood-opacity="0" result="BackgroundImageFix"/>
<feGaussianBlur in="BackgroundImageFix" stdDeviation="3"/>
<feComposite in2="SourceAlpha" operator="in" result="effect1_backgroundBlur_61_1427"/>
<feColorMatrix in="SourceAlpha" type="matrix" values="0 0 0 0 0 0 0 0 0 0 0 0 0 0 0 0 0 0 127 0" result="hardAlpha"/>
<feOffset dy="4"/>
<feGaussianBlur stdDeviation="2"/>
<feComposite in2="hardAlpha" operator="out"/>
<feColorMatrix type="matrix" values="0 0 0 0 0 0 0 0 0 0 0 0 0 0 0 0 0 0 0.25 0"/>
<feBlend mode="normal" in2="effect1_backgroundBlur_61_1427" result="effect2_dropShadow_61_1427"/>
<feBlend mode="normal" in="SourceGraphic" in2="effect2_dropShadow_61_1427" result="shape"/>
</filter>
<filter id="filter1_bd_61_1427" x="61.6143" y="61.8199" width="147.175" height="148.534" filterUnits="userSpaceOnUse" color-interpolation-filters="sRGB">
<feFlood flood-opacity="0" result="BackgroundImageFix"/>
<feGaussianBlur in="BackgroundImageFix" stdDeviation="3"/>
<feComposite in2="SourceAlpha" operator="in" result="effect1_backgroundBlur_61_1427"/>
<feColorMatrix in="SourceAlpha" type="matrix" values="0 0 0 0 0 0 0 0 0 0 0 0 0 0 0 0 0 0 127 0" result="hardAlpha"/>
<feOffset dy="4"/>
<feGaussianBlur stdDeviation="2"/>
<feComposite in2="hardAlpha" operator="out"/>
<feColorMatrix type="matrix" values="0 0 0 0 0 0 0 0 0 0 0 0 0 0 0 0 0 0 0.25 0"/>
<feBlend mode="normal" in2="effect1_backgroundBlur_61_1427" result="effect2_dropShadow_61_1427"/>
<feBlend mode="normal" in="SourceGraphic" in2="effect2_dropShadow_61_1427" result="shape"/>
</filter>
<filter id="filter2_d_61_1427" x="101.96" y="105.6" width="67.0801" height="66.7999" filterUnits="userSpaceOnUse" color-interpolation-filters="sRGB">
<feFlood flood-opacity="0" result="BackgroundImageFix"/>
<feColorMatrix in="SourceAlpha" type="matrix" values="0 0 0 0 0 0 0 0 0 0 0 0 0 0 0 0 0 0 127 0" result="hardAlpha"/>
<feOffset dy="4"/>
<feGaussianBlur stdDeviation="2"/>
<feComposite in2="hardAlpha" operator="out"/>
<feColorMatrix type="matrix" values="0 0 0 0 0 0 0 0 0 0 0 0 0 0 0 0 0 0 0.25 0"/>
<feBlend mode="normal" in2="BackgroundImageFix" result="effect1_dropShadow_61_1427"/>
<feBlend mode="normal" in="SourceGraphic" in2="effect1_dropShadow_61_1427" result="shape"/>
</filter>
<filter id="filter3_bd_61_1427" x="101.29" y="100.9" width="68.4199" height="68.2" filterUnits="userSpaceOnUse" color-interpolation-filters="sRGB">
<feFlood flood-opacity="0" result="BackgroundImageFix"/>
<feGaussianBlur in="BackgroundImageFix" stdDeviation="2"/>
<feComposite in2="SourceAlpha" operator="in" result="effect1_backgroundBlur_61_1427"/>
<feColorMatrix in="SourceAlpha" type="matrix" values="0 0 0 0 0 0 0 0 0 0 0 0 0 0 0 0 0 0 127 0" result="hardAlpha"/>
<feMorphology radius="4" operator="dilate" in="SourceAlpha" result="effect2_dropShadow_61_1427"/>
<feOffset/>
<feGaussianBlur stdDeviation="3.5"/>
<feComposite in2="hardAlpha" operator="out"/>
<feColorMatrix type="matrix" values="0 0 0 0 0 0 0 0 0 0 0 0 0 0 0 0 0 0 0.25 0"/>
<feBlend mode="normal" in2="effect1_backgroundBlur_61_1427" result="effect2_dropShadow_61_1427"/>
<feBlend mode="normal" in="SourceGraphic" in2="effect2_dropShadow_61_1427" result="shape"/>
</filter>
<filter id="filter4_d_61_1427" x="26.1" y="26.1" width="219.48" height="218.6" filterUnits="userSpaceOnUse" color-interpolation-filters="sRGB">
<feFlood flood-opacity="0" result="BackgroundImageFix"/>
<feColorMatrix in="SourceAlpha" type="matrix" values="0 0 0 0 0 0 0 0 0 0 0 0 0 0 0 0 0 0 127 0" result="hardAlpha"/>
<feMorphology radius="9" operator="dilate" in="SourceAlpha" result="effect1_dropShadow_61_1427"/>
<feOffset/>
<feGaussianBlur stdDeviation="3.95"/>
<feColorMatrix type="matrix" values="0 0 0 0 0 0 0 0 0 0 0 0 0 0 0 0 0 0 0.25 0"/>
<feBlend mode="normal" in2="BackgroundImageFix" result="effect1_dropShadow_61_1427"/>
<feBlend mode="normal" in="SourceGraphic" in2="effect1_dropShadow_61_1427" result="shape"/>
</filter>
<filter id="filter5_bd_61_1427" x="56.7681" y="67.4034" width="157.661" height="137.073" filterUnits="userSpaceOnUse" color-interpolation-filters="sRGB">
<feFlood flood-opacity="0" result="BackgroundImageFix"/>
<feGaussianBlur in="BackgroundImageFix" stdDeviation="3"/>
<feComposite in2="SourceAlpha" operator="in" result="effect1_backgroundBlur_61_1427"/>
<feColorMatrix in="SourceAlpha" type="matrix" values="0 0 0 0 0 0 0 0 0 0 0 0 0 0 0 0 0 0 127 0" result="hardAlpha"/>
<feOffset dy="4"/>
<feGaussianBlur stdDeviation="2"/>
<feComposite in2="hardAlpha" operator="out"/>
<feColorMatrix type="matrix" values="0 0 0 0 0 0 0 0 0 0 0 0 0 0 0 0 0 0 0.25 0"/>
<feBlend mode="normal" in2="effect1_backgroundBlur_61_1427" result="effect2_dropShadow_61_1427"/>
<feBlend mode="normal" in="SourceGraphic" in2="effect2_dropShadow_61_1427" result="shape"/>
</filter>
<filter id="filter6_bd_61_1427" x="61.6143" y="61.8199" width="147.175" height="148.534" filterUnits="userSpaceOnUse" color-interpolation-filters="sRGB">
<feFlood flood-opacity="0" result="BackgroundImageFix"/>
<feGaussianBlur in="BackgroundImageFix" stdDeviation="3"/>
<feComposite in2="SourceAlpha" operator="in" result="effect1_backgroundBlur_61_1427"/>
<feColorMatrix in="SourceAlpha" type="matrix" values="0 0 0 0 0 0 0 0 0 0 0 0 0 0 0 0 0 0 127 0" result="hardAlpha"/>
<feOffset dy="4"/>
<feGaussianBlur stdDeviation="2"/>
<feComposite in2="hardAlpha" operator="out"/>
<feColorMatrix type="matrix" values="0 0 0 0 0 0 0 0 0 0 0 0 0 0 0 0 0 0 0.25 0"/>
<feBlend mode="normal" in2="effect1_backgroundBlur_61_1427" result="effect2_dropShadow_61_1427"/>
<feBlend mode="normal" in="SourceGraphic" in2="effect2_dropShadow_61_1427" result="shape"/>
</filter>
<filter id="filter7_d_61_1427" x="101.96" y="105.6" width="67.0801" height="66.7999" filterUnits="userSpaceOnUse" color-interpolation-filters="sRGB">
<feFlood flood-opacity="0" result="BackgroundImageFix"/>
<feColorMatrix in="SourceAlpha" type="matrix" values="0 0 0 0 0 0 0 0 0 0 0 0 0 0 0 0 0 0 127 0" result="hardAlpha"/>
<feOffset dy="4"/>
<feGaussianBlur stdDeviation="2"/>
<feComposite in2="hardAlpha" operator="out"/>
<feColorMatrix type="matrix" values="0 0 0 0 0 0 0 0 0 0 0 0 0 0 0 0 0 0 0.25 0"/>
<feBlend mode="normal" in2="BackgroundImageFix" result="effect1_dropShadow_61_1427"/>
<feBlend mode="normal" in="SourceGraphic" in2="effect1_dropShadow_61_1427" result="shape"/>
</filter>
<filter id="filter8_bd_61_1427" x="101.29" y="100.9" width="68.4199" height="68.2" filterUnits="userSpaceOnUse" color-interpolation-filters="sRGB">
<feFlood flood-opacity="0" result="BackgroundImageFix"/>
<feGaussianBlur in="BackgroundImageFix" stdDeviation="2"/>
<feComposite in2="SourceAlpha" operator="in" result="effect1_backgroundBlur_61_1427"/>
<feColorMatrix in="SourceAlpha" type="matrix" values="0 0 0 0 0 0 0 0 0 0 0 0 0 0 0 0 0 0 127 0" result="hardAlpha"/>
<feMorphology radius="4" operator="dilate" in="SourceAlpha" result="effect2_dropShadow_61_1427"/>
<feOffset/>
<feGaussianBlur stdDeviation="3.5"/>
<feComposite in2="hardAlpha" operator="out"/>
<feColorMatrix type="matrix" values="0 0 0 0 0 0 0 0 0 0 0 0 0 0 0 0 0 0 0.25 0"/>
<feBlend mode="normal" in2="effect1_backgroundBlur_61_1427" result="effect2_dropShadow_61_1427"/>
<feBlend mode="normal" in="SourceGraphic" in2="effect2_dropShadow_61_1427" result="shape"/>
</filter>
<filter id="filter9_d_61_1427" x="48.7001" y="47.7" width="174.6" height="174.6" filterUnits="userSpaceOnUse" color-interpolation-filters="sRGB">
<feFlood flood-opacity="0" result="BackgroundImageFix"/>
<feColorMatrix in="SourceAlpha" type="matrix" values="0 0 0 0 0 0 0 0 0 0 0 0 0 0 0 0 0 0 127 0" result="hardAlpha"/>
<feMorphology radius="9" operator="dilate" in="SourceAlpha" result="effect1_dropShadow_61_1427"/>
<feOffset/>
<feGaussianBlur stdDeviation="3.95"/>
<feColorMatrix type="matrix" values="0 0 0 0 0 0 0 0 0 0 0 0 0 0 0 0 0 0 0.25 0"/>
<feBlend mode="normal" in2="BackgroundImageFix" result="effect1_dropShadow_61_1427"/>
<feBlend mode="normal" in="SourceGraphic" in2="effect1_dropShadow_61_1427" result="shape"/>
</filter>
<filter id="filter10_bd_61_1427" x="74.8477" y="82.0692" width="122.454" height="107.77" filterUnits="userSpaceOnUse" color-interpolation-filters="sRGB">
<feFlood flood-opacity="0" result="BackgroundImageFix"/>
<feGaussianBlur in="BackgroundImageFix" stdDeviation="3"/>
<feComposite in2="SourceAlpha" operator="in" result="effect1_backgroundBlur_61_1427"/>
<feColorMatrix in="SourceAlpha" type="matrix" values="0 0 0 0 0 0 0 0 0 0 0 0 0 0 0 0 0 0 127 0" result="hardAlpha"/>
<feOffset dy="4"/>
<feGaussianBlur stdDeviation="2"/>
<feComposite in2="hardAlpha" operator="out"/>
<feColorMatrix type="matrix" values="0 0 0 0 0 0 0 0 0 0 0 0 0 0 0 0 0 0 0.25 0"/>
<feBlend mode="normal" in2="effect1_backgroundBlur_61_1427" result="effect2_dropShadow_61_1427"/>
<feBlend mode="normal" in="SourceGraphic" in2="effect2_dropShadow_61_1427" result="shape"/>
</filter>
<filter id="filter11_bd_61_1427" x="78.5225" y="77.8152" width="114.502" height="116.502" filterUnits="userSpaceOnUse" color-interpolation-filters="sRGB">
<feFlood flood-opacity="0" result="BackgroundImageFix"/>
<feGaussianBlur in="BackgroundImageFix" stdDeviation="3"/>
<feComposite in2="SourceAlpha" operator="in" result="effect1_backgroundBlur_61_1427"/>
<feColorMatrix in="SourceAlpha" type="matrix" values="0 0 0 0 0 0 0 0 0 0 0 0 0 0 0 0 0 0 127 0" result="hardAlpha"/>
<feOffset dy="4"/>
<feGaussianBlur stdDeviation="2"/>
<feComposite in2="hardAlpha" operator="out"/>
<feColorMatrix type="matrix" values="0 0 0 0 0 0 0 0 0 0 0 0 0 0 0 0 0 0 0.25 0"/>
<feBlend mode="normal" in2="effect1_backgroundBlur_61_1427" result="effect2_dropShadow_61_1427"/>
<feBlend mode="normal" in="SourceGraphic" in2="effect2_dropShadow_61_1427" result="shape"/>
</filter>
<filter id="filter12_d_61_1427" x="109.6" y="112.6" width="52.8" height="52.8" filterUnits="userSpaceOnUse" color-interpolation-filters="sRGB">
<feFlood flood-opacity="0" result="BackgroundImageFix"/>
<feColorMatrix in="SourceAlpha" type="matrix" values="0 0 0 0 0 0 0 0 0 0 0 0 0 0 0 0 0 0 127 0" result="hardAlpha"/>
<feOffset dy="4"/>
<feGaussianBlur stdDeviation="2"/>
<feComposite in2="hardAlpha" operator="out"/>
<feColorMatrix type="matrix" values="0 0 0 0 0 0 0 0 0 0 0 0 0 0 0 0 0 0 0.25 0"/>
<feBlend mode="normal" in2="BackgroundImageFix" result="effect1_dropShadow_61_1427"/>
<feBlend mode="normal" in="SourceGraphic" in2="effect1_dropShadow_61_1427" result="shape"/>
</filter>
<filter id="filter13_bd_61_1427" x="107.4" y="106.4" width="57.2" height="57.2" filterUnits="userSpaceOnUse" color-interpolation-filters="sRGB">
<feFlood flood-opacity="0" result="BackgroundImageFix"/>
<feGaussianBlur in="BackgroundImageFix" stdDeviation="2"/>
<feComposite in2="SourceAlpha" operator="in" result="effect1_backgroundBlur_61_1427"/>
<feColorMatrix in="SourceAlpha" type="matrix" values="0 0 0 0 0 0 0 0 0 0 0 0 0 0 0 0 0 0 127 0" result="hardAlpha"/>
<feMorphology radius="4" operator="dilate" in="SourceAlpha" result="effect2_dropShadow_61_1427"/>
<feOffset/>
<feGaussianBlur stdDeviation="3.5"/>
<feComposite in2="hardAlpha" operator="out"/>
<feColorMatrix type="matrix" values="0 0 0 0 0 0 0 0 0 0 0 0 0 0 0 0 0 0 0.25 0"/>
<feBlend mode="normal" in2="effect1_backgroundBlur_61_1427" result="effect2_dropShadow_61_1427"/>
<feBlend mode="normal" in="SourceGraphic" in2="effect2_dropShadow_61_1427" result="shape"/>
</filter>
<filter id="filter14_d_61_1427" x="102.192" y="102.78" width="67.0801" height="66.7999" filterUnits="userSpaceOnUse" color-interpolation-filters="sRGB">
<feFlood flood-opacity="0" result="BackgroundImageFix"/>
<feColorMatrix in="SourceAlpha" type="matrix" values="0 0 0 0 0 0 0 0 0 0 0 0 0 0 0 0 0 0 127 0" result="hardAlpha"/>
<feOffset dy="4"/>
<feGaussianBlur stdDeviation="2"/>
<feComposite in2="hardAlpha" operator="out"/>
<feColorMatrix type="matrix" values="0 0 0 0 0 0 0 0 0 0 0 0 0 0 0 0 0 0 0.25 0"/>
<feBlend mode="normal" in2="BackgroundImageFix" result="effect1_dropShadow_61_1427"/>
<feBlend mode="normal" in="SourceGraphic" in2="effect1_dropShadow_61_1427" result="shape"/>
</filter>
<filter id="filter15_bd_61_1427" x="101.522" y="98.0801" width="68.4199" height="68.2" filterUnits="userSpaceOnUse" color-interpolation-filters="sRGB">
<feFlood flood-opacity="0" result="BackgroundImageFix"/>
<feGaussianBlur in="BackgroundImageFix" stdDeviation="2"/>
<feComposite in2="SourceAlpha" operator="in" result="effect1_backgroundBlur_61_1427"/>
<feColorMatrix in="SourceAlpha" type="matrix" values="0 0 0 0 0 0 0 0 0 0 0 0 0 0 0 0 0 0 127 0" result="hardAlpha"/>
<feMorphology radius="4" operator="dilate" in="SourceAlpha" result="effect2_dropShadow_61_1427"/>
<feOffset/>
<feGaussianBlur stdDeviation="3.5"/>
<feComposite in2="hardAlpha" operator="out"/>
<feColorMatrix type="matrix" values="0 0 0 0 0 0 0 0 0 0 0 0 0 0 0 0 0 0 0.25 0"/>
<feBlend mode="normal" in2="effect1_backgroundBlur_61_1427" result="effect2_dropShadow_61_1427"/>
<feBlend mode="normal" in="SourceGraphic" in2="effect2_dropShadow_61_1427" result="shape"/>
</filter>
<filter id="filter16_d_61_1427" x="66.3" y="65.3" width="139.4" height="139.4" filterUnits="userSpaceOnUse" color-interpolation-filters="sRGB">
<feFlood flood-opacity="0" result="BackgroundImageFix"/>
<feColorMatrix in="SourceAlpha" type="matrix" values="0 0 0 0 0 0 0 0 0 0 0 0 0 0 0 0 0 0 127 0" result="hardAlpha"/>
<feMorphology radius="9" operator="dilate" in="SourceAlpha" result="effect1_dropShadow_61_1427"/>
<feOffset/>
<feGaussianBlur stdDeviation="3.95"/>
<feColorMatrix type="matrix" values="0 0 0 0 0 0 0 0 0 0 0 0 0 0 0 0 0 0 0.25 0"/>
<feBlend mode="normal" in2="BackgroundImageFix" result="effect1_dropShadow_61_1427"/>
<feBlend mode="normal" in="SourceGraphic" in2="effect1_dropShadow_61_1427" result="shape"/>
</filter>
<filter id="filter17_bd_61_1427" x="88.6357" y="93.8019" width="94.8406" height="84.3276" filterUnits="userSpaceOnUse" color-interpolation-filters="sRGB">
<feFlood flood-opacity="0" result="BackgroundImageFix"/>
<feGaussianBlur in="BackgroundImageFix" stdDeviation="3"/>
<feComposite in2="SourceAlpha" operator="in" result="effect1_backgroundBlur_61_1427"/>
<feColorMatrix in="SourceAlpha" type="matrix" values="0 0 0 0 0 0 0 0 0 0 0 0 0 0 0 0 0 0 127 0" result="hardAlpha"/>
<feOffset dy="4"/>
<feGaussianBlur stdDeviation="2"/>
<feComposite in2="hardAlpha" operator="out"/>
<feColorMatrix type="matrix" values="0 0 0 0 0 0 0 0 0 0 0 0 0 0 0 0 0 0 0.25 0"/>
<feBlend mode="normal" in2="effect1_backgroundBlur_61_1427" result="effect2_dropShadow_61_1427"/>
<feBlend mode="normal" in="SourceGraphic" in2="effect2_dropShadow_61_1427" result="shape"/>
</filter>
<filter id="filter18_bd_61_1427" x="91.3921" y="90.6113" width="88.8767" height="90.8766" filterUnits="userSpaceOnUse" color-interpolation-filters="sRGB">
<feFlood flood-opacity="0" result="BackgroundImageFix"/>
<feGaussianBlur in="BackgroundImageFix" stdDeviation="3"/>
<feComposite in2="SourceAlpha" operator="in" result="effect1_backgroundBlur_61_1427"/>
<feColorMatrix in="SourceAlpha" type="matrix" values="0 0 0 0 0 0 0 0 0 0 0 0 0 0 0 0 0 0 127 0" result="hardAlpha"/>
<feOffset dy="4"/>
<feGaussianBlur stdDeviation="2"/>
<feComposite in2="hardAlpha" operator="out"/>
<feColorMatrix type="matrix" values="0 0 0 0 0 0 0 0 0 0 0 0 0 0 0 0 0 0 0.25 0"/>
<feBlend mode="normal" in2="effect1_backgroundBlur_61_1427" result="effect2_dropShadow_61_1427"/>
<feBlend mode="normal" in="SourceGraphic" in2="effect2_dropShadow_61_1427" result="shape"/>
</filter>
<filter id="filter19_d_61_1427" x="115.2" y="118.2" width="41.6001" height="41.6" filterUnits="userSpaceOnUse" color-interpolation-filters="sRGB">
<feFlood flood-opacity="0" result="BackgroundImageFix"/>
<feColorMatrix in="SourceAlpha" type="matrix" values="0 0 0 0 0 0 0 0 0 0 0 0 0 0 0 0 0 0 127 0" result="hardAlpha"/>
<feOffset dy="4"/>
<feGaussianBlur stdDeviation="2"/>
<feComposite in2="hardAlpha" operator="out"/>
<feColorMatrix type="matrix" values="0 0 0 0 0 0 0 0 0 0 0 0 0 0 0 0 0 0 0.25 0"/>
<feBlend mode="normal" in2="BackgroundImageFix" result="effect1_dropShadow_61_1427"/>
<feBlend mode="normal" in="SourceGraphic" in2="effect1_dropShadow_61_1427" result="shape"/>
</filter>
<filter id="filter20_bd_61_1427" x="111.8" y="110.8" width="48.3999" height="48.4" filterUnits="userSpaceOnUse" color-interpolation-filters="sRGB">
<feFlood flood-opacity="0" result="BackgroundImageFix"/>
<feGaussianBlur in="BackgroundImageFix" stdDeviation="2"/>
<feComposite in2="SourceAlpha" operator="in" result="effect1_backgroundBlur_61_1427"/>
<feColorMatrix in="SourceAlpha" type="matrix" values="0 0 0 0 0 0 0 0 0 0 0 0 0 0 0 0 0 0 127 0" result="hardAlpha"/>
<feMorphology radius="4" operator="dilate" in="SourceAlpha" result="effect2_dropShadow_61_1427"/>
<feOffset/>
<feGaussianBlur stdDeviation="3.5"/>
<feComposite in2="hardAlpha" operator="out"/>
<feColorMatrix type="matrix" values="0 0 0 0 0 0 0 0 0 0 0 0 0 0 0 0 0 0 0.25 0"/>
<feBlend mode="normal" in2="effect1_backgroundBlur_61_1427" result="effect2_dropShadow_61_1427"/>
<feBlend mode="normal" in="SourceGraphic" in2="effect2_dropShadow_61_1427" result="shape"/>
</filter>
<filter id="filter21_d_61_1427" x="102" y="106" width="67.0801" height="66.7999" filterUnits="userSpaceOnUse" color-interpolation-filters="sRGB">
<feFlood flood-opacity="0" result="BackgroundImageFix"/>
<feColorMatrix in="SourceAlpha" type="matrix" values="0 0 0 0 0 0 0 0 0 0 0 0 0 0 0 0 0 0 127 0" result="hardAlpha"/>
<feOffset dy="4"/>
<feGaussianBlur stdDeviation="2"/>
<feComposite in2="hardAlpha" operator="out"/>
<feColorMatrix type="matrix" values="0 0 0 0 0 0 0 0 0 0 0 0 0 0 0 0 0 0 0.25 0"/>
<feBlend mode="normal" in2="BackgroundImageFix" result="effect1_dropShadow_61_1427"/>
<feBlend mode="normal" in="SourceGraphic" in2="effect1_dropShadow_61_1427" result="shape"/>
</filter>
<filter id="filter22_bd_61_1427" x="101.33" y="101.3" width="68.4199" height="68.2" filterUnits="userSpaceOnUse" color-interpolation-filters="sRGB">
<feFlood flood-opacity="0" result="BackgroundImageFix"/>
<feGaussianBlur in="BackgroundImageFix" stdDeviation="2"/>
<feComposite in2="SourceAlpha" operator="in" result="effect1_backgroundBlur_61_1427"/>
<feColorMatrix in="SourceAlpha" type="matrix" values="0 0 0 0 0 0 0 0 0 0 0 0 0 0 0 0 0 0 127 0" result="hardAlpha"/>
<feMorphology radius="4" operator="dilate" in="SourceAlpha" result="effect2_dropShadow_61_1427"/>
<feOffset/>
<feGaussianBlur stdDeviation="3.5"/>
<feComposite in2="hardAlpha" operator="out"/>
<feColorMatrix type="matrix" values="0 0 0 0 0 0 0 0 0 0 0 0 0 0 0 0 0 0 0.25 0"/>
<feBlend mode="normal" in2="effect1_backgroundBlur_61_1427" result="effect2_dropShadow_61_1427"/>
<feBlend mode="normal" in="SourceGraphic" in2="effect2_dropShadow_61_1427" result="shape"/>
</filter>
<linearGradient id="paint0_linear_61_1427" x1="135.5" y1="111.9" x2="135.5" y2="158.1" gradientUnits="userSpaceOnUse">
<stop stop-color="#595959"/>
<stop offset="1" stop-color="#BFBFBF"/>
</linearGradient>
<linearGradient id="paint1_linear_61_1427" x1="135.5" y1="120.3" x2="135.5" y2="149.7" gradientUnits="userSpaceOnUse">
<stop stop-color="#AAAAAA"/>
<stop offset="1" stop-color="#6E6E6E"/>
</linearGradient>
<linearGradient id="paint2_linear_61_1427" x1="135.5" y1="111.9" x2="135.5" y2="158.1" gradientUnits="userSpaceOnUse">
<stop stop-color="#595959"/>
<stop offset="1" stop-color="#BFBFBF"/>
</linearGradient>
<linearGradient id="paint3_linear_61_1427" x1="135.5" y1="120.3" x2="135.5" y2="149.7" gradientUnits="userSpaceOnUse">
<stop stop-color="#AAAAAA"/>
<stop offset="1" stop-color="#6E6E6E"/>
</linearGradient>
<linearGradient id="paint4_linear_61_1427" x1="136" y1="117.4" x2="136" y2="152.6" gradientUnits="userSpaceOnUse">
<stop stop-color="#595959"/>
<stop offset="1" stop-color="#BFBFBF"/>
</linearGradient>
<linearGradient id="paint5_linear_61_1427" x1="136" y1="123.8" x2="136" y2="146.2" gradientUnits="userSpaceOnUse">
<stop stop-color="#AAAAAA"/>
<stop offset="1" stop-color="#6E6E6E"/>
</linearGradient>
<linearGradient id="paint6_linear_61_1427" x1="135.732" y1="109.08" x2="135.732" y2="155.28" gradientUnits="userSpaceOnUse">
<stop stop-color="#595959"/>
<stop offset="1" stop-color="#BFBFBF"/>
</linearGradient>
<linearGradient id="paint7_linear_61_1427" x1="135.732" y1="117.48" x2="135.732" y2="146.88" gradientUnits="userSpaceOnUse">
<stop stop-color="#AAAAAA"/>
<stop offset="1" stop-color="#6E6E6E"/>
</linearGradient>
<linearGradient id="paint8_linear_61_1427" x1="136" y1="121.8" x2="136" y2="148.2" gradientUnits="userSpaceOnUse">
<stop stop-color="#595959"/>
<stop offset="1" stop-color="#BFBFBF"/>
</linearGradient>
<linearGradient id="paint9_linear_61_1427" x1="136" y1="126.6" x2="136" y2="143.4" gradientUnits="userSpaceOnUse">
<stop stop-color="#AAAAAA"/>
<stop offset="1" stop-color="#6E6E6E"/>
</linearGradient>
<linearGradient id="paint10_linear_61_1427" x1="135.54" y1="112.3" x2="135.54" y2="158.5" gradientUnits="userSpaceOnUse">
<stop stop-color="#595959"/>
<stop offset="1" stop-color="#BFBFBF"/>
</linearGradient>
<linearGradient id="paint11_linear_61_1427" x1="135.54" y1="120.7" x2="135.54" y2="150.1" gradientUnits="userSpaceOnUse">
<stop stop-color="#AAAAAA"/>
<stop offset="1" stop-color="#6E6E6E"/>
</linearGradient>
</defs>
</svg>
