<svg width="270" height="270" viewBox="0 0 270 270" fill="none" xmlns="http://www.w3.org/2000/svg">
<rect width="270" height="270" fill="#FFB703"/>
<path d="M30 135C30 77.0101 77.5101 30 135.5 30C193.49 30 241 77.0101 241 135C241 192.99 193.49 240 135.5 240C77.5101 240 30 192.99 30 135Z" fill="#2E2525"/>
<g filter="url(#filter0_d_49_2)">
<g clip-path="url(#clip0_49_2)">
<path d="M43 135.4C43 84.3689 84.8089 43 135.84 43C186.871 43 228.68 84.3689 228.68 135.4C228.68 186.431 186.871 227.8 135.84 227.8C84.8089 227.8 43 186.431 43 135.4Z" fill="#3D3535" fill-opacity="0.98"/>
<g filter="url(#filter1_i_49_2)">
<path d="M123.435 75V72.7841L128.612 67.9901C129.053 67.5639 129.422 67.1804 129.72 66.8395C130.023 66.4986 130.253 66.1648 130.409 65.8381C130.566 65.5066 130.644 65.1491 130.644 64.7656C130.644 64.3395 130.547 63.9725 130.352 63.6648C130.158 63.3523 129.893 63.1132 129.557 62.9474C129.221 62.777 128.84 62.6918 128.414 62.6918C127.968 62.6918 127.58 62.7817 127.249 62.9616C126.917 63.1416 126.662 63.3996 126.482 63.7358C126.302 64.072 126.212 64.4721 126.212 64.9361H123.293C123.293 63.9844 123.508 63.1581 123.939 62.4574C124.37 61.7566 124.974 61.2145 125.75 60.831C126.527 60.4474 127.422 60.2557 128.435 60.2557C129.477 60.2557 130.383 60.4403 131.155 60.8097C131.932 61.1742 132.535 61.6809 132.966 62.3295C133.397 62.9782 133.612 63.7216 133.612 64.5597C133.612 65.1089 133.503 65.651 133.286 66.1861C133.073 66.7211 132.691 67.3153 132.142 67.9688C131.593 68.6174 130.819 69.3963 129.82 70.3054L127.696 72.3864V72.4858H133.804V75H123.435ZM141.345 75.1989C140.341 75.1989 139.446 75.0142 138.66 74.6449C137.879 74.2756 137.259 73.7666 136.8 73.1179C136.34 72.4692 136.101 71.7259 136.082 70.8878H139.065C139.098 71.4512 139.335 71.9081 139.775 72.2585C140.216 72.6089 140.739 72.7841 141.345 72.7841C141.828 72.7841 142.254 72.6776 142.623 72.4645C142.997 72.2467 143.289 71.946 143.497 71.5625C143.71 71.1742 143.817 70.7292 143.817 70.2273C143.817 69.7159 143.708 69.2661 143.49 68.8778C143.277 68.4896 142.981 68.1866 142.602 67.9688C142.223 67.7509 141.79 67.6397 141.302 67.6349C140.876 67.6349 140.462 67.7225 140.059 67.8977C139.662 68.0729 139.352 68.312 139.129 68.6151L136.395 68.125L137.084 60.4545H145.976V62.9688H139.619L139.243 66.6122H139.328C139.584 66.2524 139.97 65.9541 140.486 65.7173C141.002 65.4806 141.579 65.3622 142.219 65.3622C143.095 65.3622 143.876 65.5682 144.562 65.9801C145.249 66.392 145.791 66.9579 146.189 67.6776C146.586 68.3925 146.783 69.2164 146.778 70.1491C146.783 71.1293 146.556 72.0005 146.096 72.7628C145.642 73.5204 145.005 74.117 144.186 74.5526C143.372 74.9834 142.425 75.1989 141.345 75.1989Z" fill="#BBFFB6"/>
</g>
<g filter="url(#filter2_i_49_2)">
<path d="M123.777 178.455V193H120.701V181.374H120.616L117.285 183.462V180.734L120.886 178.455H123.777ZM133.562 178.455V193H130.487V181.374H130.401L127.07 183.462V180.734L130.671 178.455H133.562ZM138.034 193.185C137.566 193.185 137.163 193.019 136.827 192.688C136.496 192.351 136.33 191.949 136.33 191.48C136.33 191.016 136.496 190.618 136.827 190.287C137.163 189.955 137.566 189.79 138.034 189.79C138.489 189.79 138.887 189.955 139.228 190.287C139.569 190.618 139.739 191.016 139.739 191.48C139.739 191.793 139.658 192.079 139.498 192.339C139.341 192.595 139.135 192.801 138.88 192.957C138.624 193.109 138.342 193.185 138.034 193.185ZM147.102 193.199C146.042 193.199 145.097 193.017 144.268 192.652C143.445 192.283 142.794 191.776 142.315 191.132C141.842 190.483 141.598 189.735 141.584 188.888H144.68C144.699 189.243 144.815 189.555 145.028 189.825C145.246 190.09 145.535 190.296 145.895 190.443C146.255 190.59 146.66 190.663 147.109 190.663C147.578 190.663 147.992 190.58 148.352 190.415C148.712 190.249 148.994 190.019 149.197 189.726C149.401 189.432 149.503 189.094 149.503 188.71C149.503 188.322 149.394 187.979 149.176 187.68C148.963 187.377 148.655 187.141 148.253 186.97C147.855 186.8 147.382 186.714 146.832 186.714H145.476V184.456H146.832C147.296 184.456 147.706 184.375 148.061 184.214C148.421 184.054 148.7 183.831 148.899 183.547C149.098 183.258 149.197 182.922 149.197 182.538C149.197 182.174 149.11 181.854 148.935 181.58C148.764 181.3 148.523 181.082 148.21 180.926C147.902 180.77 147.543 180.692 147.131 180.692C146.714 180.692 146.333 180.768 145.987 180.919C145.642 181.066 145.365 181.277 145.156 181.551C144.948 181.826 144.837 182.148 144.822 182.517H141.875C141.889 181.679 142.128 180.94 142.592 180.301C143.056 179.662 143.681 179.162 144.467 178.803C145.258 178.438 146.151 178.256 147.145 178.256C148.149 178.256 149.027 178.438 149.78 178.803C150.533 179.167 151.117 179.66 151.534 180.28C151.955 180.895 152.164 181.587 152.159 182.354C152.164 183.168 151.911 183.848 151.399 184.392C150.893 184.937 150.232 185.282 149.418 185.429V185.543C150.488 185.68 151.302 186.052 151.861 186.658C152.424 187.259 152.704 188.012 152.699 188.916C152.704 189.745 152.464 190.481 151.982 191.125C151.503 191.769 150.843 192.276 150 192.645C149.157 193.014 148.191 193.199 147.102 193.199Z" fill="#BBFFB6"/>
</g>
<g filter="url(#filter3_i_49_2)">
<path d="M122.32 94V83.0909H124.626V92.0984H129.303V94H122.32ZM130.83 94V83.0909H135.198C136.001 83.0909 136.67 83.2099 137.207 83.4478C137.743 83.6857 138.146 84.016 138.416 84.4386C138.686 84.8576 138.821 85.3406 138.821 85.8874C138.821 86.3136 138.735 86.6882 138.565 87.0114C138.394 87.331 138.16 87.5937 137.862 87.7997C137.567 88.0021 137.23 88.146 136.85 88.2312V88.3377C137.265 88.3555 137.654 88.4727 138.016 88.6893C138.382 88.9059 138.678 89.2095 138.906 89.6001C139.133 89.9872 139.247 90.4489 139.247 90.9851C139.247 91.5639 139.103 92.0806 138.815 92.5352C138.531 92.9862 138.11 93.343 137.553 93.6058C136.995 93.8686 136.308 94 135.491 94H130.83ZM133.137 92.1143H135.017C135.66 92.1143 136.129 91.9918 136.424 91.7468C136.718 91.4982 136.866 91.168 136.866 90.756C136.866 90.4542 136.793 90.1879 136.647 89.957C136.502 89.7262 136.294 89.5451 136.024 89.4137C135.758 89.2823 135.44 89.2166 135.071 89.2166H133.137V92.1143ZM133.137 87.6559H134.847C135.163 87.6559 135.443 87.6009 135.688 87.4908C135.937 87.3771 136.132 87.2173 136.274 87.0114C136.42 86.8054 136.493 86.5586 136.493 86.271C136.493 85.8768 136.352 85.5589 136.072 85.3175C135.795 85.076 135.401 84.9553 134.889 84.9553H133.137V87.6559ZM146.665 86.2283C146.623 85.7987 146.44 85.4648 146.117 85.2269C145.794 84.989 145.355 84.87 144.801 84.87C144.425 84.87 144.107 84.9233 143.848 85.0298C143.588 85.1328 143.39 85.2766 143.251 85.4613C143.116 85.646 143.049 85.8555 143.049 86.0898C143.042 86.2852 143.082 86.4556 143.171 86.6012C143.263 86.7468 143.39 86.8729 143.549 86.9794C143.709 87.0824 143.894 87.1729 144.103 87.2511C144.313 87.3256 144.537 87.3896 144.774 87.4428L145.755 87.6772C146.23 87.7837 146.667 87.9258 147.065 88.1033C147.463 88.2809 147.807 88.4993 148.098 88.7585C148.39 89.0178 148.615 89.3232 148.775 89.6747C148.938 90.0263 149.022 90.4293 149.025 90.8839C149.022 91.5515 148.851 92.1303 148.514 92.6204C148.18 93.1069 147.697 93.4851 147.065 93.755C146.436 94.0213 145.678 94.1545 144.79 94.1545C143.91 94.1545 143.143 94.0195 142.489 93.7496C141.839 93.4798 141.332 93.0803 140.966 92.5511C140.604 92.0185 140.414 91.3597 140.396 90.5749H142.628C142.653 90.9407 142.757 91.2461 142.942 91.4911C143.13 91.7326 143.381 91.9155 143.693 92.0398C144.009 92.1605 144.366 92.2209 144.764 92.2209C145.154 92.2209 145.494 92.1641 145.781 92.0504C146.072 91.9368 146.298 91.7788 146.458 91.5763C146.617 91.3739 146.697 91.1413 146.697 90.8786C146.697 90.6335 146.625 90.4276 146.479 90.2607C146.337 90.0937 146.127 89.9517 145.85 89.8345C145.577 89.7173 145.241 89.6108 144.844 89.5149L143.656 89.2166C142.736 88.9929 142.01 88.6431 141.477 88.1673C140.945 87.6914 140.68 87.0504 140.684 86.2443C140.68 85.5838 140.856 85.0067 141.211 84.5131C141.57 84.0195 142.061 83.6342 142.686 83.3572C143.311 83.0803 144.022 82.9418 144.817 82.9418C145.627 82.9418 146.333 83.0803 146.937 83.3572C147.544 83.6342 148.017 84.0195 148.354 84.5131C148.691 85.0067 148.865 85.5785 148.876 86.2283H146.665Z" fill="#BBFFB6"/>
</g>
<g filter="url(#filter4_i_49_2)">
<path d="M121.965 212V201.091H124.271V205.901H124.415L128.341 201.091H131.105L127.057 205.975L131.153 212H128.394L125.406 207.515L124.271 208.9V212H121.965ZM138.925 204.617C138.85 204.358 138.746 204.129 138.611 203.93C138.476 203.728 138.311 203.557 138.115 203.419C137.924 203.277 137.703 203.168 137.455 203.094C137.21 203.019 136.938 202.982 136.64 202.982C136.082 202.982 135.592 203.12 135.17 203.397C134.751 203.674 134.424 204.077 134.19 204.607C133.955 205.132 133.838 205.775 133.838 206.535C133.838 207.295 133.953 207.941 134.184 208.474C134.415 209.006 134.742 209.413 135.164 209.694C135.587 209.971 136.086 210.109 136.661 210.109C137.183 210.109 137.629 210.017 137.998 209.832C138.371 209.644 138.655 209.379 138.85 209.038C139.049 208.697 139.149 208.294 139.149 207.829L139.617 207.898H136.805V206.162H141.37V207.536C141.37 208.495 141.168 209.319 140.763 210.008C140.358 210.693 139.8 211.222 139.09 211.595C138.38 211.964 137.567 212.149 136.65 212.149C135.628 212.149 134.729 211.924 133.955 211.473C133.181 211.018 132.577 210.374 132.144 209.539C131.714 208.701 131.5 207.707 131.5 206.556C131.5 205.672 131.627 204.884 131.883 204.191C132.142 203.495 132.505 202.906 132.97 202.423C133.435 201.94 133.976 201.572 134.594 201.32C135.212 201.068 135.882 200.942 136.603 200.942C137.22 200.942 137.796 201.032 138.328 201.213C138.861 201.391 139.333 201.643 139.745 201.97C140.161 202.297 140.5 202.685 140.763 203.136C141.025 203.584 141.194 204.077 141.269 204.617H138.925ZM149.02 204.228C148.978 203.799 148.795 203.465 148.472 203.227C148.149 202.989 147.71 202.87 147.156 202.87C146.78 202.87 146.462 202.923 146.203 203.03C145.943 203.133 145.744 203.277 145.606 203.461C145.471 203.646 145.404 203.855 145.404 204.09C145.396 204.285 145.437 204.456 145.526 204.601C145.618 204.747 145.744 204.873 145.904 204.979C146.064 205.082 146.249 205.173 146.458 205.251C146.668 205.326 146.892 205.39 147.129 205.443L148.11 205.677C148.585 205.784 149.022 205.926 149.42 206.103C149.818 206.281 150.162 206.499 150.453 206.759C150.744 207.018 150.97 207.323 151.13 207.675C151.293 208.026 151.377 208.429 151.38 208.884C151.377 209.551 151.206 210.13 150.869 210.62C150.535 211.107 150.052 211.485 149.42 211.755C148.791 212.021 148.033 212.154 147.145 212.154C146.265 212.154 145.498 212.02 144.844 211.75C144.194 211.48 143.687 211.08 143.321 210.551C142.959 210.018 142.769 209.36 142.751 208.575H144.983C145.008 208.941 145.112 209.246 145.297 209.491C145.485 209.733 145.736 209.915 146.048 210.04C146.364 210.161 146.721 210.221 147.119 210.221C147.509 210.221 147.849 210.164 148.136 210.05C148.427 209.937 148.653 209.779 148.813 209.576C148.972 209.374 149.052 209.141 149.052 208.879C149.052 208.634 148.98 208.428 148.834 208.261C148.692 208.094 148.482 207.952 148.205 207.835C147.932 207.717 147.596 207.611 147.199 207.515L146.011 207.217C145.091 206.993 144.365 206.643 143.832 206.167C143.3 205.691 143.035 205.05 143.039 204.244C143.035 203.584 143.211 203.007 143.566 202.513C143.925 202.02 144.416 201.634 145.041 201.357C145.666 201.08 146.377 200.942 147.172 200.942C147.982 200.942 148.688 201.08 149.292 201.357C149.899 201.634 150.372 202.02 150.709 202.513C151.046 203.007 151.22 203.578 151.231 204.228H149.02Z" fill="#BBFFB6"/>
</g>
<g filter="url(#filter5_d_49_2)">
<path d="M58.3364 144.18C57.5164 144.18 56.8014 144.01 56.1914 143.67C55.5914 143.33 55.1264 142.85 54.7964 142.23C54.4664 141.6 54.3014 140.865 54.3014 140.025V133.05H56.3564V137.295H56.3714C56.5314 137.065 56.7264 136.865 56.9564 136.695C57.1964 136.525 57.4614 136.395 57.7514 136.305C58.0514 136.215 58.3614 136.17 58.6814 136.17C59.4314 136.17 60.0814 136.335 60.6314 136.665C61.1814 136.995 61.6064 137.45 61.9064 138.03C62.2164 138.6 62.3714 139.265 62.3714 140.025C62.3714 140.625 62.2814 141.18 62.1014 141.69C61.9214 142.19 61.6614 142.63 61.3214 143.01C60.9814 143.38 60.5614 143.67 60.0614 143.88C59.5614 144.08 58.9864 144.18 58.3364 144.18ZM58.3364 142.425C58.7464 142.425 59.0964 142.325 59.3864 142.125C59.6764 141.925 59.8964 141.655 60.0464 141.315C60.2064 140.975 60.2864 140.595 60.2864 140.175C60.2864 139.755 60.2064 139.375 60.0464 139.035C59.8964 138.695 59.6764 138.425 59.3864 138.225C59.0964 138.025 58.7464 137.925 58.3364 137.925C57.9364 137.925 57.5864 138.025 57.2864 138.225C56.9964 138.425 56.7714 138.695 56.6114 139.035C56.4614 139.375 56.3864 139.755 56.3864 140.175C56.3864 140.595 56.4614 140.975 56.6114 141.315C56.7714 141.655 56.9964 141.925 57.2864 142.125C57.5864 142.325 57.9364 142.425 58.3364 142.425ZM66.8836 144.18C66.1836 144.18 65.5736 144 65.0536 143.64C64.5336 143.28 64.1286 142.8 63.8386 142.2C63.5586 141.59 63.4186 140.92 63.4186 140.19C63.4186 139.44 63.5786 138.76 63.8986 138.15C64.2286 137.54 64.6986 137.06 65.3086 136.71C65.9186 136.35 66.6486 136.17 67.4986 136.17C68.3586 136.17 69.0836 136.35 69.6736 136.71C70.2636 137.07 70.7136 137.555 71.0236 138.165C71.3336 138.775 71.4886 139.45 71.4886 140.19V144H69.4336V142.725H69.4036C69.2536 142.995 69.0636 143.24 68.8336 143.46C68.6136 143.68 68.3436 143.855 68.0236 143.985C67.7036 144.115 67.3236 144.18 66.8836 144.18ZM67.4686 142.425C67.8686 142.425 68.2136 142.325 68.5036 142.125C68.7936 141.925 69.0136 141.655 69.1636 141.315C69.3236 140.965 69.4036 140.58 69.4036 140.16C69.4036 139.74 69.3236 139.365 69.1636 139.035C69.0136 138.695 68.7936 138.425 68.5036 138.225C68.2136 138.025 67.8686 137.925 67.4686 137.925C67.0586 137.925 66.7036 138.025 66.4036 138.225C66.1136 138.425 65.8886 138.695 65.7286 139.035C65.5786 139.365 65.5036 139.74 65.5036 140.16C65.5036 140.58 65.5786 140.965 65.7286 141.315C65.8886 141.655 66.1136 141.925 66.4036 142.125C66.7036 142.325 67.0586 142.425 67.4686 142.425ZM73.359 144V138.525C73.359 137.845 73.549 137.315 73.929 136.935C74.319 136.545 74.854 136.35 75.534 136.35H77.649V138.105H75.894C75.764 138.105 75.649 138.15 75.549 138.24C75.459 138.33 75.414 138.445 75.414 138.585V144H73.359ZM78.7807 144V133.05H80.8357V144H78.7807ZM86.4547 144.18C85.6647 144.18 84.9597 144.005 84.3397 143.655C83.7197 143.295 83.2297 142.815 82.8697 142.215C82.5097 141.605 82.3297 140.925 82.3297 140.175C82.3297 139.425 82.5097 138.75 82.8697 138.15C83.2297 137.54 83.7197 137.06 84.3397 136.71C84.9597 136.35 85.6647 136.17 86.4547 136.17C87.2447 136.17 87.9497 136.35 88.5697 136.71C89.1897 137.06 89.6797 137.54 90.0397 138.15C90.3997 138.75 90.5797 139.425 90.5797 140.175C90.5797 140.925 90.3997 141.605 90.0397 142.215C89.6797 142.815 89.1897 143.295 88.5697 143.655C87.9497 144.005 87.2447 144.18 86.4547 144.18ZM86.4547 142.425C86.8747 142.425 87.2347 142.325 87.5347 142.125C87.8447 141.925 88.0797 141.655 88.2397 141.315C88.4097 140.975 88.4947 140.595 88.4947 140.175C88.4947 139.755 88.4097 139.375 88.2397 139.035C88.0797 138.695 87.8447 138.425 87.5347 138.225C87.2347 138.025 86.8747 137.925 86.4547 137.925C86.0347 137.925 85.6697 138.025 85.3597 138.225C85.0597 138.425 84.8247 138.695 84.6547 139.035C84.4947 139.375 84.4147 139.755 84.4147 140.175C84.4147 140.595 84.4947 140.975 84.6547 141.315C84.8247 141.655 85.0597 141.925 85.3597 142.125C85.6697 142.325 86.0347 142.425 86.4547 142.425ZM93.2364 147.045V145.29H97.1664C97.3064 145.29 97.4214 145.24 97.5114 145.14C97.6014 145.05 97.6464 144.94 97.6464 144.81V142.935H97.6314C97.4014 143.195 97.1664 143.405 96.9264 143.565C96.6864 143.725 96.4264 143.845 96.1464 143.925C95.8764 143.995 95.5764 144.03 95.2464 144.03C94.5664 144.03 93.9514 143.87 93.4014 143.55C92.8614 143.22 92.4314 142.76 92.1114 142.17C91.7914 141.58 91.6314 140.895 91.6314 140.115C91.6314 139.375 91.7864 138.71 92.0964 138.12C92.4164 137.52 92.8764 137.045 93.4764 136.695C94.0764 136.345 94.8064 136.17 95.6664 136.17C96.4964 136.17 97.2114 136.34 97.8114 136.68C98.4114 137.02 98.8764 137.5 99.2064 138.12C99.5364 138.74 99.7014 139.475 99.7014 140.325V144.87C99.7014 145.54 99.5064 146.07 99.1164 146.46C98.7364 146.85 98.2064 147.045 97.5264 147.045H93.2364ZM95.6664 142.275C96.0764 142.275 96.4264 142.18 96.7164 141.99C97.0064 141.8 97.2264 141.55 97.3764 141.24C97.5364 140.92 97.6164 140.565 97.6164 140.175C97.6164 139.755 97.5364 139.375 97.3764 139.035C97.2264 138.695 97.0064 138.425 96.7164 138.225C96.4264 138.025 96.0764 137.925 95.6664 137.925C95.2664 137.925 94.9164 138.025 94.6164 138.225C94.3264 138.415 94.1014 138.675 93.9414 139.005C93.7914 139.335 93.7164 139.705 93.7164 140.115C93.7164 140.515 93.7914 140.88 93.9414 141.21C94.1014 141.53 94.3264 141.79 94.6164 141.99C94.9164 142.18 95.2664 142.275 95.6664 142.275Z" fill="white" fill-opacity="0.45" shape-rendering="crispEdges"/>
</g>
<g filter="url(#filter6_d_49_2)">
<path d="M174.336 144.18C173.516 144.18 172.801 144.01 172.191 143.67C171.591 143.33 171.126 142.85 170.796 142.23C170.466 141.6 170.301 140.865 170.301 140.025V133.05H172.356V137.295H172.371C172.531 137.065 172.726 136.865 172.956 136.695C173.196 136.525 173.461 136.395 173.751 136.305C174.051 136.215 174.361 136.17 174.681 136.17C175.431 136.17 176.081 136.335 176.631 136.665C177.181 136.995 177.606 137.45 177.906 138.03C178.216 138.6 178.371 139.265 178.371 140.025C178.371 140.625 178.281 141.18 178.101 141.69C177.921 142.19 177.661 142.63 177.321 143.01C176.981 143.38 176.561 143.67 176.061 143.88C175.561 144.08 174.986 144.18 174.336 144.18ZM174.336 142.425C174.746 142.425 175.096 142.325 175.386 142.125C175.676 141.925 175.896 141.655 176.046 141.315C176.206 140.975 176.286 140.595 176.286 140.175C176.286 139.755 176.206 139.375 176.046 139.035C175.896 138.695 175.676 138.425 175.386 138.225C175.096 138.025 174.746 137.925 174.336 137.925C173.936 137.925 173.586 138.025 173.286 138.225C172.996 138.425 172.771 138.695 172.611 139.035C172.461 139.375 172.386 139.755 172.386 140.175C172.386 140.595 172.461 140.975 172.611 141.315C172.771 141.655 172.996 141.925 173.286 142.125C173.586 142.325 173.936 142.425 174.336 142.425ZM182.884 144.18C182.184 144.18 181.574 144 181.054 143.64C180.534 143.28 180.129 142.8 179.839 142.2C179.559 141.59 179.419 140.92 179.419 140.19C179.419 139.44 179.579 138.76 179.899 138.15C180.229 137.54 180.699 137.06 181.309 136.71C181.919 136.35 182.649 136.17 183.499 136.17C184.359 136.17 185.084 136.35 185.674 136.71C186.264 137.07 186.714 137.555 187.024 138.165C187.334 138.775 187.489 139.45 187.489 140.19V144H185.434V142.725H185.404C185.254 142.995 185.064 143.24 184.834 143.46C184.614 143.68 184.344 143.855 184.024 143.985C183.704 144.115 183.324 144.18 182.884 144.18ZM183.469 142.425C183.869 142.425 184.214 142.325 184.504 142.125C184.794 141.925 185.014 141.655 185.164 141.315C185.324 140.965 185.404 140.58 185.404 140.16C185.404 139.74 185.324 139.365 185.164 139.035C185.014 138.695 184.794 138.425 184.504 138.225C184.214 138.025 183.869 137.925 183.469 137.925C183.059 137.925 182.704 138.025 182.404 138.225C182.114 138.425 181.889 138.695 181.729 139.035C181.579 139.365 181.504 139.74 181.504 140.16C181.504 140.58 181.579 140.965 181.729 141.315C181.889 141.655 182.114 141.925 182.404 142.125C182.704 142.325 183.059 142.425 183.469 142.425ZM189.359 144V138.525C189.359 137.845 189.549 137.315 189.929 136.935C190.319 136.545 190.854 136.35 191.534 136.35H193.649V138.105H191.894C191.764 138.105 191.649 138.15 191.549 138.24C191.459 138.33 191.414 138.445 191.414 138.585V144H189.359ZM194.781 144V133.05H196.836V144H194.781ZM202.455 144.18C201.665 144.18 200.96 144.005 200.34 143.655C199.72 143.295 199.23 142.815 198.87 142.215C198.51 141.605 198.33 140.925 198.33 140.175C198.33 139.425 198.51 138.75 198.87 138.15C199.23 137.54 199.72 137.06 200.34 136.71C200.96 136.35 201.665 136.17 202.455 136.17C203.245 136.17 203.95 136.35 204.57 136.71C205.19 137.06 205.68 137.54 206.04 138.15C206.4 138.75 206.58 139.425 206.58 140.175C206.58 140.925 206.4 141.605 206.04 142.215C205.68 142.815 205.19 143.295 204.57 143.655C203.95 144.005 203.245 144.18 202.455 144.18ZM202.455 142.425C202.875 142.425 203.235 142.325 203.535 142.125C203.845 141.925 204.08 141.655 204.24 141.315C204.41 140.975 204.495 140.595 204.495 140.175C204.495 139.755 204.41 139.375 204.24 139.035C204.08 138.695 203.845 138.425 203.535 138.225C203.235 138.025 202.875 137.925 202.455 137.925C202.035 137.925 201.67 138.025 201.36 138.225C201.06 138.425 200.825 138.695 200.655 139.035C200.495 139.375 200.415 139.755 200.415 140.175C200.415 140.595 200.495 140.975 200.655 141.315C200.825 141.655 201.06 141.925 201.36 142.125C201.67 142.325 202.035 142.425 202.455 142.425ZM209.236 147.045V145.29H213.166C213.306 145.29 213.421 145.24 213.511 145.14C213.601 145.05 213.646 144.94 213.646 144.81V142.935H213.631C213.401 143.195 213.166 143.405 212.926 143.565C212.686 143.725 212.426 143.845 212.146 143.925C211.876 143.995 211.576 144.03 211.246 144.03C210.566 144.03 209.951 143.87 209.401 143.55C208.861 143.22 208.431 142.76 208.111 142.17C207.791 141.58 207.631 140.895 207.631 140.115C207.631 139.375 207.786 138.71 208.096 138.12C208.416 137.52 208.876 137.045 209.476 136.695C210.076 136.345 210.806 136.17 211.666 136.17C212.496 136.17 213.211 136.34 213.811 136.68C214.411 137.02 214.876 137.5 215.206 138.12C215.536 138.74 215.701 139.475 215.701 140.325V144.87C215.701 145.54 215.506 146.07 215.116 146.46C214.736 146.85 214.206 147.045 213.526 147.045H209.236ZM211.666 142.275C212.076 142.275 212.426 142.18 212.716 141.99C213.006 141.8 213.226 141.55 213.376 141.24C213.536 140.92 213.616 140.565 213.616 140.175C213.616 139.755 213.536 139.375 213.376 139.035C213.226 138.695 213.006 138.425 212.716 138.225C212.426 138.025 212.076 137.925 211.666 137.925C211.266 137.925 210.916 138.025 210.616 138.225C210.326 138.415 210.101 138.675 209.941 139.005C209.791 139.335 209.716 139.705 209.716 140.115C209.716 140.515 209.791 140.88 209.941 141.21C210.101 141.53 210.326 141.79 210.616 141.99C210.916 142.18 211.266 142.275 211.666 142.275Z" fill="white" fill-opacity="0.45" shape-rendering="crispEdges"/>
</g>
</g>
</g>
<g filter="url(#filter7_bd_49_2)">
<rect width="184.475" height="6.31241" transform="matrix(0.767545 0.640995 -0.644579 0.764538 66.8369 73.4033)" fill="#2E2525"/>
</g>
<g filter="url(#filter8_bd_49_2)">
<rect width="184.398" height="6.31502" transform="matrix(0.708784 -0.705425 0.708784 0.705425 67.6143 197.899)" fill="#2E2525"/>
</g>
<g filter="url(#filter9_d_49_2)">
<path d="M105.96 135C105.96 118.763 119.263 105.6 135.5 105.6C151.737 105.6 165.04 118.763 165.04 135C165.04 151.237 151.737 164.4 135.5 164.4C119.263 164.4 105.96 151.237 105.96 135Z" fill="#201919"/>
</g>
<g filter="url(#filter10_bd_49_2)">
<path d="M112.29 135C112.29 122.242 122.742 111.9 135.5 111.9C148.258 111.9 158.71 122.242 158.71 135C158.71 147.758 148.258 158.1 135.5 158.1C122.742 158.1 112.29 147.758 112.29 135Z" fill="url(#paint0_linear_49_2)"/>
</g>
<path d="M120.73 135C120.73 126.881 127.382 120.3 135.5 120.3C143.619 120.3 150.27 126.881 150.27 135C150.27 143.119 143.619 149.7 135.5 149.7C127.382 149.7 120.73 143.119 120.73 135Z" fill="url(#paint1_linear_49_2)"/>
<defs>
<filter id="filter0_d_49_2" x="26.1" y="26.1" width="219.48" height="218.6" filterUnits="userSpaceOnUse" color-interpolation-filters="sRGB">
<feFlood flood-opacity="0" result="BackgroundImageFix"/>
<feColorMatrix in="SourceAlpha" type="matrix" values="0 0 0 0 0 0 0 0 0 0 0 0 0 0 0 0 0 0 127 0" result="hardAlpha"/>
<feMorphology radius="9" operator="dilate" in="SourceAlpha" result="effect1_dropShadow_49_2"/>
<feOffset/>
<feGaussianBlur stdDeviation="3.95"/>
<feColorMatrix type="matrix" values="0 0 0 0 0 0 0 0 0 0 0 0 0 0 0 0 0 0 0.25 0"/>
<feBlend mode="normal" in2="BackgroundImageFix" result="effect1_dropShadow_49_2"/>
<feBlend mode="normal" in="SourceGraphic" in2="effect1_dropShadow_49_2" result="shape"/>
</filter>
<filter id="filter1_i_49_2" x="123.293" y="60.2557" width="23.4924" height="18.9432" filterUnits="userSpaceOnUse" color-interpolation-filters="sRGB">
<feFlood flood-opacity="0" result="BackgroundImageFix"/>
<feBlend mode="normal" in="SourceGraphic" in2="BackgroundImageFix" result="shape"/>
<feColorMatrix in="SourceAlpha" type="matrix" values="0 0 0 0 0 0 0 0 0 0 0 0 0 0 0 0 0 0 127 0" result="hardAlpha"/>
<feOffset dy="4"/>
<feGaussianBlur stdDeviation="2"/>
<feComposite in2="hardAlpha" operator="arithmetic" k2="-1" k3="1"/>
<feColorMatrix type="matrix" values="0 0 0 0 0 0 0 0 0 0 0 0 0 0 0 0 0 0 0.25 0"/>
<feBlend mode="normal" in2="shape" result="effect1_innerShadow_49_2"/>
</filter>
<filter id="filter2_i_49_2" x="117.285" y="178.256" width="35.4208" height="18.9432" filterUnits="userSpaceOnUse" color-interpolation-filters="sRGB">
<feFlood flood-opacity="0" result="BackgroundImageFix"/>
<feBlend mode="normal" in="SourceGraphic" in2="BackgroundImageFix" result="shape"/>
<feColorMatrix in="SourceAlpha" type="matrix" values="0 0 0 0 0 0 0 0 0 0 0 0 0 0 0 0 0 0 127 0" result="hardAlpha"/>
<feOffset dy="4"/>
<feGaussianBlur stdDeviation="2"/>
<feComposite in2="hardAlpha" operator="arithmetic" k2="-1" k3="1"/>
<feColorMatrix type="matrix" values="0 0 0 0 0 0 0 0 0 0 0 0 0 0 0 0 0 0 0.25 0"/>
<feBlend mode="normal" in2="shape" result="effect1_innerShadow_49_2"/>
</filter>
<filter id="filter3_i_49_2" x="122.32" y="82.9418" width="26.7054" height="15.2127" filterUnits="userSpaceOnUse" color-interpolation-filters="sRGB">
<feFlood flood-opacity="0" result="BackgroundImageFix"/>
<feBlend mode="normal" in="SourceGraphic" in2="BackgroundImageFix" result="shape"/>
<feColorMatrix in="SourceAlpha" type="matrix" values="0 0 0 0 0 0 0 0 0 0 0 0 0 0 0 0 0 0 127 0" result="hardAlpha"/>
<feOffset dy="4"/>
<feGaussianBlur stdDeviation="2"/>
<feComposite in2="hardAlpha" operator="arithmetic" k2="-1" k3="1"/>
<feColorMatrix type="matrix" values="0 0 0 0 0 0 0 0 0 0 0 0 0 0 0 0 0 0 0.25 0"/>
<feBlend mode="normal" in2="shape" result="effect1_innerShadow_49_2"/>
</filter>
<filter id="filter4_i_49_2" x="121.965" y="200.942" width="29.4154" height="15.2127" filterUnits="userSpaceOnUse" color-interpolation-filters="sRGB">
<feFlood flood-opacity="0" result="BackgroundImageFix"/>
<feBlend mode="normal" in="SourceGraphic" in2="BackgroundImageFix" result="shape"/>
<feColorMatrix in="SourceAlpha" type="matrix" values="0 0 0 0 0 0 0 0 0 0 0 0 0 0 0 0 0 0 127 0" result="hardAlpha"/>
<feOffset dy="4"/>
<feGaussianBlur stdDeviation="2"/>
<feComposite in2="hardAlpha" operator="arithmetic" k2="-1" k3="1"/>
<feColorMatrix type="matrix" values="0 0 0 0 0 0 0 0 0 0 0 0 0 0 0 0 0 0 0.25 0"/>
<feBlend mode="normal" in2="shape" result="effect1_innerShadow_49_2"/>
</filter>
<filter id="filter5_d_49_2" x="50.3014" y="133.05" width="53.4" height="21.995" filterUnits="userSpaceOnUse" color-interpolation-filters="sRGB">
<feFlood flood-opacity="0" result="BackgroundImageFix"/>
<feColorMatrix in="SourceAlpha" type="matrix" values="0 0 0 0 0 0 0 0 0 0 0 0 0 0 0 0 0 0 127 0" result="hardAlpha"/>
<feOffset dy="4"/>
<feGaussianBlur stdDeviation="2"/>
<feComposite in2="hardAlpha" operator="out"/>
<feColorMatrix type="matrix" values="0 0 0 0 0 0 0 0 0 0 0 0 0 0 0 0 0 0 0.25 0"/>
<feBlend mode="normal" in2="BackgroundImageFix" result="effect1_dropShadow_49_2"/>
<feBlend mode="normal" in="SourceGraphic" in2="effect1_dropShadow_49_2" result="shape"/>
</filter>
<filter id="filter6_d_49_2" x="166.301" y="133.05" width="53.4" height="21.995" filterUnits="userSpaceOnUse" color-interpolation-filters="sRGB">
<feFlood flood-opacity="0" result="BackgroundImageFix"/>
<feColorMatrix in="SourceAlpha" type="matrix" values="0 0 0 0 0 0 0 0 0 0 0 0 0 0 0 0 0 0 127 0" result="hardAlpha"/>
<feOffset dy="4"/>
<feGaussianBlur stdDeviation="2"/>
<feComposite in2="hardAlpha" operator="out"/>
<feColorMatrix type="matrix" values="0 0 0 0 0 0 0 0 0 0 0 0 0 0 0 0 0 0 0.25 0"/>
<feBlend mode="normal" in2="BackgroundImageFix" result="effect1_dropShadow_49_2"/>
<feBlend mode="normal" in="SourceGraphic" in2="effect1_dropShadow_49_2" result="shape"/>
</filter>
<filter id="filter7_bd_49_2" x="56.7681" y="67.4033" width="157.661" height="137.073" filterUnits="userSpaceOnUse" color-interpolation-filters="sRGB">
<feFlood flood-opacity="0" result="BackgroundImageFix"/>
<feGaussianBlur in="BackgroundImageFix" stdDeviation="3"/>
<feComposite in2="SourceAlpha" operator="in" result="effect1_backgroundBlur_49_2"/>
<feColorMatrix in="SourceAlpha" type="matrix" values="0 0 0 0 0 0 0 0 0 0 0 0 0 0 0 0 0 0 127 0" result="hardAlpha"/>
<feOffset dy="4"/>
<feGaussianBlur stdDeviation="2"/>
<feComposite in2="hardAlpha" operator="out"/>
<feColorMatrix type="matrix" values="0 0 0 0 0 0 0 0 0 0 0 0 0 0 0 0 0 0 0.25 0"/>
<feBlend mode="normal" in2="effect1_backgroundBlur_49_2" result="effect2_dropShadow_49_2"/>
<feBlend mode="normal" in="SourceGraphic" in2="effect2_dropShadow_49_2" result="shape"/>
</filter>
<filter id="filter8_bd_49_2" x="61.6143" y="61.8199" width="147.175" height="148.534" filterUnits="userSpaceOnUse" color-interpolation-filters="sRGB">
<feFlood flood-opacity="0" result="BackgroundImageFix"/>
<feGaussianBlur in="BackgroundImageFix" stdDeviation="3"/>
<feComposite in2="SourceAlpha" operator="in" result="effect1_backgroundBlur_49_2"/>
<feColorMatrix in="SourceAlpha" type="matrix" values="0 0 0 0 0 0 0 0 0 0 0 0 0 0 0 0 0 0 127 0" result="hardAlpha"/>
<feOffset dy="4"/>
<feGaussianBlur stdDeviation="2"/>
<feComposite in2="hardAlpha" operator="out"/>
<feColorMatrix type="matrix" values="0 0 0 0 0 0 0 0 0 0 0 0 0 0 0 0 0 0 0.25 0"/>
<feBlend mode="normal" in2="effect1_backgroundBlur_49_2" result="effect2_dropShadow_49_2"/>
<feBlend mode="normal" in="SourceGraphic" in2="effect2_dropShadow_49_2" result="shape"/>
</filter>
<filter id="filter9_d_49_2" x="101.96" y="105.6" width="67.08" height="66.8" filterUnits="userSpaceOnUse" color-interpolation-filters="sRGB">
<feFlood flood-opacity="0" result="BackgroundImageFix"/>
<feColorMatrix in="SourceAlpha" type="matrix" values="0 0 0 0 0 0 0 0 0 0 0 0 0 0 0 0 0 0 127 0" result="hardAlpha"/>
<feOffset dy="4"/>
<feGaussianBlur stdDeviation="2"/>
<feComposite in2="hardAlpha" operator="out"/>
<feColorMatrix type="matrix" values="0 0 0 0 0 0 0 0 0 0 0 0 0 0 0 0 0 0 0.25 0"/>
<feBlend mode="normal" in2="BackgroundImageFix" result="effect1_dropShadow_49_2"/>
<feBlend mode="normal" in="SourceGraphic" in2="effect1_dropShadow_49_2" result="shape"/>
</filter>
<filter id="filter10_bd_49_2" x="101.29" y="100.9" width="68.42" height="68.2" filterUnits="userSpaceOnUse" color-interpolation-filters="sRGB">
<feFlood flood-opacity="0" result="BackgroundImageFix"/>
<feGaussianBlur in="BackgroundImageFix" stdDeviation="2"/>
<feComposite in2="SourceAlpha" operator="in" result="effect1_backgroundBlur_49_2"/>
<feColorMatrix in="SourceAlpha" type="matrix" values="0 0 0 0 0 0 0 0 0 0 0 0 0 0 0 0 0 0 127 0" result="hardAlpha"/>
<feMorphology radius="4" operator="dilate" in="SourceAlpha" result="effect2_dropShadow_49_2"/>
<feOffset/>
<feGaussianBlur stdDeviation="3.5"/>
<feComposite in2="hardAlpha" operator="out"/>
<feColorMatrix type="matrix" values="0 0 0 0 0 0 0 0 0 0 0 0 0 0 0 0 0 0 0.25 0"/>
<feBlend mode="normal" in2="effect1_backgroundBlur_49_2" result="effect2_dropShadow_49_2"/>
<feBlend mode="normal" in="SourceGraphic" in2="effect2_dropShadow_49_2" result="shape"/>
</filter>
<linearGradient id="paint0_linear_49_2" x1="135.5" y1="111.9" x2="135.5" y2="158.1" gradientUnits="userSpaceOnUse">
<stop stop-color="#595959"/>
<stop offset="1" stop-color="#BFBFBF"/>
</linearGradient>
<linearGradient id="paint1_linear_49_2" x1="135.5" y1="120.3" x2="135.5" y2="149.7" gradientUnits="userSpaceOnUse">
<stop stop-color="#AAAAAA"/>
<stop offset="1" stop-color="#6E6E6E"/>
</linearGradient>
<clipPath id="clip0_49_2">
<path d="M43 135.4C43 84.3689 84.8089 43 135.84 43C186.871 43 228.68 84.3689 228.68 135.4C228.68 186.431 186.871 227.8 135.84 227.8C84.8089 227.8 43 186.431 43 135.4Z" fill="white"/>
</clipPath>
</defs>
</svg>
