<svg width="220" height="219" viewBox="0 0 220 219" fill="none" xmlns="http://www.w3.org/2000/svg">
<path d="M4 109C4 51.0101 51.5101 4 109.5 4V4C167.49 4 215 51.0101 215 109V109C215 166.99 167.49 214 109.5 214V214C51.5101 214 4 166.99 4 109V109Z" fill="#2E2525"/>
<g filter="url(#filter0_d_21_302)">
<path d="M17 109.4C17 58.3689 58.8089 17 109.84 17V17C160.871 17 202.68 58.3689 202.68 109.4V109.4C202.68 160.431 160.871 201.8 109.84 201.8V201.8C58.8089 201.8 17 160.431 17 109.4V109.4Z" fill="#3D3535" fill-opacity="0.98"/>
<path d="M105.669 34.4545V49H102.594V37.3736H102.509L99.1777 39.4616V36.7344L102.779 34.4545H105.669ZM114.439 49.1989C113.435 49.1989 112.54 49.0142 111.754 48.6449C110.973 48.2756 110.353 47.7666 109.893 47.1179C109.434 46.4692 109.195 45.7259 109.176 44.8878H112.159C112.192 45.4512 112.429 45.9081 112.869 46.2585C113.309 46.6089 113.833 46.7841 114.439 46.7841C114.922 46.7841 115.348 46.6776 115.717 46.4645C116.091 46.2467 116.382 45.946 116.591 45.5625C116.804 45.1742 116.91 44.7292 116.91 44.2273C116.91 43.7159 116.801 43.2661 116.584 42.8778C116.371 42.4896 116.075 42.1866 115.696 41.9688C115.317 41.7509 114.884 41.6397 114.396 41.6349C113.97 41.6349 113.556 41.7225 113.153 41.8977C112.756 42.0729 112.445 42.312 112.223 42.6151L109.488 42.125L110.177 34.4545H119.069V36.9688H112.713L112.336 40.6122H112.422C112.677 40.2524 113.063 39.9541 113.579 39.7173C114.095 39.4806 114.673 39.3622 115.312 39.3622C116.188 39.3622 116.97 39.5682 117.656 39.9801C118.343 40.392 118.885 40.9579 119.282 41.6776C119.68 42.3925 119.877 43.2164 119.872 44.1491C119.877 45.1293 119.649 46.0005 119.19 46.7628C118.736 47.5204 118.099 48.117 117.28 48.5526C116.465 48.9834 115.518 49.1989 114.439 49.1989Z" fill="white"/>
<path d="M100.166 167.199C99.4176 167.194 98.6955 167.069 97.9995 166.822C97.3082 166.576 96.6879 166.176 96.1387 165.622C95.5894 165.068 95.1538 164.334 94.8319 163.42C94.5146 162.507 94.356 161.384 94.356 160.054C94.3607 158.832 94.5004 157.741 94.775 156.78C95.0544 155.814 95.4521 154.995 95.9682 154.322C96.4891 153.65 97.1117 153.139 97.8361 152.788C98.5605 152.433 99.3726 152.256 100.272 152.256C101.243 152.256 102.1 152.445 102.843 152.824C103.587 153.198 104.183 153.707 104.633 154.351C105.088 154.995 105.362 155.717 105.457 156.517H102.424C102.306 156.01 102.057 155.613 101.678 155.324C101.3 155.035 100.831 154.891 100.272 154.891C99.3252 154.891 98.6055 155.303 98.1131 156.126C97.6254 156.95 97.3768 158.07 97.3674 159.486H97.4668C97.6846 159.055 97.9782 158.688 98.3475 158.385C98.7215 158.077 99.1453 157.843 99.6188 157.682C100.097 157.516 100.601 157.433 101.132 157.433C101.993 157.433 102.76 157.637 103.433 158.044C104.105 158.446 104.635 159 105.024 159.706C105.412 160.411 105.606 161.219 105.606 162.128C105.606 163.113 105.376 163.989 104.917 164.756C104.463 165.523 103.826 166.124 103.007 166.56C102.192 166.991 101.245 167.204 100.166 167.199ZM100.151 164.784C100.625 164.784 101.049 164.67 101.423 164.443C101.797 164.216 102.09 163.908 102.303 163.52C102.517 163.132 102.623 162.696 102.623 162.213C102.623 161.73 102.517 161.297 102.303 160.913C102.095 160.53 101.806 160.224 101.437 159.997C101.068 159.77 100.646 159.656 100.173 159.656C99.8176 159.656 99.4886 159.723 99.1855 159.855C98.8873 159.988 98.6245 160.172 98.3972 160.409C98.1747 160.646 97.9995 160.92 97.8716 161.233C97.7438 161.541 97.6799 161.87 97.6799 162.22C97.6799 162.689 97.7864 163.117 97.9995 163.506C98.2173 163.894 98.5108 164.204 98.8801 164.436C99.2542 164.668 99.678 164.784 100.151 164.784ZM108.978 167.185C108.509 167.185 108.107 167.019 107.77 166.688C107.439 166.351 107.273 165.949 107.273 165.48C107.273 165.016 107.439 164.618 107.77 164.287C108.107 163.955 108.509 163.79 108.978 163.79C109.432 163.79 109.83 163.955 110.171 164.287C110.512 164.618 110.682 165.016 110.682 165.48C110.682 165.793 110.602 166.079 110.441 166.339C110.285 166.595 110.079 166.801 109.823 166.957C109.567 167.109 109.286 167.185 108.978 167.185ZM117.978 167.199C116.884 167.199 115.911 167.021 115.059 166.666C114.212 166.306 113.546 165.816 113.063 165.196C112.58 164.576 112.339 163.873 112.339 163.087C112.339 162.481 112.476 161.924 112.751 161.418C113.03 160.906 113.409 160.482 113.887 160.146C114.365 159.805 114.901 159.588 115.492 159.493V159.393C114.716 159.237 114.086 158.861 113.603 158.264C113.12 157.663 112.879 156.964 112.879 156.169C112.879 155.416 113.099 154.746 113.539 154.159C113.98 153.567 114.583 153.103 115.35 152.767C116.122 152.426 116.998 152.256 117.978 152.256C118.958 152.256 119.832 152.426 120.599 152.767C121.371 153.108 121.977 153.574 122.417 154.166C122.857 154.753 123.08 155.421 123.085 156.169C123.08 156.969 122.834 157.668 122.346 158.264C121.858 158.861 121.233 159.237 120.471 159.393V159.493C121.053 159.588 121.581 159.805 122.055 160.146C122.533 160.482 122.912 160.906 123.191 161.418C123.475 161.924 123.62 162.481 123.624 163.087C123.62 163.873 123.376 164.576 122.893 165.196C122.41 165.816 121.742 166.306 120.89 166.666C120.043 167.021 119.072 167.199 117.978 167.199ZM117.978 164.94C118.466 164.94 118.892 164.853 119.257 164.678C119.621 164.498 119.905 164.251 120.109 163.939C120.317 163.622 120.421 163.257 120.421 162.845C120.421 162.424 120.315 162.052 120.102 161.73C119.889 161.403 119.6 161.148 119.235 160.963C118.871 160.774 118.452 160.679 117.978 160.679C117.509 160.679 117.09 160.774 116.721 160.963C116.352 161.148 116.061 161.403 115.847 161.73C115.639 162.052 115.535 162.424 115.535 162.845C115.535 163.257 115.637 163.622 115.84 163.939C116.044 164.251 116.33 164.498 116.7 164.678C117.069 164.853 117.495 164.94 117.978 164.94ZM117.978 158.442C118.385 158.442 118.748 158.359 119.065 158.193C119.382 158.027 119.631 157.798 119.811 157.504C119.99 157.211 120.08 156.872 120.08 156.489C120.08 156.11 119.99 155.778 119.811 155.494C119.631 155.205 119.384 154.981 119.072 154.82C118.759 154.654 118.395 154.571 117.978 154.571C117.566 154.571 117.202 154.654 116.884 154.82C116.567 154.981 116.319 155.205 116.139 155.494C115.963 155.778 115.876 156.11 115.876 156.489C115.876 156.872 115.966 157.211 116.146 157.504C116.326 157.798 116.574 158.027 116.892 158.193C117.209 158.359 117.571 158.442 117.978 158.442Z" fill="white"/>
<path d="M96.3197 68V57.0909H98.6262V66.0984H103.303V68H96.3197ZM104.83 68V57.0909H109.198C110.001 57.0909 110.67 57.2099 111.207 57.4478C111.743 57.6857 112.146 58.016 112.416 58.4386C112.686 58.8576 112.821 59.3406 112.821 59.8874C112.821 60.3136 112.735 60.6882 112.565 61.0114C112.394 61.331 112.16 61.5937 111.862 61.7997C111.567 62.0021 111.23 62.146 110.85 62.2312V62.3377C111.265 62.3555 111.654 62.4727 112.016 62.6893C112.382 62.9059 112.678 63.2095 112.906 63.6001C113.133 63.9872 113.247 64.4489 113.247 64.9851C113.247 65.5639 113.103 66.0806 112.815 66.5352C112.531 66.9862 112.11 67.343 111.553 67.6058C110.995 67.8686 110.308 68 109.491 68H104.83ZM107.137 66.1143H109.017C109.66 66.1143 110.129 65.9918 110.424 65.7468C110.718 65.4982 110.866 65.168 110.866 64.756C110.866 64.4542 110.793 64.1879 110.647 63.957C110.502 63.7262 110.294 63.5451 110.024 63.4137C109.758 63.2823 109.44 63.2166 109.071 63.2166H107.137V66.1143ZM107.137 61.6559H108.847C109.163 61.6559 109.443 61.6009 109.688 61.4908C109.937 61.3771 110.132 61.2173 110.274 61.0114C110.42 60.8054 110.493 60.5586 110.493 60.271C110.493 59.8768 110.352 59.5589 110.072 59.3175C109.795 59.076 109.401 58.9553 108.889 58.9553H107.137V61.6559ZM120.665 60.2283C120.623 59.7987 120.44 59.4648 120.117 59.2269C119.794 58.989 119.355 58.87 118.801 58.87C118.425 58.87 118.107 58.9233 117.848 59.0298C117.588 59.1328 117.39 59.2766 117.251 59.4613C117.116 59.646 117.049 59.8555 117.049 60.0898C117.042 60.2852 117.082 60.4556 117.171 60.6012C117.263 60.7468 117.39 60.8729 117.549 60.9794C117.709 61.0824 117.894 61.1729 118.103 61.2511C118.313 61.3256 118.537 61.3896 118.774 61.4428L119.755 61.6772C120.23 61.7837 120.667 61.9258 121.065 62.1033C121.463 62.2809 121.807 62.4993 122.098 62.7585C122.39 63.0178 122.615 63.3232 122.775 63.6747C122.938 64.0263 123.022 64.4293 123.025 64.8839C123.022 65.5515 122.851 66.1303 122.514 66.6204C122.18 67.1069 121.697 67.4851 121.065 67.755C120.436 68.0213 119.678 68.1545 118.79 68.1545C117.91 68.1545 117.143 68.0195 116.489 67.7496C115.839 67.4798 115.332 67.0803 114.966 66.5511C114.604 66.0185 114.414 65.3597 114.396 64.5749H116.628C116.653 64.9407 116.757 65.2461 116.942 65.4911C117.13 65.7326 117.381 65.9155 117.693 66.0398C118.009 66.1605 118.366 66.2209 118.764 66.2209C119.154 66.2209 119.494 66.1641 119.781 66.0504C120.072 65.9368 120.298 65.7788 120.458 65.5763C120.617 65.3739 120.697 65.1413 120.697 64.8786C120.697 64.6335 120.625 64.4276 120.479 64.2607C120.337 64.0937 120.127 63.9517 119.85 63.8345C119.577 63.7173 119.241 63.6108 118.844 63.5149L117.656 63.2166C116.736 62.9929 116.01 62.6431 115.477 62.1673C114.945 61.6914 114.68 61.0504 114.684 60.2443C114.68 59.5838 114.856 59.0067 115.211 58.5131C115.57 58.0195 116.061 57.6342 116.686 57.3572C117.311 57.0803 118.022 56.9418 118.817 56.9418C119.627 56.9418 120.333 57.0803 120.937 57.3572C121.544 57.6342 122.017 58.0195 122.354 58.5131C122.691 59.0067 122.865 59.5785 122.876 60.2283H120.665Z" fill="white"/>
<path d="M94.9648 186V175.091H97.2712V179.901H97.415L101.341 175.091H104.105L100.057 179.975L104.153 186H101.394L98.4058 181.515L97.2712 182.9V186H94.9648ZM111.925 178.617C111.85 178.358 111.746 178.129 111.611 177.93C111.476 177.728 111.311 177.557 111.115 177.419C110.924 177.277 110.703 177.168 110.455 177.094C110.21 177.019 109.938 176.982 109.64 176.982C109.082 176.982 108.592 177.12 108.17 177.397C107.751 177.674 107.424 178.077 107.19 178.607C106.955 179.132 106.838 179.775 106.838 180.535C106.838 181.295 106.953 181.941 107.184 182.474C107.415 183.006 107.742 183.413 108.164 183.694C108.587 183.971 109.086 184.109 109.661 184.109C110.183 184.109 110.629 184.017 110.998 183.832C111.371 183.644 111.655 183.379 111.85 183.038C112.049 182.697 112.149 182.294 112.149 181.829L112.617 181.898H109.805V180.162H114.37V181.536C114.37 182.495 114.168 183.319 113.763 184.008C113.358 184.693 112.8 185.222 112.09 185.595C111.38 185.964 110.567 186.149 109.65 186.149C108.628 186.149 107.729 185.924 106.955 185.473C106.181 185.018 105.577 184.374 105.144 183.539C104.714 182.701 104.5 181.707 104.5 180.556C104.5 179.672 104.627 178.884 104.883 178.191C105.142 177.495 105.505 176.906 105.97 176.423C106.435 175.94 106.976 175.572 107.594 175.32C108.212 175.068 108.882 174.942 109.603 174.942C110.22 174.942 110.796 175.032 111.328 175.213C111.861 175.391 112.333 175.643 112.745 175.97C113.161 176.297 113.5 176.685 113.763 177.136C114.025 177.584 114.194 178.077 114.269 178.617H111.925ZM122.02 178.228C121.978 177.799 121.795 177.465 121.472 177.227C121.149 176.989 120.71 176.87 120.156 176.87C119.78 176.87 119.462 176.923 119.203 177.03C118.943 177.133 118.744 177.277 118.606 177.461C118.471 177.646 118.404 177.855 118.404 178.09C118.396 178.285 118.437 178.456 118.526 178.601C118.618 178.747 118.744 178.873 118.904 178.979C119.064 179.082 119.249 179.173 119.458 179.251C119.668 179.326 119.892 179.39 120.129 179.443L121.11 179.677C121.585 179.784 122.022 179.926 122.42 180.103C122.818 180.281 123.162 180.499 123.453 180.759C123.744 181.018 123.97 181.323 124.13 181.675C124.293 182.026 124.377 182.429 124.38 182.884C124.377 183.551 124.206 184.13 123.869 184.62C123.535 185.107 123.052 185.485 122.42 185.755C121.791 186.021 121.033 186.154 120.145 186.154C119.265 186.154 118.498 186.02 117.844 185.75C117.194 185.48 116.687 185.08 116.321 184.551C115.959 184.018 115.769 183.36 115.751 182.575H117.983C118.008 182.941 118.112 183.246 118.297 183.491C118.485 183.733 118.736 183.915 119.048 184.04C119.364 184.161 119.721 184.221 120.119 184.221C120.509 184.221 120.849 184.164 121.136 184.05C121.427 183.937 121.653 183.779 121.813 183.576C121.972 183.374 122.052 183.141 122.052 182.879C122.052 182.634 121.98 182.428 121.834 182.261C121.692 182.094 121.482 181.952 121.205 181.835C120.932 181.717 120.596 181.611 120.199 181.515L119.011 181.217C118.091 180.993 117.365 180.643 116.832 180.167C116.3 179.691 116.035 179.05 116.039 178.244C116.035 177.584 116.211 177.007 116.566 176.513C116.925 176.02 117.416 175.634 118.041 175.357C118.666 175.08 119.377 174.942 120.172 174.942C120.982 174.942 121.688 175.08 122.292 175.357C122.899 175.634 123.372 176.02 123.709 176.513C124.046 177.007 124.22 177.578 124.231 178.228H122.02Z" fill="white"/>
</g>
<g filter="url(#filter1_bd_21_302)">
<rect width="184.475" height="6.31241" transform="matrix(0.767545 0.640995 -0.644579 0.764538 40.8369 47.4033)" fill="#2E2525"/>
</g>
<g filter="url(#filter2_bd_21_302)">
<rect width="184.398" height="6.31502" transform="matrix(0.708784 -0.705425 0.708784 0.705425 41.6143 171.899)" fill="#2E2525"/>
</g>
<g filter="url(#filter3_d_21_302)">
<path d="M79.9601 109C79.9601 92.7628 93.2629 79.6 109.5 79.6V79.6C125.737 79.6 139.04 92.7628 139.04 109V109C139.04 125.237 125.737 138.4 109.5 138.4V138.4C93.2629 138.4 79.9601 125.237 79.9601 109V109Z" fill="#201919"/>
</g>
<g filter="url(#filter4_bd_21_302)">
<path d="M86.29 109C86.29 96.2422 96.7423 85.9 109.5 85.9V85.9C122.258 85.9 132.71 96.2422 132.71 109V109C132.71 121.758 122.258 132.1 109.5 132.1V132.1C96.7423 132.1 86.29 121.758 86.29 109V109Z" fill="url(#paint0_linear_21_302)"/>
</g>
<path d="M94.7301 109C94.7301 100.881 101.382 94.2999 109.5 94.2999V94.2999C117.619 94.2999 124.27 100.881 124.27 109V109C124.27 117.119 117.619 123.7 109.5 123.7V123.7C101.382 123.7 94.7301 117.119 94.7301 109V109Z" fill="url(#paint1_linear_21_302)"/>
<defs>
<filter id="filter0_d_21_302" x="0.0999999" y="0.0999999" width="219.48" height="218.6" filterUnits="userSpaceOnUse" color-interpolation-filters="sRGB">
<feFlood flood-opacity="0" result="BackgroundImageFix"/>
<feColorMatrix in="SourceAlpha" type="matrix" values="0 0 0 0 0 0 0 0 0 0 0 0 0 0 0 0 0 0 127 0" result="hardAlpha"/>
<feMorphology radius="9" operator="dilate" in="SourceAlpha" result="effect1_dropShadow_21_302"/>
<feOffset/>
<feGaussianBlur stdDeviation="3.95"/>
<feColorMatrix type="matrix" values="0 0 0 0 0 0 0 0 0 0 0 0 0 0 0 0 0 0 0.25 0"/>
<feBlend mode="normal" in2="BackgroundImageFix" result="effect1_dropShadow_21_302"/>
<feBlend mode="normal" in="SourceGraphic" in2="effect1_dropShadow_21_302" result="shape"/>
</filter>
<filter id="filter1_bd_21_302" x="30.7681" y="41.4033" width="157.661" height="137.073" filterUnits="userSpaceOnUse" color-interpolation-filters="sRGB">
<feFlood flood-opacity="0" result="BackgroundImageFix"/>
<feGaussianBlur in="BackgroundImageFix" stdDeviation="3"/>
<feComposite in2="SourceAlpha" operator="in" result="effect1_backgroundBlur_21_302"/>
<feColorMatrix in="SourceAlpha" type="matrix" values="0 0 0 0 0 0 0 0 0 0 0 0 0 0 0 0 0 0 127 0" result="hardAlpha"/>
<feOffset dy="4"/>
<feGaussianBlur stdDeviation="2"/>
<feComposite in2="hardAlpha" operator="out"/>
<feColorMatrix type="matrix" values="0 0 0 0 0 0 0 0 0 0 0 0 0 0 0 0 0 0 0.25 0"/>
<feBlend mode="normal" in2="effect1_backgroundBlur_21_302" result="effect2_dropShadow_21_302"/>
<feBlend mode="normal" in="SourceGraphic" in2="effect2_dropShadow_21_302" result="shape"/>
</filter>
<filter id="filter2_bd_21_302" x="35.6143" y="35.8199" width="147.175" height="148.534" filterUnits="userSpaceOnUse" color-interpolation-filters="sRGB">
<feFlood flood-opacity="0" result="BackgroundImageFix"/>
<feGaussianBlur in="BackgroundImageFix" stdDeviation="3"/>
<feComposite in2="SourceAlpha" operator="in" result="effect1_backgroundBlur_21_302"/>
<feColorMatrix in="SourceAlpha" type="matrix" values="0 0 0 0 0 0 0 0 0 0 0 0 0 0 0 0 0 0 127 0" result="hardAlpha"/>
<feOffset dy="4"/>
<feGaussianBlur stdDeviation="2"/>
<feComposite in2="hardAlpha" operator="out"/>
<feColorMatrix type="matrix" values="0 0 0 0 0 0 0 0 0 0 0 0 0 0 0 0 0 0 0.25 0"/>
<feBlend mode="normal" in2="effect1_backgroundBlur_21_302" result="effect2_dropShadow_21_302"/>
<feBlend mode="normal" in="SourceGraphic" in2="effect2_dropShadow_21_302" result="shape"/>
</filter>
<filter id="filter3_d_21_302" x="75.9601" y="79.6" width="67.08" height="66.8" filterUnits="userSpaceOnUse" color-interpolation-filters="sRGB">
<feFlood flood-opacity="0" result="BackgroundImageFix"/>
<feColorMatrix in="SourceAlpha" type="matrix" values="0 0 0 0 0 0 0 0 0 0 0 0 0 0 0 0 0 0 127 0" result="hardAlpha"/>
<feOffset dy="4"/>
<feGaussianBlur stdDeviation="2"/>
<feComposite in2="hardAlpha" operator="out"/>
<feColorMatrix type="matrix" values="0 0 0 0 0 0 0 0 0 0 0 0 0 0 0 0 0 0 0.25 0"/>
<feBlend mode="normal" in2="BackgroundImageFix" result="effect1_dropShadow_21_302"/>
<feBlend mode="normal" in="SourceGraphic" in2="effect1_dropShadow_21_302" result="shape"/>
</filter>
<filter id="filter4_bd_21_302" x="75.29" y="74.9" width="68.42" height="68.2" filterUnits="userSpaceOnUse" color-interpolation-filters="sRGB">
<feFlood flood-opacity="0" result="BackgroundImageFix"/>
<feGaussianBlur in="BackgroundImageFix" stdDeviation="2"/>
<feComposite in2="SourceAlpha" operator="in" result="effect1_backgroundBlur_21_302"/>
<feColorMatrix in="SourceAlpha" type="matrix" values="0 0 0 0 0 0 0 0 0 0 0 0 0 0 0 0 0 0 127 0" result="hardAlpha"/>
<feMorphology radius="4" operator="dilate" in="SourceAlpha" result="effect2_dropShadow_21_302"/>
<feOffset/>
<feGaussianBlur stdDeviation="3.5"/>
<feComposite in2="hardAlpha" operator="out"/>
<feColorMatrix type="matrix" values="0 0 0 0 0 0 0 0 0 0 0 0 0 0 0 0 0 0 0.25 0"/>
<feBlend mode="normal" in2="effect1_backgroundBlur_21_302" result="effect2_dropShadow_21_302"/>
<feBlend mode="normal" in="SourceGraphic" in2="effect2_dropShadow_21_302" result="shape"/>
</filter>
<linearGradient id="paint0_linear_21_302" x1="109.5" y1="85.9" x2="109.5" y2="132.1" gradientUnits="userSpaceOnUse">
<stop stop-color="#595959"/>
<stop offset="1" stop-color="#BFBFBF"/>
</linearGradient>
<linearGradient id="paint1_linear_21_302" x1="109.5" y1="94.2999" x2="109.5" y2="123.7" gradientUnits="userSpaceOnUse">
<stop stop-color="#AAAAAA"/>
<stop offset="1" stop-color="#6E6E6E"/>
</linearGradient>
</defs>
</svg>
