<svg width="140" height="140" viewBox="0 0 140 140" fill="none" xmlns="http://www.w3.org/2000/svg">
<path d="M10 70C10 36.8629 36.8629 10 70 10V10C103.137 10 130 36.8629 130 70V70C130 103.137 103.137 130 70 130V130C36.8629 130 10 103.137 10 70V70Z" fill="#2E2525"/>
<g filter="url(#filter0_d_21_414)">
<path d="M17.2 70C17.2 40.8394 40.8393 17.2 69.9999 17.2V17.2C99.1606 17.2 122.8 40.8394 122.8 70V70C122.8 99.1606 99.1606 122.8 69.9999 122.8V122.8C40.8393 122.8 17.2 99.1606 17.2 70V70Z" fill="#3D3535" fill-opacity="0.98"/>
</g>
<g filter="url(#filter1_bd_21_414)">
<rect width="105.12" height="3.6" transform="translate(30.9498 34.8019) rotate(40)" fill="#2E2525"/>
</g>
<g filter="url(#filter2_bd_21_414)">
<rect width="105.12" height="3.6" transform="translate(31.3921 105.942) rotate(-45)" fill="#2E2525"/>
</g>
<g filter="url(#filter3_d_21_414)">
<path d="M53.2 70C53.2 60.7216 60.7216 53.2 70 53.2V53.2C79.2783 53.2 86.7999 60.7216 86.7999 70V70C86.7999 79.2784 79.2783 86.8 70 86.8V86.8C60.7216 86.8 53.2 79.2784 53.2 70V70Z" fill="#201919"/>
</g>
<g filter="url(#filter4_bd_21_414)">
<path d="M56.8 70C56.8 62.7098 62.7099 56.8 70 56.8V56.8C77.2902 56.8 83.2 62.7098 83.2 70V70C83.2 77.2901 77.2902 83.2 70 83.2V83.2C62.7099 83.2 56.8 77.2901 56.8 70V70Z" fill="url(#paint0_linear_21_414)"/>
</g>
<path d="M61.6 70C61.6 65.3608 65.3608 61.6 70 61.6V61.6C74.6392 61.6 78.4 65.3608 78.4 70V70C78.4 74.6392 74.6392 78.4 70 78.4V78.4C65.3608 78.4 61.6 74.6392 61.6 70V70Z" fill="url(#paint1_linear_21_414)"/>
<path d="M60.3098 114V106.727H61.8475V109.934H61.9434L64.5605 106.727H66.4036L63.7047 109.984L66.4355 114H64.5961L62.6039 111.01L61.8475 111.933V114H60.3098ZM71.6167 109.078C71.5669 108.905 71.4971 108.753 71.4071 108.62C71.3172 108.485 71.2071 108.371 71.0769 108.279C70.949 108.184 70.8023 108.112 70.6365 108.062C70.4732 108.013 70.2921 107.988 70.0932 107.988C69.7215 107.988 69.3948 108.08 69.1131 108.265C68.8337 108.45 68.6159 108.718 68.4597 109.071C68.3034 109.421 68.2253 109.85 68.2253 110.357C68.2253 110.863 68.3023 111.294 68.4561 111.649C68.61 112.004 68.8278 112.275 69.1096 112.462C69.3913 112.647 69.7239 112.739 70.1074 112.739C70.4554 112.739 70.7525 112.678 70.9988 112.555C71.2473 112.429 71.4367 112.253 71.5669 112.026C71.6995 111.798 71.7658 111.53 71.7658 111.219L72.0783 111.266H70.2033V110.108H73.2466V111.024C73.2466 111.663 73.1117 112.213 72.8418 112.672C72.5719 113.129 72.2002 113.482 71.7267 113.73C71.2533 113.976 70.7111 114.099 70.1003 114.099C69.4185 114.099 68.8195 113.949 68.3034 113.648C67.7873 113.345 67.3849 112.916 67.0961 112.359C66.8096 111.801 66.6664 111.138 66.6664 110.371C66.6664 109.781 66.7516 109.256 66.9221 108.794C67.0949 108.33 67.3363 107.937 67.6465 107.615C67.9566 107.293 68.3176 107.048 68.7296 106.88C69.1415 106.712 69.5878 106.628 70.0684 106.628C70.4803 106.628 70.8638 106.688 71.2189 106.809C71.574 106.927 71.8889 107.095 72.1635 107.313C72.4405 107.531 72.6666 107.79 72.8418 108.091C73.017 108.389 73.1294 108.718 73.1792 109.078H71.6167ZM78.3469 108.819C78.3185 108.532 78.1966 108.31 77.9812 108.151C77.7657 107.993 77.4734 107.913 77.104 107.913C76.8531 107.913 76.6412 107.949 76.4684 108.02C76.2956 108.089 76.163 108.184 76.0707 108.308C75.9807 108.431 75.9357 108.57 75.9357 108.727C75.931 108.857 75.9582 108.97 76.0174 109.067C76.079 109.165 76.163 109.249 76.2695 109.32C76.3761 109.388 76.4992 109.449 76.6388 109.501C76.7785 109.55 76.9277 109.593 77.0863 109.629L77.7397 109.785C78.0569 109.856 78.3481 109.951 78.6133 110.069C78.8784 110.187 79.1081 110.333 79.3022 110.506C79.4963 110.679 79.6467 110.882 79.7532 111.116C79.8621 111.351 79.9177 111.62 79.9201 111.923C79.9177 112.368 79.8041 112.754 79.5792 113.08C79.3567 113.405 79.0347 113.657 78.6133 113.837C78.1942 114.014 77.6888 114.103 77.0969 114.103C76.5098 114.103 75.9985 114.013 75.5629 113.833C75.1296 113.653 74.7911 113.387 74.5472 113.034C74.3058 112.679 74.1791 112.24 74.1673 111.717H75.6552C75.6718 111.96 75.7416 112.164 75.8647 112.327C75.9902 112.488 76.1571 112.61 76.3654 112.693C76.5761 112.774 76.814 112.814 77.0792 112.814C77.3396 112.814 77.5657 112.776 77.7575 112.7C77.9516 112.625 78.1019 112.519 78.2084 112.384C78.315 112.249 78.3683 112.094 78.3683 111.919C78.3683 111.756 78.3197 111.618 78.2227 111.507C78.128 111.396 77.9883 111.301 77.8036 111.223C77.6213 111.145 77.3976 111.074 77.1325 111.01L76.3406 110.811C75.7274 110.662 75.2433 110.429 74.8881 110.112C74.533 109.794 74.3567 109.367 74.359 108.83C74.3567 108.389 74.4738 108.004 74.7106 107.675C74.9497 107.346 75.2776 107.089 75.6942 106.905C76.1109 106.72 76.5844 106.628 77.1147 106.628C77.6545 106.628 78.1256 106.72 78.5281 106.905C78.9329 107.089 79.2477 107.346 79.4727 107.675C79.6976 108.004 79.8136 108.386 79.8207 108.819H78.3469Z" fill="white"/>
<path d="M62.2575 36V34.892L64.8462 32.495C65.0664 32.282 65.2511 32.0902 65.4002 31.9197C65.5517 31.7493 65.6665 31.5824 65.7447 31.419C65.8228 31.2533 65.8619 31.0746 65.8619 30.8828C65.8619 30.6697 65.8133 30.4863 65.7163 30.3324C65.6192 30.1761 65.4866 30.0566 65.3185 29.9737C65.1504 29.8885 64.9599 29.8459 64.7468 29.8459C64.5243 29.8459 64.3301 29.8909 64.1644 29.9808C63.9987 30.0708 63.8709 30.1998 63.7809 30.3679C63.6909 30.536 63.6459 30.736 63.6459 30.968H62.1864C62.1864 30.4922 62.2942 30.0791 62.5096 29.7287C62.725 29.3783 63.0269 29.1072 63.4151 28.9155C63.8034 28.7237 64.2508 28.6278 64.7575 28.6278C65.2783 28.6278 65.7317 28.7202 66.1175 28.9048C66.5058 29.0871 66.8076 29.3404 67.0231 29.6648C67.2385 29.9891 67.3462 30.3608 67.3462 30.7798C67.3462 31.0545 67.2918 31.3255 67.1829 31.593C67.0763 31.8606 66.8858 32.1577 66.6111 32.4844C66.3365 32.8087 65.9495 33.1982 65.4499 33.6527L64.3881 34.6932V34.7429H67.4421V36H62.2575ZM69.4547 36.0923C69.2203 36.0923 69.0191 36.0095 68.851 35.8438C68.6853 35.6757 68.6024 35.4744 68.6024 35.2401C68.6024 35.008 68.6853 34.8092 68.851 34.6435C69.0191 34.4777 69.2203 34.3949 69.4547 34.3949C69.682 34.3949 69.8809 34.4777 70.0513 34.6435C70.2218 34.8092 70.307 35.008 70.307 35.2401C70.307 35.3963 70.2667 35.5395 70.1863 35.6697C70.1081 35.7976 70.0051 35.9006 69.8773 35.9787C69.7495 36.0545 69.6086 36.0923 69.4547 36.0923ZM74.1325 36.0994C73.6306 36.0994 73.1831 36.0071 72.7901 35.8224C72.3995 35.6378 72.0894 35.3833 71.8597 35.0589C71.6301 34.7346 71.5105 34.3629 71.5011 33.9439H72.9925C73.0091 34.2256 73.1275 34.4541 73.3477 34.6293C73.5678 34.8045 73.8294 34.892 74.1325 34.892C74.3739 34.892 74.587 34.8388 74.7717 34.7322C74.9587 34.6233 75.1043 34.473 75.2084 34.2812C75.315 34.0871 75.3683 33.8646 75.3683 33.6136C75.3683 33.358 75.3138 33.133 75.2049 32.9389C75.0984 32.7448 74.9504 32.5933 74.761 32.4844C74.5716 32.3755 74.355 32.3198 74.1111 32.3175C73.8981 32.3175 73.6909 32.3613 73.4897 32.4489C73.2908 32.5365 73.1358 32.656 73.0245 32.8075L71.6573 32.5625L72.0018 28.7273H76.4478V29.9844H73.2695L73.0813 31.8061H73.1239C73.2518 31.6262 73.4447 31.477 73.7028 31.3587C73.9608 31.2403 74.2496 31.1811 74.5692 31.1811C75.0072 31.1811 75.3978 31.2841 75.7411 31.4901C76.0844 31.696 76.3555 31.9789 76.5543 32.3388C76.7532 32.6963 76.8514 33.1082 76.8491 33.5746C76.8514 34.0646 76.7378 34.5002 76.5082 34.8814C76.2809 35.2602 75.9625 35.5585 75.5529 35.7763C75.1457 35.9917 74.6722 36.0994 74.1325 36.0994Z" fill="white"/>
<path d="M64.1002 92.9829V100.256H62.5626V94.4425H62.52L60.8545 95.4865V94.1229L62.6549 92.9829H64.1002ZM66.3366 100.348C66.1022 100.348 65.9009 100.265 65.7329 100.099C65.5671 99.9313 65.4843 99.7301 65.4843 99.4957C65.4843 99.2637 65.5671 99.0649 65.7329 98.8991C65.9009 98.7334 66.1022 98.6506 66.3366 98.6506C66.5638 98.6506 66.7627 98.7334 66.9331 98.8991C67.1036 99.0649 67.1888 99.2637 67.1888 99.4957C67.1888 99.652 67.1486 99.7952 67.0681 99.9254C66.99 100.053 66.887 100.156 66.7591 100.234C66.6313 100.31 66.4904 100.348 66.3366 100.348ZM70.6725 92.9829V100.256H69.1348V94.4425H69.0922L67.4268 95.4865V94.1229L69.2272 92.9829H70.6725ZM75.0892 100.355C74.5589 100.355 74.0866 100.264 73.6723 100.082C73.2604 99.897 72.9349 99.6437 72.6958 99.3217C72.459 98.9974 72.3371 98.6233 72.33 98.1996H73.8783C73.8877 98.3771 73.9458 98.5334 74.0523 98.6683C74.1612 98.8009 74.3056 98.9039 74.4855 98.9773C74.6654 99.0507 74.8679 99.0874 75.0928 99.0874C75.3271 99.0874 75.5343 99.0459 75.7142 98.9631C75.8941 98.8802 76.035 98.7654 76.1368 98.6186C76.2386 98.4718 76.2895 98.3026 76.2895 98.1108C76.2895 97.9167 76.2351 97.745 76.1261 97.5959C76.0196 97.4444 75.8657 97.326 75.6645 97.2408C75.4656 97.1555 75.2289 97.1129 74.9543 97.1129H74.276V95.9837H74.9543C75.1863 95.9837 75.3911 95.9434 75.5686 95.8629C75.7485 95.7824 75.8882 95.6712 75.9877 95.5291C76.0871 95.3847 76.1368 95.2166 76.1368 95.0249C76.1368 94.8426 76.093 94.6828 76.0054 94.5454C75.9202 94.4058 75.7994 94.2969 75.6432 94.2187C75.4893 94.1406 75.3094 94.1016 75.1034 94.1016C74.8951 94.1016 74.7045 94.1394 74.5317 94.2152C74.3589 94.2886 74.2204 94.3939 74.1162 94.5312C74.012 94.6686 73.9564 94.8295 73.9493 95.0142H72.4756C72.4827 94.5952 72.6022 94.2258 72.8342 93.9062C73.0663 93.5866 73.3788 93.3369 73.7717 93.157C74.1671 92.9747 74.6134 92.8835 75.1105 92.8835C75.6124 92.8835 76.0516 92.9747 76.428 93.157C76.8044 93.3392 77.0968 93.5855 77.3051 93.8956C77.5158 94.2034 77.62 94.549 77.6176 94.9325C77.62 95.3397 77.4933 95.6794 77.2377 95.9517C76.9843 96.224 76.6541 96.3968 76.2469 96.4702V96.527C76.7819 96.5956 77.1891 96.7815 77.4685 97.0845C77.7502 97.3852 77.8899 97.7616 77.8875 98.2138C77.8899 98.6281 77.7703 98.9962 77.5288 99.3182C77.2897 99.6401 76.9595 99.8935 76.5381 100.078C76.1167 100.263 75.6337 100.355 75.0892 100.355Z" fill="white"/>
<path d="M60.8521 48.7045V41.4318H62.1696V47.6001H65.3727V48.7045H60.8521ZM66.5162 48.7045V41.4318H69.3002C69.8258 41.4318 70.2626 41.5147 70.6106 41.6804C70.961 41.8437 71.2226 42.0675 71.3954 42.3516C71.5706 42.6357 71.6582 42.9576 71.6582 43.3175C71.6582 43.6134 71.6014 43.8667 71.4877 44.0774C71.3741 44.2857 71.2214 44.455 71.0296 44.5852C70.8379 44.7154 70.6236 44.8089 70.3869 44.8658V44.9368C70.6449 44.951 70.8923 45.0303 71.1291 45.1747C71.3682 45.3168 71.5635 45.518 71.715 45.7784C71.8665 46.0388 71.9423 46.3537 71.9423 46.723C71.9423 47.0994 71.8511 47.438 71.6689 47.7386C71.4866 48.0369 71.2119 48.2725 70.845 48.4453C70.478 48.6181 70.0164 48.7045 69.46 48.7045H66.5162ZM67.8336 47.6037H69.2505C69.7288 47.6037 70.0732 47.5125 70.2839 47.3303C70.497 47.1456 70.6035 46.9089 70.6035 46.62C70.6035 46.4046 70.5502 46.2105 70.4437 46.0376C70.3372 45.8625 70.1857 45.7251 69.9892 45.6257C69.7927 45.5239 69.5583 45.473 69.286 45.473H67.8336V47.6037ZM67.8336 44.5249H69.1369C69.3642 44.5249 69.5689 44.4834 69.7512 44.4006C69.9335 44.3153 70.0768 44.1958 70.1809 44.0419C70.2875 43.8857 70.3407 43.701 70.3407 43.4879C70.3407 43.2062 70.2413 42.9742 70.0424 42.7919C69.8459 42.6096 69.5536 42.5185 69.1653 42.5185H67.8336V44.5249ZM77.0408 43.4311C77.0077 43.121 76.868 42.8795 76.6218 42.7067C76.378 42.5339 76.0607 42.4474 75.6701 42.4474C75.3955 42.4474 75.1599 42.4889 74.9634 42.5717C74.7669 42.6546 74.6166 42.767 74.5124 42.9091C74.4083 43.0511 74.355 43.2133 74.3526 43.3956C74.3526 43.5471 74.387 43.6785 74.4556 43.7898C74.5266 43.901 74.6225 43.9957 74.7433 44.0739C74.864 44.1496 74.9977 44.2135 75.1445 44.2656C75.2913 44.3177 75.4393 44.3615 75.5884 44.397L76.2702 44.5675C76.5449 44.6314 76.8088 44.7178 77.0621 44.8267C77.3178 44.9356 77.5463 45.0729 77.7475 45.2386C77.9511 45.4044 78.1121 45.6044 78.2305 45.8388C78.3488 46.0732 78.408 46.3478 78.408 46.6626C78.408 47.0888 78.2991 47.464 78.0813 47.7884C77.8635 48.1103 77.5486 48.3625 77.1367 48.5447C76.7272 48.7247 76.2312 48.8146 75.6488 48.8146C75.083 48.8146 74.5917 48.727 74.1751 48.5518C73.7608 48.3767 73.4364 48.121 73.2021 47.7848C72.9701 47.4486 72.8446 47.0391 72.8256 46.5561H74.1218C74.1407 46.8094 74.2189 47.0201 74.3562 47.1882C74.4935 47.3563 74.6722 47.4818 74.8924 47.5646C75.1149 47.6475 75.3635 47.6889 75.6381 47.6889C75.9246 47.6889 76.1755 47.6463 76.391 47.5611C76.6088 47.4735 76.7792 47.3527 76.9023 47.1989C77.0254 47.0426 77.0882 46.8603 77.0906 46.652C77.0882 46.4626 77.0326 46.3063 76.9236 46.1832C76.8147 46.0578 76.662 45.9536 76.4656 45.8707C76.2714 45.7855 76.0442 45.7098 75.7837 45.6435L74.9563 45.4304C74.3574 45.2765 73.8839 45.0433 73.5359 44.7308C73.1902 44.416 73.0174 43.9981 73.0174 43.4773C73.0174 43.0488 73.1334 42.6735 73.3654 42.3516C73.5998 42.0296 73.9182 41.7798 74.3207 41.6023C74.7231 41.4223 75.1789 41.3324 75.6879 41.3324C76.204 41.3324 76.6561 41.4223 77.0444 41.6023C77.435 41.7798 77.7416 42.0272 77.9641 42.3445C78.1867 42.6593 78.3015 43.0215 78.3086 43.4311H77.0408Z" fill="white"/>
<defs>
<filter id="filter0_d_21_414" x="0.299951" y="0.299997" width="139.4" height="139.4" filterUnits="userSpaceOnUse" color-interpolation-filters="sRGB">
<feFlood flood-opacity="0" result="BackgroundImageFix"/>
<feColorMatrix in="SourceAlpha" type="matrix" values="0 0 0 0 0 0 0 0 0 0 0 0 0 0 0 0 0 0 127 0" result="hardAlpha"/>
<feMorphology radius="9" operator="dilate" in="SourceAlpha" result="effect1_dropShadow_21_414"/>
<feOffset/>
<feGaussianBlur stdDeviation="3.95"/>
<feColorMatrix type="matrix" values="0 0 0 0 0 0 0 0 0 0 0 0 0 0 0 0 0 0 0.25 0"/>
<feBlend mode="normal" in2="BackgroundImageFix" result="effect1_dropShadow_21_414"/>
<feBlend mode="normal" in="SourceGraphic" in2="effect1_dropShadow_21_414" result="shape"/>
</filter>
<filter id="filter1_bd_21_414" x="22.6357" y="28.8019" width="94.8407" height="84.3276" filterUnits="userSpaceOnUse" color-interpolation-filters="sRGB">
<feFlood flood-opacity="0" result="BackgroundImageFix"/>
<feGaussianBlur in="BackgroundImageFix" stdDeviation="3"/>
<feComposite in2="SourceAlpha" operator="in" result="effect1_backgroundBlur_21_414"/>
<feColorMatrix in="SourceAlpha" type="matrix" values="0 0 0 0 0 0 0 0 0 0 0 0 0 0 0 0 0 0 127 0" result="hardAlpha"/>
<feOffset dy="4"/>
<feGaussianBlur stdDeviation="2"/>
<feComposite in2="hardAlpha" operator="out"/>
<feColorMatrix type="matrix" values="0 0 0 0 0 0 0 0 0 0 0 0 0 0 0 0 0 0 0.25 0"/>
<feBlend mode="normal" in2="effect1_backgroundBlur_21_414" result="effect2_dropShadow_21_414"/>
<feBlend mode="normal" in="SourceGraphic" in2="effect2_dropShadow_21_414" result="shape"/>
</filter>
<filter id="filter2_bd_21_414" x="25.3921" y="25.6114" width="88.8767" height="90.8766" filterUnits="userSpaceOnUse" color-interpolation-filters="sRGB">
<feFlood flood-opacity="0" result="BackgroundImageFix"/>
<feGaussianBlur in="BackgroundImageFix" stdDeviation="3"/>
<feComposite in2="SourceAlpha" operator="in" result="effect1_backgroundBlur_21_414"/>
<feColorMatrix in="SourceAlpha" type="matrix" values="0 0 0 0 0 0 0 0 0 0 0 0 0 0 0 0 0 0 127 0" result="hardAlpha"/>
<feOffset dy="4"/>
<feGaussianBlur stdDeviation="2"/>
<feComposite in2="hardAlpha" operator="out"/>
<feColorMatrix type="matrix" values="0 0 0 0 0 0 0 0 0 0 0 0 0 0 0 0 0 0 0.25 0"/>
<feBlend mode="normal" in2="effect1_backgroundBlur_21_414" result="effect2_dropShadow_21_414"/>
<feBlend mode="normal" in="SourceGraphic" in2="effect2_dropShadow_21_414" result="shape"/>
</filter>
<filter id="filter3_d_21_414" x="49.2" y="53.2" width="41.6" height="41.6" filterUnits="userSpaceOnUse" color-interpolation-filters="sRGB">
<feFlood flood-opacity="0" result="BackgroundImageFix"/>
<feColorMatrix in="SourceAlpha" type="matrix" values="0 0 0 0 0 0 0 0 0 0 0 0 0 0 0 0 0 0 127 0" result="hardAlpha"/>
<feOffset dy="4"/>
<feGaussianBlur stdDeviation="2"/>
<feComposite in2="hardAlpha" operator="out"/>
<feColorMatrix type="matrix" values="0 0 0 0 0 0 0 0 0 0 0 0 0 0 0 0 0 0 0.25 0"/>
<feBlend mode="normal" in2="BackgroundImageFix" result="effect1_dropShadow_21_414"/>
<feBlend mode="normal" in="SourceGraphic" in2="effect1_dropShadow_21_414" result="shape"/>
</filter>
<filter id="filter4_bd_21_414" x="45.8" y="45.8" width="48.4" height="48.4" filterUnits="userSpaceOnUse" color-interpolation-filters="sRGB">
<feFlood flood-opacity="0" result="BackgroundImageFix"/>
<feGaussianBlur in="BackgroundImageFix" stdDeviation="2"/>
<feComposite in2="SourceAlpha" operator="in" result="effect1_backgroundBlur_21_414"/>
<feColorMatrix in="SourceAlpha" type="matrix" values="0 0 0 0 0 0 0 0 0 0 0 0 0 0 0 0 0 0 127 0" result="hardAlpha"/>
<feMorphology radius="4" operator="dilate" in="SourceAlpha" result="effect2_dropShadow_21_414"/>
<feOffset/>
<feGaussianBlur stdDeviation="3.5"/>
<feComposite in2="hardAlpha" operator="out"/>
<feColorMatrix type="matrix" values="0 0 0 0 0 0 0 0 0 0 0 0 0 0 0 0 0 0 0.25 0"/>
<feBlend mode="normal" in2="effect1_backgroundBlur_21_414" result="effect2_dropShadow_21_414"/>
<feBlend mode="normal" in="SourceGraphic" in2="effect2_dropShadow_21_414" result="shape"/>
</filter>
<linearGradient id="paint0_linear_21_414" x1="70" y1="56.8" x2="70" y2="83.2" gradientUnits="userSpaceOnUse">
<stop stop-color="#595959"/>
<stop offset="1" stop-color="#BFBFBF"/>
</linearGradient>
<linearGradient id="paint1_linear_21_414" x1="70" y1="61.6" x2="70" y2="78.4" gradientUnits="userSpaceOnUse">
<stop stop-color="#AAAAAA"/>
<stop offset="1" stop-color="#6E6E6E"/>
</linearGradient>
</defs>
</svg>
