<svg width="176" height="176" viewBox="0 0 176 176" fill="none" xmlns="http://www.w3.org/2000/svg">
<path d="M8 88C8 43.8172 43.8172 8 88 8V8C132.183 8 168 43.8172 168 88V88C168 132.183 132.183 168 88 168V168C43.8172 168 8 132.183 8 88V88Z" fill="#2E2525"/>
<g filter="url(#filter0_d_21_380)">
<path d="M17.6 88C17.6 49.1191 49.1191 17.6 88 17.6V17.6C126.881 17.6 158.4 49.1191 158.4 88V88C158.4 126.881 126.881 158.4 88 158.4V158.4C49.1191 158.4 17.6 126.881 17.6 88V88Z" fill="#3D3535" fill-opacity="0.98"/>
</g>
<g filter="url(#filter1_bd_21_380)">
<rect width="140.16" height="4.8" transform="translate(35.9331 41.0692) rotate(40)" fill="#2E2525"/>
</g>
<g filter="url(#filter2_bd_21_380)">
<rect width="140.16" height="4.8" transform="translate(36.5227 135.923) rotate(-45)" fill="#2E2525"/>
</g>
<g filter="url(#filter3_d_21_380)">
<path d="M65.6 88C65.6 75.6288 75.6288 65.6 88 65.6V65.6C100.371 65.6 110.4 75.6288 110.4 88V88C110.4 100.371 100.371 110.4 88 110.4V110.4C75.6288 110.4 65.6 100.371 65.6 88V88Z" fill="#201919"/>
</g>
<g filter="url(#filter4_bd_21_380)">
<path d="M70.4 88C70.4 78.2798 78.2798 70.4 88 70.4V70.4C97.7202 70.4 105.6 78.2798 105.6 88V88C105.6 97.7202 97.7202 105.6 88 105.6V105.6C78.2798 105.6 70.4 97.7202 70.4 88V88Z" fill="url(#paint0_linear_21_380)"/>
</g>
<path d="M76.8 88C76.8 81.8144 81.8145 76.8 88 76.8V76.8C94.1856 76.8 99.2 81.8144 99.2 88V88C99.2 94.1856 94.1856 99.2 88 99.2V99.2C81.8145 99.2 76.8 94.1856 76.8 88V88Z" fill="url(#paint1_linear_21_380)"/>
<path d="M79.8098 145V137.727H81.3475V140.934H81.4434L84.0605 137.727H85.9036L83.2047 140.984L85.9355 145H84.0961L82.1039 142.01L81.3475 142.933V145H79.8098ZM91.1167 140.078C91.0669 139.905 90.9971 139.753 90.9071 139.62C90.8172 139.485 90.7071 139.371 90.5769 139.279C90.449 139.184 90.3023 139.112 90.1365 139.063C89.9732 139.013 89.7921 138.988 89.5932 138.988C89.2215 138.988 88.8948 139.08 88.6131 139.265C88.3337 139.45 88.1159 139.718 87.9597 140.071C87.8034 140.421 87.7253 140.85 87.7253 141.357C87.7253 141.863 87.8023 142.294 87.9561 142.649C88.11 143.004 88.3278 143.275 88.6096 143.462C88.8913 143.647 89.2239 143.739 89.6074 143.739C89.9554 143.739 90.2525 143.678 90.4988 143.555C90.7473 143.429 90.9367 143.253 91.0669 143.026C91.1995 142.798 91.2658 142.53 91.2658 142.219L91.5783 142.266H89.7033V141.108H92.7466V142.024C92.7466 142.663 92.6117 143.213 92.3418 143.672C92.0719 144.129 91.7002 144.482 91.2267 144.73C90.7533 144.976 90.2111 145.099 89.6003 145.099C88.9185 145.099 88.3195 144.949 87.8034 144.648C87.2873 144.345 86.8849 143.916 86.5961 143.359C86.3096 142.801 86.1664 142.138 86.1664 141.371C86.1664 140.781 86.2516 140.256 86.4221 139.794C86.5949 139.33 86.8364 138.937 87.1465 138.615C87.4566 138.293 87.8176 138.048 88.2296 137.88C88.6415 137.712 89.0878 137.628 89.5684 137.628C89.9803 137.628 90.3638 137.688 90.7189 137.809C91.074 137.927 91.3889 138.095 91.6635 138.313C91.9405 138.531 92.1666 138.79 92.3418 139.091C92.517 139.389 92.6294 139.718 92.6792 140.078H91.1167ZM97.8469 139.819C97.8185 139.532 97.6966 139.31 97.4812 139.151C97.2657 138.993 96.9734 138.913 96.604 138.913C96.3531 138.913 96.1412 138.949 95.9684 139.02C95.7956 139.089 95.663 139.184 95.5707 139.308C95.4807 139.431 95.4357 139.57 95.4357 139.727C95.431 139.857 95.4582 139.97 95.5174 140.067C95.579 140.165 95.663 140.249 95.7695 140.32C95.8761 140.388 95.9992 140.449 96.1388 140.501C96.2785 140.55 96.4277 140.593 96.5863 140.629L97.2397 140.785C97.5569 140.856 97.8481 140.951 98.1133 141.069C98.3784 141.187 98.6081 141.333 98.8022 141.506C98.9963 141.679 99.1467 141.882 99.2532 142.116C99.3621 142.351 99.4177 142.62 99.4201 142.923C99.4177 143.368 99.3041 143.754 99.0792 144.08C98.8567 144.405 98.5347 144.657 98.1133 144.837C97.6942 145.014 97.1888 145.103 96.5969 145.103C96.0098 145.103 95.4985 145.013 95.0629 144.833C94.6296 144.653 94.2911 144.387 94.0472 144.034C93.8058 143.679 93.6791 143.24 93.6673 142.717H95.1552C95.1718 142.96 95.2416 143.164 95.3647 143.327C95.4902 143.488 95.6571 143.61 95.8654 143.693C96.0761 143.774 96.314 143.814 96.5792 143.814C96.8396 143.814 97.0657 143.776 97.2575 143.7C97.4516 143.625 97.6019 143.519 97.7085 143.384C97.815 143.249 97.8683 143.094 97.8683 142.919C97.8683 142.756 97.8197 142.618 97.7227 142.507C97.628 142.396 97.4883 142.301 97.3036 142.223C97.1213 142.145 96.8976 142.074 96.6325 142.01L95.8406 141.811C95.2274 141.662 94.7433 141.429 94.3881 141.112C94.033 140.794 93.8567 140.367 93.859 139.83C93.8567 139.389 93.9738 139.004 94.2106 138.675C94.4497 138.346 94.7776 138.089 95.1942 137.905C95.6109 137.72 96.0844 137.628 96.6147 137.628C97.1545 137.628 97.6256 137.72 98.0281 137.905C98.4329 138.089 98.7478 138.346 98.9727 138.675C99.1976 139.004 99.3136 139.386 99.3207 139.819H97.8469Z" fill="white"/>
<path d="M88.7546 47.1491C88.0018 47.1491 87.3306 47.0107 86.7411 46.7337C86.1552 46.4567 85.69 46.0749 85.3455 45.5884C85.0011 45.1019 84.8217 44.5444 84.8075 43.9158H87.0447C87.0696 44.3384 87.2472 44.6811 87.5774 44.9439C87.9077 45.2067 88.3001 45.3381 88.7546 45.3381C89.1168 45.3381 89.4364 45.2582 89.7134 45.0984C89.994 44.935 90.2124 44.7095 90.3686 44.4219C90.5284 44.1307 90.6083 43.7969 90.6083 43.4205C90.6083 43.0369 90.5266 42.6996 90.3633 42.4084C90.2035 42.1172 89.9815 41.8899 89.6974 41.7266C89.4134 41.5632 89.0884 41.4798 88.7227 41.4762C88.4031 41.4762 88.0923 41.5419 87.7905 41.6733C87.4922 41.8047 87.2596 41.984 87.0927 42.2113L85.0419 41.8438L85.5586 36.0909H92.2276V37.9766H87.4602L87.1779 40.7092H87.2418C87.4336 40.4393 87.723 40.2156 88.1101 40.038C88.4972 39.8604 88.9304 39.7717 89.4098 39.7717C90.0668 39.7717 90.6527 39.9261 91.1676 40.2351C91.6825 40.544 92.0891 40.9684 92.3874 41.5082C92.6857 42.0444 92.8331 42.6623 92.8296 43.3619C92.8331 44.0969 92.6626 44.7504 92.3182 45.3221C91.9773 45.8903 91.4997 46.3377 90.8853 46.6644C90.2745 46.9876 89.5643 47.1491 88.7546 47.1491Z" fill="white"/>
<path d="M77.6582 131V129.338L81.5413 125.743C81.8716 125.423 82.1486 125.135 82.3723 124.88C82.5996 124.624 82.7718 124.374 82.889 124.129C83.0062 123.88 83.0648 123.612 83.0648 123.324C83.0648 123.005 82.992 122.729 82.8464 122.499C82.7008 122.264 82.5019 122.085 82.2498 121.961C81.9976 121.833 81.7118 121.769 81.3922 121.769C81.0584 121.769 80.7672 121.836 80.5186 121.971C80.27 122.106 80.0783 122.3 79.9433 122.552C79.8084 122.804 79.7409 123.104 79.7409 123.452H77.5516C77.5516 122.738 77.7132 122.119 78.0364 121.593C78.3595 121.067 78.8123 120.661 79.3947 120.373C79.977 120.086 80.6482 119.942 81.4082 119.942C82.1894 119.942 82.8694 120.08 83.4483 120.357C84.0307 120.631 84.4834 121.011 84.8066 121.497C85.1297 121.984 85.2913 122.541 85.2913 123.17C85.2913 123.582 85.2096 123.988 85.0463 124.39C84.8865 124.791 84.6006 125.237 84.1887 125.727C83.7768 126.213 83.1962 126.797 82.4469 127.479L80.8542 129.04V129.114H85.4351V131H77.6582ZM88.4541 131.138C88.1025 131.138 87.8006 131.014 87.5485 130.766C87.2999 130.513 87.1756 130.212 87.1756 129.86C87.1756 129.512 87.2999 129.214 87.5485 128.965C87.8006 128.717 88.1025 128.592 88.4541 128.592C88.795 128.592 89.0933 128.717 89.3489 128.965C89.6046 129.214 89.7325 129.512 89.7325 129.86C89.7325 130.094 89.6721 130.309 89.5514 130.505C89.4342 130.696 89.2797 130.851 89.0879 130.968C88.8962 131.082 88.6849 131.138 88.4541 131.138ZM95.2549 131.149C94.4595 131.149 93.751 131.012 93.1296 130.739C92.5117 130.462 92.0234 130.082 91.6647 129.599C91.3096 129.113 91.1267 128.551 91.1161 127.916H93.4385C93.4527 128.182 93.5397 128.417 93.6995 128.619C93.8629 128.818 94.0795 128.972 94.3494 129.082C94.6193 129.192 94.9229 129.248 95.2603 129.248C95.6118 129.248 95.9225 129.185 96.1924 129.061C96.4623 128.937 96.6736 128.765 96.8263 128.544C96.979 128.324 97.0554 128.07 97.0554 127.783C97.0554 127.491 96.9737 127.234 96.8103 127.01C96.6505 126.783 96.4197 126.605 96.1179 126.478C95.8196 126.35 95.4644 126.286 95.0525 126.286H94.0351V124.592H95.0525C95.4005 124.592 95.7077 124.532 95.974 124.411C96.2439 124.29 96.4534 124.123 96.6026 123.91C96.7517 123.694 96.8263 123.441 96.8263 123.154C96.8263 122.88 96.7606 122.641 96.6292 122.435C96.5014 122.225 96.3203 122.062 96.0859 121.945C95.8551 121.827 95.5852 121.769 95.2762 121.769C94.9637 121.769 94.6779 121.826 94.4186 121.939C94.1594 122.049 93.9517 122.207 93.7954 122.413C93.6392 122.619 93.5557 122.861 93.5451 123.138H91.3345C91.3451 122.509 91.5245 121.955 91.8725 121.476C92.2205 120.996 92.6892 120.622 93.2787 120.352C93.8718 120.078 94.5411 119.942 95.2869 119.942C96.0397 119.942 96.6985 120.078 97.2631 120.352C97.8277 120.625 98.2663 120.995 98.5788 121.46C98.8948 121.922 99.0511 122.44 99.0475 123.015C99.0511 123.626 98.8611 124.136 98.4776 124.544C98.0976 124.952 97.6022 125.212 96.9914 125.322V125.407C97.794 125.51 98.4048 125.789 98.8238 126.243C99.2464 126.694 99.4559 127.259 99.4524 127.937C99.4559 128.559 99.2766 129.111 98.9144 129.594C98.5557 130.077 98.0603 130.457 97.4282 130.734C96.7961 131.011 96.0717 131.149 95.2549 131.149Z" fill="white"/>
<path d="M79.4732 61V53.7273H81.0108V59.7322H84.1287V61H79.4732ZM85.147 61V53.7273H88.0589C88.594 53.7273 89.0402 53.8066 89.3977 53.9652C89.7552 54.1238 90.0239 54.344 90.2038 54.6257C90.3837 54.9051 90.4737 55.227 90.4737 55.5916C90.4737 55.8757 90.4169 56.1255 90.3032 56.3409C90.1896 56.554 90.0333 56.7292 89.8345 56.8665C89.638 57.0014 89.4131 57.0973 89.1598 57.1541V57.2251C89.4368 57.237 89.696 57.3151 89.9375 57.4595C90.1813 57.6039 90.379 57.8063 90.5305 58.0668C90.682 58.3248 90.7578 58.6326 90.7578 58.9901C90.7578 59.3759 90.6619 59.7204 90.4701 60.0234C90.2807 60.3241 90.0002 60.562 89.6285 60.7372C89.2568 60.9124 88.7987 61 88.2542 61H85.147ZM86.6846 59.7429H87.9382C88.3667 59.7429 88.6792 59.6612 88.8757 59.4979C89.0722 59.3321 89.1704 59.112 89.1704 58.8374C89.1704 58.6361 89.1219 58.4586 89.0248 58.3047C88.9278 58.1508 88.7893 58.0301 88.6093 57.9425C88.4318 57.8549 88.2199 57.8111 87.9737 57.8111H86.6846V59.7429ZM86.6846 56.7706H87.8245C88.0352 56.7706 88.2223 56.7339 88.3856 56.6605C88.5513 56.5848 88.6815 56.4782 88.7762 56.3409C88.8733 56.2036 88.9218 56.0391 88.9218 55.8473C88.9218 55.5845 88.8283 55.3726 88.6413 55.2116C88.4566 55.0507 88.1939 54.9702 87.8529 54.9702H86.6846V56.7706ZM95.7036 55.8189C95.6752 55.5324 95.5533 55.3099 95.3379 55.1513C95.1224 54.9927 94.83 54.9134 94.4607 54.9134C94.2098 54.9134 93.9979 54.9489 93.8251 55.0199C93.6523 55.0885 93.5197 55.1844 93.4273 55.3075C93.3374 55.4306 93.2924 55.5703 93.2924 55.7266C93.2877 55.8568 93.3149 55.9704 93.3741 56.0675C93.4356 56.1645 93.5197 56.2486 93.6262 56.3196C93.7327 56.3883 93.8558 56.4486 93.9955 56.5007C94.1352 56.5504 94.2844 56.593 94.443 56.6286L95.0964 56.7848C95.4136 56.8558 95.7048 56.9505 95.97 57.0689C96.2351 57.1873 96.4648 57.3329 96.6589 57.5057C96.853 57.6785 97.0033 57.8821 97.1099 58.1165C97.2188 58.3509 97.2744 58.6196 97.2768 58.9226C97.2744 59.3677 97.1608 59.7536 96.9359 60.0803C96.7133 60.4046 96.3914 60.6567 95.97 60.8366C95.5509 61.0142 95.0455 61.103 94.4536 61.103C93.8665 61.103 93.3551 61.013 92.9195 60.8331C92.4863 60.6532 92.1478 60.3868 91.9039 60.0341C91.6624 59.679 91.5358 59.2398 91.5239 58.7166H93.0119C93.0284 58.9605 93.0983 59.1641 93.2214 59.3274C93.3469 59.4884 93.5138 59.6103 93.7221 59.6932C93.9328 59.7737 94.1707 59.8139 94.4359 59.8139C94.6963 59.8139 94.9224 59.776 95.1141 59.7003C95.3083 59.6245 95.4586 59.5192 95.5651 59.3842C95.6717 59.2493 95.7249 59.0942 95.7249 58.919C95.7249 58.7557 95.6764 58.6184 95.5793 58.5071C95.4846 58.3958 95.345 58.3011 95.1603 58.223C94.978 58.1449 94.7543 58.0739 94.4891 58.0099L93.6972 57.8111C93.0841 57.6619 92.5999 57.4287 92.2448 57.1115C91.8897 56.7943 91.7133 56.367 91.7157 55.8295C91.7133 55.3892 91.8305 55.0045 92.0673 54.6754C92.3064 54.3464 92.6343 54.0895 93.0509 53.9048C93.4676 53.7202 93.9411 53.6278 94.4714 53.6278C95.0112 53.6278 95.4823 53.7202 95.8847 53.9048C96.2896 54.0895 96.6044 54.3464 96.8293 54.6754C97.0542 55.0045 97.1702 55.3857 97.1773 55.8189H95.7036Z" fill="white"/>
<defs>
<filter id="filter0_d_21_380" x="0.699975" y="0.699998" width="174.6" height="174.6" filterUnits="userSpaceOnUse" color-interpolation-filters="sRGB">
<feFlood flood-opacity="0" result="BackgroundImageFix"/>
<feColorMatrix in="SourceAlpha" type="matrix" values="0 0 0 0 0 0 0 0 0 0 0 0 0 0 0 0 0 0 127 0" result="hardAlpha"/>
<feMorphology radius="9" operator="dilate" in="SourceAlpha" result="effect1_dropShadow_21_380"/>
<feOffset/>
<feGaussianBlur stdDeviation="3.95"/>
<feColorMatrix type="matrix" values="0 0 0 0 0 0 0 0 0 0 0 0 0 0 0 0 0 0 0.25 0"/>
<feBlend mode="normal" in2="BackgroundImageFix" result="effect1_dropShadow_21_380"/>
<feBlend mode="normal" in="SourceGraphic" in2="effect1_dropShadow_21_380" result="shape"/>
</filter>
<filter id="filter1_bd_21_380" x="26.8478" y="35.0692" width="122.454" height="107.77" filterUnits="userSpaceOnUse" color-interpolation-filters="sRGB">
<feFlood flood-opacity="0" result="BackgroundImageFix"/>
<feGaussianBlur in="BackgroundImageFix" stdDeviation="3"/>
<feComposite in2="SourceAlpha" operator="in" result="effect1_backgroundBlur_21_380"/>
<feColorMatrix in="SourceAlpha" type="matrix" values="0 0 0 0 0 0 0 0 0 0 0 0 0 0 0 0 0 0 127 0" result="hardAlpha"/>
<feOffset dy="4"/>
<feGaussianBlur stdDeviation="2"/>
<feComposite in2="hardAlpha" operator="out"/>
<feColorMatrix type="matrix" values="0 0 0 0 0 0 0 0 0 0 0 0 0 0 0 0 0 0 0.25 0"/>
<feBlend mode="normal" in2="effect1_backgroundBlur_21_380" result="effect2_dropShadow_21_380"/>
<feBlend mode="normal" in="SourceGraphic" in2="effect2_dropShadow_21_380" result="shape"/>
</filter>
<filter id="filter2_bd_21_380" x="30.5227" y="30.8152" width="114.502" height="116.502" filterUnits="userSpaceOnUse" color-interpolation-filters="sRGB">
<feFlood flood-opacity="0" result="BackgroundImageFix"/>
<feGaussianBlur in="BackgroundImageFix" stdDeviation="3"/>
<feComposite in2="SourceAlpha" operator="in" result="effect1_backgroundBlur_21_380"/>
<feColorMatrix in="SourceAlpha" type="matrix" values="0 0 0 0 0 0 0 0 0 0 0 0 0 0 0 0 0 0 127 0" result="hardAlpha"/>
<feOffset dy="4"/>
<feGaussianBlur stdDeviation="2"/>
<feComposite in2="hardAlpha" operator="out"/>
<feColorMatrix type="matrix" values="0 0 0 0 0 0 0 0 0 0 0 0 0 0 0 0 0 0 0.25 0"/>
<feBlend mode="normal" in2="effect1_backgroundBlur_21_380" result="effect2_dropShadow_21_380"/>
<feBlend mode="normal" in="SourceGraphic" in2="effect2_dropShadow_21_380" result="shape"/>
</filter>
<filter id="filter3_d_21_380" x="61.6" y="65.6" width="52.8" height="52.8" filterUnits="userSpaceOnUse" color-interpolation-filters="sRGB">
<feFlood flood-opacity="0" result="BackgroundImageFix"/>
<feColorMatrix in="SourceAlpha" type="matrix" values="0 0 0 0 0 0 0 0 0 0 0 0 0 0 0 0 0 0 127 0" result="hardAlpha"/>
<feOffset dy="4"/>
<feGaussianBlur stdDeviation="2"/>
<feComposite in2="hardAlpha" operator="out"/>
<feColorMatrix type="matrix" values="0 0 0 0 0 0 0 0 0 0 0 0 0 0 0 0 0 0 0.25 0"/>
<feBlend mode="normal" in2="BackgroundImageFix" result="effect1_dropShadow_21_380"/>
<feBlend mode="normal" in="SourceGraphic" in2="effect1_dropShadow_21_380" result="shape"/>
</filter>
<filter id="filter4_bd_21_380" x="59.4" y="59.4" width="57.2" height="57.2" filterUnits="userSpaceOnUse" color-interpolation-filters="sRGB">
<feFlood flood-opacity="0" result="BackgroundImageFix"/>
<feGaussianBlur in="BackgroundImageFix" stdDeviation="2"/>
<feComposite in2="SourceAlpha" operator="in" result="effect1_backgroundBlur_21_380"/>
<feColorMatrix in="SourceAlpha" type="matrix" values="0 0 0 0 0 0 0 0 0 0 0 0 0 0 0 0 0 0 127 0" result="hardAlpha"/>
<feMorphology radius="4" operator="dilate" in="SourceAlpha" result="effect2_dropShadow_21_380"/>
<feOffset/>
<feGaussianBlur stdDeviation="3.5"/>
<feComposite in2="hardAlpha" operator="out"/>
<feColorMatrix type="matrix" values="0 0 0 0 0 0 0 0 0 0 0 0 0 0 0 0 0 0 0.25 0"/>
<feBlend mode="normal" in2="effect1_backgroundBlur_21_380" result="effect2_dropShadow_21_380"/>
<feBlend mode="normal" in="SourceGraphic" in2="effect2_dropShadow_21_380" result="shape"/>
</filter>
<linearGradient id="paint0_linear_21_380" x1="88" y1="70.4" x2="88" y2="105.6" gradientUnits="userSpaceOnUse">
<stop stop-color="#595959"/>
<stop offset="1" stop-color="#BFBFBF"/>
</linearGradient>
<linearGradient id="paint1_linear_21_380" x1="88" y1="76.8" x2="88" y2="99.2" gradientUnits="userSpaceOnUse">
<stop stop-color="#AAAAAA"/>
<stop offset="1" stop-color="#6E6E6E"/>
</linearGradient>
</defs>
</svg>
