<svg width="220" height="219" viewBox="0 0 220 219" fill="none" xmlns="http://www.w3.org/2000/svg">
<path d="M4 109C4 51.0101 51.5101 4 109.5 4V4C167.49 4 215 51.0101 215 109V109C215 166.99 167.49 214 109.5 214V214C51.5101 214 4 166.99 4 109V109Z" fill="#2E2525"/>
<g filter="url(#filter0_d_36_487)">
<g clip-path="url(#clip0_36_487)">
<path d="M17 109.4C17 58.3689 58.8089 17 109.84 17V17C160.871 17 202.68 58.3689 202.68 109.4V109.4C202.68 160.431 160.871 201.8 109.84 201.8V201.8C58.8089 201.8 17 160.431 17 109.4V109.4Z" fill="#3D3535" fill-opacity="0.98"/>
<path d="M97.4348 49V46.7841L102.612 41.9901C103.053 41.5639 103.422 41.1804 103.72 40.8395C104.023 40.4986 104.253 40.1648 104.409 39.8381C104.566 39.5066 104.644 39.1491 104.644 38.7656C104.644 38.3395 104.547 37.9725 104.352 37.6648C104.158 37.3523 103.893 37.1132 103.557 36.9474C103.221 36.777 102.84 36.6918 102.414 36.6918C101.968 36.6918 101.58 36.7817 101.249 36.9616C100.917 37.1416 100.662 37.3996 100.482 37.7358C100.302 38.072 100.212 38.4721 100.212 38.9361H97.2928C97.2928 37.9844 97.5082 37.1581 97.9391 36.4574C98.37 35.7566 98.9737 35.2145 99.7502 34.831C100.527 34.4474 101.422 34.2557 102.435 34.2557C103.477 34.2557 104.383 34.4403 105.155 34.8097C105.932 35.1742 106.535 35.6809 106.966 36.3295C107.397 36.9782 107.612 37.7216 107.612 38.5597C107.612 39.1089 107.503 39.651 107.286 40.1861C107.073 40.7211 106.691 41.3153 106.142 41.9688C105.593 42.6174 104.819 43.3963 103.82 44.3054L101.696 46.3864V46.4858H107.804V49H97.4348ZM115.345 49.1989C114.341 49.1989 113.446 49.0142 112.66 48.6449C111.879 48.2756 111.259 47.7666 110.8 47.1179C110.34 46.4692 110.101 45.7259 110.082 44.8878H113.065C113.098 45.4512 113.335 45.9081 113.775 46.2585C114.216 46.6089 114.739 46.7841 115.345 46.7841C115.828 46.7841 116.254 46.6776 116.623 46.4645C116.997 46.2467 117.289 45.946 117.497 45.5625C117.71 45.1742 117.817 44.7292 117.817 44.2273C117.817 43.7159 117.708 43.2661 117.49 42.8778C117.277 42.4896 116.981 42.1866 116.602 41.9688C116.223 41.7509 115.79 41.6397 115.302 41.6349C114.876 41.6349 114.462 41.7225 114.059 41.8977C113.662 42.0729 113.352 42.312 113.129 42.6151L110.395 42.125L111.084 34.4545H119.976V36.9688H113.619L113.243 40.6122H113.328C113.584 40.2524 113.97 39.9541 114.486 39.7173C115.002 39.4806 115.579 39.3622 116.219 39.3622C117.095 39.3622 117.876 39.5682 118.562 39.9801C119.249 40.392 119.791 40.9579 120.189 41.6776C120.586 42.3925 120.783 43.2164 120.778 44.1491C120.783 45.1293 120.556 46.0005 120.096 46.7628C119.642 47.5204 119.005 48.117 118.186 48.5526C117.372 48.9834 116.425 49.1989 115.345 49.1989Z" fill="white"/>
<path d="M97.7766 152.455V167H94.7013V155.374H94.6161L91.2852 157.462V154.734L94.886 152.455H97.7766ZM107.562 152.455V167H104.487V155.374H104.401L101.07 157.462V154.734L104.671 152.455H107.562ZM112.034 167.185C111.566 167.185 111.163 167.019 110.827 166.688C110.496 166.351 110.33 165.949 110.33 165.48C110.33 165.016 110.496 164.618 110.827 164.287C111.163 163.955 111.566 163.79 112.034 163.79C112.489 163.79 112.887 163.955 113.228 164.287C113.569 164.618 113.739 165.016 113.739 165.48C113.739 165.793 113.658 166.079 113.498 166.339C113.341 166.595 113.135 166.801 112.88 166.957C112.624 167.109 112.342 167.185 112.034 167.185ZM121.102 167.199C120.042 167.199 119.097 167.017 118.268 166.652C117.445 166.283 116.794 165.776 116.315 165.132C115.842 164.483 115.598 163.735 115.584 162.888H118.68C118.699 163.243 118.815 163.555 119.028 163.825C119.246 164.09 119.535 164.296 119.895 164.443C120.255 164.59 120.66 164.663 121.109 164.663C121.578 164.663 121.992 164.58 122.352 164.415C122.712 164.249 122.994 164.019 123.197 163.726C123.401 163.432 123.503 163.094 123.503 162.71C123.503 162.322 123.394 161.979 123.176 161.68C122.963 161.377 122.655 161.141 122.253 160.97C121.855 160.8 121.382 160.714 120.832 160.714H119.476V158.456H120.832C121.296 158.456 121.706 158.375 122.061 158.214C122.421 158.054 122.7 157.831 122.899 157.547C123.098 157.258 123.197 156.922 123.197 156.538C123.197 156.174 123.11 155.854 122.935 155.58C122.764 155.3 122.523 155.082 122.21 154.926C121.902 154.77 121.543 154.692 121.131 154.692C120.714 154.692 120.333 154.768 119.987 154.919C119.642 155.066 119.365 155.277 119.156 155.551C118.948 155.826 118.837 156.148 118.822 156.517H115.875C115.889 155.679 116.128 154.94 116.592 154.301C117.056 153.662 117.681 153.162 118.467 152.803C119.258 152.438 120.151 152.256 121.145 152.256C122.149 152.256 123.027 152.438 123.78 152.803C124.533 153.167 125.117 153.66 125.534 154.28C125.955 154.895 126.164 155.587 126.159 156.354C126.164 157.168 125.911 157.848 125.399 158.392C124.893 158.937 124.232 159.282 123.418 159.429V159.543C124.488 159.68 125.302 160.052 125.861 160.658C126.424 161.259 126.704 162.012 126.699 162.916C126.704 163.745 126.464 164.481 125.982 165.125C125.503 165.769 124.843 166.276 124 166.645C123.157 167.014 122.191 167.199 121.102 167.199Z" fill="white"/>
<path d="M96.3197 68V57.0909H98.6262V66.0984H103.303V68H96.3197ZM104.83 68V57.0909H109.198C110.001 57.0909 110.67 57.2099 111.207 57.4478C111.743 57.6857 112.146 58.016 112.416 58.4386C112.686 58.8576 112.821 59.3406 112.821 59.8874C112.821 60.3136 112.735 60.6882 112.565 61.0114C112.394 61.331 112.16 61.5937 111.862 61.7997C111.567 62.0021 111.23 62.146 110.85 62.2312V62.3377C111.265 62.3555 111.654 62.4727 112.016 62.6893C112.382 62.9059 112.678 63.2095 112.906 63.6001C113.133 63.9872 113.247 64.4489 113.247 64.9851C113.247 65.5639 113.103 66.0806 112.815 66.5352C112.531 66.9862 112.11 67.343 111.553 67.6058C110.995 67.8686 110.308 68 109.491 68H104.83ZM107.137 66.1143H109.017C109.66 66.1143 110.129 65.9918 110.424 65.7468C110.718 65.4982 110.866 65.168 110.866 64.756C110.866 64.4542 110.793 64.1879 110.647 63.957C110.502 63.7262 110.294 63.5451 110.024 63.4137C109.758 63.2823 109.44 63.2166 109.071 63.2166H107.137V66.1143ZM107.137 61.6559H108.847C109.163 61.6559 109.443 61.6009 109.688 61.4908C109.937 61.3771 110.132 61.2173 110.274 61.0114C110.42 60.8054 110.493 60.5586 110.493 60.271C110.493 59.8768 110.352 59.5589 110.072 59.3175C109.795 59.076 109.401 58.9553 108.889 58.9553H107.137V61.6559ZM120.665 60.2283C120.623 59.7987 120.44 59.4648 120.117 59.2269C119.794 58.989 119.355 58.87 118.801 58.87C118.425 58.87 118.107 58.9233 117.848 59.0298C117.588 59.1328 117.39 59.2766 117.251 59.4613C117.116 59.646 117.049 59.8555 117.049 60.0898C117.042 60.2852 117.082 60.4556 117.171 60.6012C117.263 60.7468 117.39 60.8729 117.549 60.9794C117.709 61.0824 117.894 61.1729 118.103 61.2511C118.313 61.3256 118.537 61.3896 118.774 61.4428L119.755 61.6772C120.23 61.7837 120.667 61.9258 121.065 62.1033C121.463 62.2809 121.807 62.4993 122.098 62.7585C122.39 63.0178 122.615 63.3232 122.775 63.6747C122.938 64.0263 123.022 64.4293 123.025 64.8839C123.022 65.5515 122.851 66.1303 122.514 66.6204C122.18 67.1069 121.697 67.4851 121.065 67.755C120.436 68.0213 119.678 68.1545 118.79 68.1545C117.91 68.1545 117.143 68.0195 116.489 67.7496C115.839 67.4798 115.332 67.0803 114.966 66.5511C114.604 66.0185 114.414 65.3597 114.396 64.5749H116.628C116.653 64.9407 116.757 65.2461 116.942 65.4911C117.13 65.7326 117.381 65.9155 117.693 66.0398C118.009 66.1605 118.366 66.2209 118.764 66.2209C119.154 66.2209 119.494 66.1641 119.781 66.0504C120.072 65.9368 120.298 65.7788 120.458 65.5763C120.617 65.3739 120.697 65.1413 120.697 64.8786C120.697 64.6335 120.625 64.4276 120.479 64.2607C120.337 64.0937 120.127 63.9517 119.85 63.8345C119.577 63.7173 119.241 63.6108 118.844 63.5149L117.656 63.2166C116.736 62.9929 116.01 62.6431 115.477 62.1673C114.945 61.6914 114.68 61.0504 114.684 60.2443C114.68 59.5838 114.856 59.0067 115.211 58.5131C115.57 58.0195 116.061 57.6342 116.686 57.3572C117.311 57.0803 118.022 56.9418 118.817 56.9418C119.627 56.9418 120.333 57.0803 120.937 57.3572C121.544 57.6342 122.017 58.0195 122.354 58.5131C122.691 59.0067 122.865 59.5785 122.876 60.2283H120.665Z" fill="white"/>
<path d="M94.9648 186V175.091H97.2712V179.901H97.415L101.341 175.091H104.105L100.057 179.975L104.153 186H101.394L98.4058 181.515L97.2712 182.9V186H94.9648ZM111.925 178.617C111.85 178.358 111.746 178.129 111.611 177.93C111.476 177.728 111.311 177.557 111.115 177.419C110.924 177.277 110.703 177.168 110.455 177.094C110.21 177.019 109.938 176.982 109.64 176.982C109.082 176.982 108.592 177.12 108.17 177.397C107.751 177.674 107.424 178.077 107.19 178.607C106.955 179.132 106.838 179.775 106.838 180.535C106.838 181.295 106.953 181.941 107.184 182.474C107.415 183.006 107.742 183.413 108.164 183.694C108.587 183.971 109.086 184.109 109.661 184.109C110.183 184.109 110.629 184.017 110.998 183.832C111.371 183.644 111.655 183.379 111.85 183.038C112.049 182.697 112.149 182.294 112.149 181.829L112.617 181.898H109.805V180.162H114.37V181.536C114.37 182.495 114.168 183.319 113.763 184.008C113.358 184.693 112.8 185.222 112.09 185.595C111.38 185.964 110.567 186.149 109.65 186.149C108.628 186.149 107.729 185.924 106.955 185.473C106.181 185.018 105.577 184.374 105.144 183.539C104.714 182.701 104.5 181.707 104.5 180.556C104.5 179.672 104.627 178.884 104.883 178.191C105.142 177.495 105.505 176.906 105.97 176.423C106.435 175.94 106.976 175.572 107.594 175.32C108.212 175.068 108.882 174.942 109.603 174.942C110.22 174.942 110.796 175.032 111.328 175.213C111.861 175.391 112.333 175.643 112.745 175.97C113.161 176.297 113.5 176.685 113.763 177.136C114.025 177.584 114.194 178.077 114.269 178.617H111.925ZM122.02 178.228C121.978 177.799 121.795 177.465 121.472 177.227C121.149 176.989 120.71 176.87 120.156 176.87C119.78 176.87 119.462 176.923 119.203 177.03C118.943 177.133 118.744 177.277 118.606 177.461C118.471 177.646 118.404 177.855 118.404 178.09C118.396 178.285 118.437 178.456 118.526 178.601C118.618 178.747 118.744 178.873 118.904 178.979C119.064 179.082 119.249 179.173 119.458 179.251C119.668 179.326 119.892 179.39 120.129 179.443L121.11 179.677C121.585 179.784 122.022 179.926 122.42 180.103C122.818 180.281 123.162 180.499 123.453 180.759C123.744 181.018 123.97 181.323 124.13 181.675C124.293 182.026 124.377 182.429 124.38 182.884C124.377 183.551 124.206 184.13 123.869 184.62C123.535 185.107 123.052 185.485 122.42 185.755C121.791 186.021 121.033 186.154 120.145 186.154C119.265 186.154 118.498 186.02 117.844 185.75C117.194 185.48 116.687 185.08 116.321 184.551C115.959 184.018 115.769 183.36 115.751 182.575H117.983C118.008 182.941 118.112 183.246 118.297 183.491C118.485 183.733 118.736 183.915 119.048 184.04C119.364 184.161 119.721 184.221 120.119 184.221C120.509 184.221 120.849 184.164 121.136 184.05C121.427 183.937 121.653 183.779 121.813 183.576C121.972 183.374 122.052 183.141 122.052 182.879C122.052 182.634 121.98 182.428 121.834 182.261C121.692 182.094 121.482 181.952 121.205 181.835C120.932 181.717 120.596 181.611 120.199 181.515L119.011 181.217C118.091 180.993 117.365 180.643 116.832 180.167C116.3 179.691 116.035 179.05 116.039 178.244C116.035 177.584 116.211 177.007 116.566 176.513C116.925 176.02 117.416 175.634 118.041 175.357C118.666 175.08 119.377 174.942 120.172 174.942C120.982 174.942 121.688 175.08 122.292 175.357C122.899 175.634 123.372 176.02 123.709 176.513C124.046 177.007 124.22 177.578 124.231 178.228H122.02Z" fill="white"/>
<path d="M38.5576 113.12C38.0109 113.12 37.5342 113.007 37.1276 112.78C36.7276 112.553 36.4176 112.233 36.1976 111.82C35.9776 111.4 35.8676 110.91 35.8676 110.35V105.7H37.2376V108.53H37.2476C37.3542 108.377 37.4842 108.243 37.6376 108.13C37.7976 108.017 37.9742 107.93 38.1676 107.87C38.3676 107.81 38.5742 107.78 38.7876 107.78C39.2876 107.78 39.7209 107.89 40.0876 108.11C40.4542 108.33 40.7376 108.633 40.9376 109.02C41.1442 109.4 41.2476 109.843 41.2476 110.35C41.2476 110.75 41.1876 111.12 41.0676 111.46C40.9476 111.793 40.7742 112.087 40.5476 112.34C40.3209 112.587 40.0409 112.78 39.7076 112.92C39.3742 113.053 38.9909 113.12 38.5576 113.12ZM38.5576 111.95C38.8309 111.95 39.0642 111.883 39.2576 111.75C39.4509 111.617 39.5976 111.437 39.6976 111.21C39.8042 110.983 39.8576 110.73 39.8576 110.45C39.8576 110.17 39.8042 109.917 39.6976 109.69C39.5976 109.463 39.4509 109.283 39.2576 109.15C39.0642 109.017 38.8309 108.95 38.5576 108.95C38.2909 108.95 38.0576 109.017 37.8576 109.15C37.6642 109.283 37.5142 109.463 37.4076 109.69C37.3076 109.917 37.2576 110.17 37.2576 110.45C37.2576 110.73 37.3076 110.983 37.4076 111.21C37.5142 111.437 37.6642 111.617 37.8576 111.75C38.0576 111.883 38.2909 111.95 38.5576 111.95ZM44.2557 113.12C43.789 113.12 43.3824 113 43.0357 112.76C42.689 112.52 42.419 112.2 42.2257 111.8C42.039 111.393 41.9457 110.947 41.9457 110.46C41.9457 109.96 42.0524 109.507 42.2657 109.1C42.4857 108.693 42.799 108.373 43.2057 108.14C43.6124 107.9 44.099 107.78 44.6657 107.78C45.239 107.78 45.7224 107.9 46.1157 108.14C46.509 108.38 46.809 108.703 47.0157 109.11C47.2224 109.517 47.3257 109.967 47.3257 110.46V113H45.9557V112.15H45.9357C45.8357 112.33 45.709 112.493 45.5557 112.64C45.409 112.787 45.229 112.903 45.0157 112.99C44.8024 113.077 44.549 113.12 44.2557 113.12ZM44.6457 111.95C44.9124 111.95 45.1424 111.883 45.3357 111.75C45.529 111.617 45.6757 111.437 45.7757 111.21C45.8824 110.977 45.9357 110.72 45.9357 110.44C45.9357 110.16 45.8824 109.91 45.7757 109.69C45.6757 109.463 45.529 109.283 45.3357 109.15C45.1424 109.017 44.9124 108.95 44.6457 108.95C44.3724 108.95 44.1357 109.017 43.9357 109.15C43.7424 109.283 43.5924 109.463 43.4857 109.69C43.3857 109.91 43.3357 110.16 43.3357 110.44C43.3357 110.72 43.3857 110.977 43.4857 111.21C43.5924 111.437 43.7424 111.617 43.9357 111.75C44.1357 111.883 44.3724 111.95 44.6457 111.95ZM48.5727 113V109.35C48.5727 108.897 48.6993 108.543 48.9527 108.29C49.2127 108.03 49.5693 107.9 50.0227 107.9H51.4327V109.07H50.2627C50.176 109.07 50.0993 109.1 50.0327 109.16C49.9727 109.22 49.9427 109.297 49.9427 109.39V113H48.5727ZM52.1871 113V105.7H53.5571V113H52.1871ZM57.3031 113.12C56.7765 113.12 56.3065 113.003 55.8931 112.77C55.4798 112.53 55.1531 112.21 54.9131 111.81C54.6731 111.403 54.5531 110.95 54.5531 110.45C54.5531 109.95 54.6731 109.5 54.9131 109.1C55.1531 108.693 55.4798 108.373 55.8931 108.14C56.3065 107.9 56.7765 107.78 57.3031 107.78C57.8298 107.78 58.2998 107.9 58.7131 108.14C59.1265 108.373 59.4531 108.693 59.6931 109.1C59.9331 109.5 60.0531 109.95 60.0531 110.45C60.0531 110.95 59.9331 111.403 59.6931 111.81C59.4531 112.21 59.1265 112.53 58.7131 112.77C58.2998 113.003 57.8298 113.12 57.3031 113.12ZM57.3031 111.95C57.5831 111.95 57.8231 111.883 58.0231 111.75C58.2298 111.617 58.3865 111.437 58.4931 111.21C58.6065 110.983 58.6631 110.73 58.6631 110.45C58.6631 110.17 58.6065 109.917 58.4931 109.69C58.3865 109.463 58.2298 109.283 58.0231 109.15C57.8231 109.017 57.5831 108.95 57.3031 108.95C57.0231 108.95 56.7798 109.017 56.5731 109.15C56.3731 109.283 56.2165 109.463 56.1031 109.69C55.9965 109.917 55.9431 110.17 55.9431 110.45C55.9431 110.73 55.9965 110.983 56.1031 111.21C56.2165 111.437 56.3731 111.617 56.5731 111.75C56.7798 111.883 57.0231 111.95 57.3031 111.95ZM61.8243 115.03V113.86H64.4443C64.5376 113.86 64.6143 113.827 64.6743 113.76C64.7343 113.7 64.7643 113.627 64.7643 113.54V112.29H64.7543C64.601 112.463 64.4443 112.603 64.2843 112.71C64.1243 112.817 63.951 112.897 63.7643 112.95C63.5843 112.997 63.3843 113.02 63.1643 113.02C62.711 113.02 62.301 112.913 61.9343 112.7C61.5743 112.48 61.2876 112.173 61.0743 111.78C60.861 111.387 60.7543 110.93 60.7543 110.41C60.7543 109.917 60.8576 109.473 61.0643 109.08C61.2776 108.68 61.5843 108.363 61.9843 108.13C62.3843 107.897 62.871 107.78 63.4443 107.78C63.9976 107.78 64.4743 107.893 64.8743 108.12C65.2743 108.347 65.5843 108.667 65.8043 109.08C66.0243 109.493 66.1343 109.983 66.1343 110.55V113.58C66.1343 114.027 66.0043 114.38 65.7443 114.64C65.491 114.9 65.1376 115.03 64.6843 115.03H61.8243ZM63.4443 111.85C63.7176 111.85 63.951 111.787 64.1443 111.66C64.3376 111.533 64.4843 111.367 64.5843 111.16C64.691 110.947 64.7443 110.71 64.7443 110.45C64.7443 110.17 64.691 109.917 64.5843 109.69C64.4843 109.463 64.3376 109.283 64.1443 109.15C63.951 109.017 63.7176 108.95 63.4443 108.95C63.1776 108.95 62.9443 109.017 62.7443 109.15C62.551 109.277 62.401 109.45 62.2943 109.67C62.1943 109.89 62.1443 110.137 62.1443 110.41C62.1443 110.677 62.1943 110.92 62.2943 111.14C62.401 111.353 62.551 111.527 62.7443 111.66C62.9443 111.787 63.1776 111.85 63.4443 111.85Z" fill="white"/>
<path d="M154.558 113.12C154.011 113.12 153.534 113.007 153.128 112.78C152.728 112.553 152.418 112.233 152.198 111.82C151.978 111.4 151.868 110.91 151.868 110.35V105.7H153.238V108.53H153.248C153.354 108.377 153.484 108.243 153.638 108.13C153.798 108.017 153.974 107.93 154.168 107.87C154.368 107.81 154.574 107.78 154.788 107.78C155.288 107.78 155.721 107.89 156.088 108.11C156.454 108.33 156.738 108.633 156.938 109.02C157.144 109.4 157.248 109.843 157.248 110.35C157.248 110.75 157.188 111.12 157.068 111.46C156.948 111.793 156.774 112.087 156.548 112.34C156.321 112.587 156.041 112.78 155.708 112.92C155.374 113.053 154.991 113.12 154.558 113.12ZM154.558 111.95C154.831 111.95 155.064 111.883 155.258 111.75C155.451 111.617 155.598 111.437 155.698 111.21C155.804 110.983 155.858 110.73 155.858 110.45C155.858 110.17 155.804 109.917 155.698 109.69C155.598 109.463 155.451 109.283 155.258 109.15C155.064 109.017 154.831 108.95 154.558 108.95C154.291 108.95 154.058 109.017 153.858 109.15C153.664 109.283 153.514 109.463 153.408 109.69C153.308 109.917 153.258 110.17 153.258 110.45C153.258 110.73 153.308 110.983 153.408 111.21C153.514 111.437 153.664 111.617 153.858 111.75C154.058 111.883 154.291 111.95 154.558 111.95ZM160.256 113.12C159.789 113.12 159.382 113 159.036 112.76C158.689 112.52 158.419 112.2 158.226 111.8C158.039 111.393 157.946 110.947 157.946 110.46C157.946 109.96 158.052 109.507 158.266 109.1C158.486 108.693 158.799 108.373 159.206 108.14C159.612 107.9 160.099 107.78 160.666 107.78C161.239 107.78 161.722 107.9 162.116 108.14C162.509 108.38 162.809 108.703 163.016 109.11C163.222 109.517 163.326 109.967 163.326 110.46V113H161.956V112.15H161.936C161.836 112.33 161.709 112.493 161.556 112.64C161.409 112.787 161.229 112.903 161.016 112.99C160.802 113.077 160.549 113.12 160.256 113.12ZM160.646 111.95C160.912 111.95 161.142 111.883 161.336 111.75C161.529 111.617 161.676 111.437 161.776 111.21C161.882 110.977 161.936 110.72 161.936 110.44C161.936 110.16 161.882 109.91 161.776 109.69C161.676 109.463 161.529 109.283 161.336 109.15C161.142 109.017 160.912 108.95 160.646 108.95C160.372 108.95 160.136 109.017 159.936 109.15C159.742 109.283 159.592 109.463 159.486 109.69C159.386 109.91 159.336 110.16 159.336 110.44C159.336 110.72 159.386 110.977 159.486 111.21C159.592 111.437 159.742 111.617 159.936 111.75C160.136 111.883 160.372 111.95 160.646 111.95ZM164.573 113V109.35C164.573 108.897 164.699 108.543 164.953 108.29C165.213 108.03 165.569 107.9 166.023 107.9H167.433V109.07H166.263C166.176 109.07 166.099 109.1 166.033 109.16C165.973 109.22 165.943 109.297 165.943 109.39V113H164.573ZM168.187 113V105.7H169.557V113H168.187ZM173.303 113.12C172.776 113.12 172.306 113.003 171.893 112.77C171.48 112.53 171.153 112.21 170.913 111.81C170.673 111.403 170.553 110.95 170.553 110.45C170.553 109.95 170.673 109.5 170.913 109.1C171.153 108.693 171.48 108.373 171.893 108.14C172.306 107.9 172.776 107.78 173.303 107.78C173.83 107.78 174.3 107.9 174.713 108.14C175.126 108.373 175.453 108.693 175.693 109.1C175.933 109.5 176.053 109.95 176.053 110.45C176.053 110.95 175.933 111.403 175.693 111.81C175.453 112.21 175.126 112.53 174.713 112.77C174.3 113.003 173.83 113.12 173.303 113.12ZM173.303 111.95C173.583 111.95 173.823 111.883 174.023 111.75C174.23 111.617 174.386 111.437 174.493 111.21C174.606 110.983 174.663 110.73 174.663 110.45C174.663 110.17 174.606 109.917 174.493 109.69C174.386 109.463 174.23 109.283 174.023 109.15C173.823 109.017 173.583 108.95 173.303 108.95C173.023 108.95 172.78 109.017 172.573 109.15C172.373 109.283 172.216 109.463 172.103 109.69C171.996 109.917 171.943 110.17 171.943 110.45C171.943 110.73 171.996 110.983 172.103 111.21C172.216 111.437 172.373 111.617 172.573 111.75C172.78 111.883 173.023 111.95 173.303 111.95ZM177.824 115.03V113.86H180.444C180.538 113.86 180.614 113.827 180.674 113.76C180.734 113.7 180.764 113.627 180.764 113.54V112.29H180.754C180.601 112.463 180.444 112.603 180.284 112.71C180.124 112.817 179.951 112.897 179.764 112.95C179.584 112.997 179.384 113.02 179.164 113.02C178.711 113.02 178.301 112.913 177.934 112.7C177.574 112.48 177.288 112.173 177.074 111.78C176.861 111.387 176.754 110.93 176.754 110.41C176.754 109.917 176.858 109.473 177.064 109.08C177.278 108.68 177.584 108.363 177.984 108.13C178.384 107.897 178.871 107.78 179.444 107.78C179.998 107.78 180.474 107.893 180.874 108.12C181.274 108.347 181.584 108.667 181.804 109.08C182.024 109.493 182.134 109.983 182.134 110.55V113.58C182.134 114.027 182.004 114.38 181.744 114.64C181.491 114.9 181.138 115.03 180.684 115.03H177.824ZM179.444 111.85C179.718 111.85 179.951 111.787 180.144 111.66C180.338 111.533 180.484 111.367 180.584 111.16C180.691 110.947 180.744 110.71 180.744 110.45C180.744 110.17 180.691 109.917 180.584 109.69C180.484 109.463 180.338 109.283 180.144 109.15C179.951 109.017 179.718 108.95 179.444 108.95C179.178 108.95 178.944 109.017 178.744 109.15C178.551 109.277 178.401 109.45 178.294 109.67C178.194 109.89 178.144 110.137 178.144 110.41C178.144 110.677 178.194 110.92 178.294 111.14C178.401 111.353 178.551 111.527 178.744 111.66C178.944 111.787 179.178 111.85 179.444 111.85Z" fill="white"/>
</g>
</g>
<g filter="url(#filter1_bd_36_487)">
<rect width="184.475" height="6.31241" transform="matrix(0.767545 0.640995 -0.644579 0.764538 40.8369 47.4034)" fill="#2E2525"/>
</g>
<g filter="url(#filter2_bd_36_487)">
<rect width="184.398" height="6.31502" transform="matrix(0.708784 -0.705425 0.708784 0.705425 41.6143 171.899)" fill="#2E2525"/>
</g>
<g filter="url(#filter3_d_36_487)">
<path d="M79.9601 109C79.9601 92.7628 93.2629 79.6 109.5 79.6V79.6C125.737 79.6 139.04 92.7628 139.04 109V109C139.04 125.237 125.737 138.4 109.5 138.4V138.4C93.2629 138.4 79.9601 125.237 79.9601 109V109Z" fill="#201919"/>
</g>
<g filter="url(#filter4_bd_36_487)">
<path d="M86.29 109C86.29 96.2422 96.7423 85.9 109.5 85.9V85.9C122.258 85.9 132.71 96.2422 132.71 109V109C132.71 121.758 122.258 132.1 109.5 132.1V132.1C96.7423 132.1 86.29 121.758 86.29 109V109Z" fill="url(#paint0_linear_36_487)"/>
</g>
<path d="M94.7301 109C94.7301 100.881 101.382 94.3 109.5 94.3V94.3C117.619 94.3 124.27 100.881 124.27 109V109C124.27 117.119 117.619 123.7 109.5 123.7V123.7C101.382 123.7 94.7301 117.119 94.7301 109V109Z" fill="url(#paint1_linear_36_487)"/>
<defs>
<filter id="filter0_d_36_487" x="0.0999999" y="0.0999999" width="219.48" height="218.6" filterUnits="userSpaceOnUse" color-interpolation-filters="sRGB">
<feFlood flood-opacity="0" result="BackgroundImageFix"/>
<feColorMatrix in="SourceAlpha" type="matrix" values="0 0 0 0 0 0 0 0 0 0 0 0 0 0 0 0 0 0 127 0" result="hardAlpha"/>
<feMorphology radius="9" operator="dilate" in="SourceAlpha" result="effect1_dropShadow_36_487"/>
<feOffset/>
<feGaussianBlur stdDeviation="3.95"/>
<feColorMatrix type="matrix" values="0 0 0 0 0 0 0 0 0 0 0 0 0 0 0 0 0 0 0.25 0"/>
<feBlend mode="normal" in2="BackgroundImageFix" result="effect1_dropShadow_36_487"/>
<feBlend mode="normal" in="SourceGraphic" in2="effect1_dropShadow_36_487" result="shape"/>
</filter>
<filter id="filter1_bd_36_487" x="30.7681" y="41.4034" width="157.661" height="137.073" filterUnits="userSpaceOnUse" color-interpolation-filters="sRGB">
<feFlood flood-opacity="0" result="BackgroundImageFix"/>
<feGaussianBlur in="BackgroundImageFix" stdDeviation="3"/>
<feComposite in2="SourceAlpha" operator="in" result="effect1_backgroundBlur_36_487"/>
<feColorMatrix in="SourceAlpha" type="matrix" values="0 0 0 0 0 0 0 0 0 0 0 0 0 0 0 0 0 0 127 0" result="hardAlpha"/>
<feOffset dy="4"/>
<feGaussianBlur stdDeviation="2"/>
<feComposite in2="hardAlpha" operator="out"/>
<feColorMatrix type="matrix" values="0 0 0 0 0 0 0 0 0 0 0 0 0 0 0 0 0 0 0.25 0"/>
<feBlend mode="normal" in2="effect1_backgroundBlur_36_487" result="effect2_dropShadow_36_487"/>
<feBlend mode="normal" in="SourceGraphic" in2="effect2_dropShadow_36_487" result="shape"/>
</filter>
<filter id="filter2_bd_36_487" x="35.6143" y="35.8199" width="147.175" height="148.534" filterUnits="userSpaceOnUse" color-interpolation-filters="sRGB">
<feFlood flood-opacity="0" result="BackgroundImageFix"/>
<feGaussianBlur in="BackgroundImageFix" stdDeviation="3"/>
<feComposite in2="SourceAlpha" operator="in" result="effect1_backgroundBlur_36_487"/>
<feColorMatrix in="SourceAlpha" type="matrix" values="0 0 0 0 0 0 0 0 0 0 0 0 0 0 0 0 0 0 127 0" result="hardAlpha"/>
<feOffset dy="4"/>
<feGaussianBlur stdDeviation="2"/>
<feComposite in2="hardAlpha" operator="out"/>
<feColorMatrix type="matrix" values="0 0 0 0 0 0 0 0 0 0 0 0 0 0 0 0 0 0 0.25 0"/>
<feBlend mode="normal" in2="effect1_backgroundBlur_36_487" result="effect2_dropShadow_36_487"/>
<feBlend mode="normal" in="SourceGraphic" in2="effect2_dropShadow_36_487" result="shape"/>
</filter>
<filter id="filter3_d_36_487" x="75.9601" y="79.6" width="67.08" height="66.8" filterUnits="userSpaceOnUse" color-interpolation-filters="sRGB">
<feFlood flood-opacity="0" result="BackgroundImageFix"/>
<feColorMatrix in="SourceAlpha" type="matrix" values="0 0 0 0 0 0 0 0 0 0 0 0 0 0 0 0 0 0 127 0" result="hardAlpha"/>
<feOffset dy="4"/>
<feGaussianBlur stdDeviation="2"/>
<feComposite in2="hardAlpha" operator="out"/>
<feColorMatrix type="matrix" values="0 0 0 0 0 0 0 0 0 0 0 0 0 0 0 0 0 0 0.25 0"/>
<feBlend mode="normal" in2="BackgroundImageFix" result="effect1_dropShadow_36_487"/>
<feBlend mode="normal" in="SourceGraphic" in2="effect1_dropShadow_36_487" result="shape"/>
</filter>
<filter id="filter4_bd_36_487" x="75.29" y="74.9" width="68.42" height="68.2" filterUnits="userSpaceOnUse" color-interpolation-filters="sRGB">
<feFlood flood-opacity="0" result="BackgroundImageFix"/>
<feGaussianBlur in="BackgroundImageFix" stdDeviation="2"/>
<feComposite in2="SourceAlpha" operator="in" result="effect1_backgroundBlur_36_487"/>
<feColorMatrix in="SourceAlpha" type="matrix" values="0 0 0 0 0 0 0 0 0 0 0 0 0 0 0 0 0 0 127 0" result="hardAlpha"/>
<feMorphology radius="4" operator="dilate" in="SourceAlpha" result="effect2_dropShadow_36_487"/>
<feOffset/>
<feGaussianBlur stdDeviation="3.5"/>
<feComposite in2="hardAlpha" operator="out"/>
<feColorMatrix type="matrix" values="0 0 0 0 0 0 0 0 0 0 0 0 0 0 0 0 0 0 0.25 0"/>
<feBlend mode="normal" in2="effect1_backgroundBlur_36_487" result="effect2_dropShadow_36_487"/>
<feBlend mode="normal" in="SourceGraphic" in2="effect2_dropShadow_36_487" result="shape"/>
</filter>
<linearGradient id="paint0_linear_36_487" x1="109.5" y1="85.9" x2="109.5" y2="132.1" gradientUnits="userSpaceOnUse">
<stop stop-color="#595959"/>
<stop offset="1" stop-color="#BFBFBF"/>
</linearGradient>
<linearGradient id="paint1_linear_36_487" x1="109.5" y1="94.3" x2="109.5" y2="123.7" gradientUnits="userSpaceOnUse">
<stop stop-color="#AAAAAA"/>
<stop offset="1" stop-color="#6E6E6E"/>
</linearGradient>
<clipPath id="clip0_36_487">
<path d="M17 109.4C17 58.3689 58.8089 17 109.84 17V17C160.871 17 202.68 58.3689 202.68 109.4V109.4C202.68 160.431 160.871 201.8 109.84 201.8V201.8C58.8089 201.8 17 160.431 17 109.4V109.4Z" fill="white"/>
</clipPath>
</defs>
</svg>
