<svg width="220" height="219" viewBox="0 0 220 219" fill="none" xmlns="http://www.w3.org/2000/svg">
<path d="M4 109C4 51.0101 51.5101 4 109.5 4V4C167.49 4 215 51.0101 215 109V109C215 166.99 167.49 214 109.5 214V214C51.5101 214 4 166.99 4 109V109Z" fill="#2E2525"/>
<g filter="url(#filter0_d_21_328)">
<path d="M17 109.4C17 58.3689 58.8089 17 109.84 17V17C160.871 17 202.68 58.3689 202.68 109.4V109.4C202.68 160.431 160.871 201.8 109.84 201.8V201.8C58.8089 201.8 17 160.431 17 109.4V109.4Z" fill="#3D3535" fill-opacity="0.98"/>
<path d="M104.73 34.4545V49H101.654V37.3736H101.569L98.2383 39.4616V36.7344L101.839 34.4545H104.73ZM113.89 49.3196C112.668 49.3149 111.617 49.0142 110.737 48.4176C109.861 47.821 109.186 46.9569 108.712 45.8253C108.244 44.6937 108.012 43.3324 108.016 41.7415C108.016 40.1553 108.251 38.8035 108.719 37.6861C109.193 36.5687 109.868 35.7187 110.744 35.1364C111.624 34.5492 112.673 34.2557 113.89 34.2557C115.107 34.2557 116.153 34.5492 117.029 35.1364C117.91 35.7235 118.587 36.5758 119.06 37.6932C119.534 38.8059 119.768 40.1553 119.763 41.7415C119.763 43.3371 119.527 44.7008 119.053 45.8324C118.585 46.964 117.912 47.8281 117.036 48.4247C116.16 49.0213 115.112 49.3196 113.89 49.3196ZM113.89 46.7699C114.723 46.7699 115.388 46.3509 115.886 45.5128C116.383 44.6747 116.629 43.4176 116.624 41.7415C116.624 40.6383 116.511 39.7197 116.283 38.9858C116.061 38.2519 115.744 37.7003 115.332 37.331C114.924 36.9616 114.444 36.777 113.89 36.777C113.061 36.777 112.398 37.1913 111.901 38.0199C111.404 38.8485 111.153 40.089 111.148 41.7415C111.148 42.8589 111.26 43.7917 111.482 44.5398C111.71 45.2831 112.029 45.8419 112.441 46.2159C112.853 46.5852 113.336 46.7699 113.89 46.7699Z" fill="white"/>
<path d="M94.4529 164.443V162.021L100.525 152.455H102.613V155.807H101.378L97.5495 161.865V161.979H106.179V164.443H94.4529ZM101.434 167V163.705L101.491 162.632V152.455H104.375V167H101.434ZM109.751 167.185C109.282 167.185 108.88 167.019 108.544 166.688C108.212 166.351 108.047 165.949 108.047 165.48C108.047 165.016 108.212 164.618 108.544 164.287C108.88 163.955 109.282 163.79 109.751 163.79C110.206 163.79 110.604 163.955 110.944 164.287C111.285 164.618 111.456 165.016 111.456 165.48C111.456 165.793 111.375 166.079 111.214 166.339C111.058 166.595 110.852 166.801 110.596 166.957C110.341 167.109 110.059 167.185 109.751 167.185ZM119.107 167.199C118.103 167.199 117.208 167.014 116.422 166.645C115.641 166.276 115.021 165.767 114.561 165.118C114.102 164.469 113.863 163.726 113.844 162.888H116.827C116.86 163.451 117.097 163.908 117.537 164.259C117.977 164.609 118.501 164.784 119.107 164.784C119.59 164.784 120.016 164.678 120.385 164.464C120.759 164.247 121.05 163.946 121.259 163.562C121.472 163.174 121.578 162.729 121.578 162.227C121.578 161.716 121.469 161.266 121.252 160.878C121.039 160.49 120.743 160.187 120.364 159.969C119.985 159.751 119.552 159.64 119.064 159.635C118.638 159.635 118.224 159.723 117.821 159.898C117.423 160.073 117.113 160.312 116.891 160.615L114.156 160.125L114.845 152.455H123.737V154.969H117.381L117.004 158.612H117.09C117.345 158.252 117.731 157.954 118.247 157.717C118.763 157.481 119.341 157.362 119.98 157.362C120.856 157.362 121.637 157.568 122.324 157.98C123.011 158.392 123.553 158.958 123.95 159.678C124.348 160.393 124.545 161.216 124.54 162.149C124.545 163.129 124.317 164 123.858 164.763C123.404 165.52 122.767 166.117 121.948 166.553C121.133 166.983 120.186 167.199 119.107 167.199Z" fill="white"/>
<path d="M96.3197 68V57.0909H98.6262V66.0984H103.303V68H96.3197ZM104.83 68V57.0909H109.198C110.001 57.0909 110.67 57.2099 111.207 57.4478C111.743 57.6857 112.146 58.016 112.416 58.4386C112.686 58.8576 112.821 59.3406 112.821 59.8874C112.821 60.3136 112.735 60.6882 112.565 61.0114C112.394 61.331 112.16 61.5937 111.862 61.7997C111.567 62.0021 111.23 62.146 110.85 62.2312V62.3377C111.265 62.3555 111.654 62.4727 112.016 62.6893C112.382 62.9059 112.678 63.2095 112.906 63.6001C113.133 63.9872 113.247 64.4489 113.247 64.9851C113.247 65.5639 113.103 66.0806 112.815 66.5352C112.531 66.9862 112.11 67.343 111.553 67.6058C110.995 67.8686 110.308 68 109.491 68H104.83ZM107.137 66.1143H109.017C109.66 66.1143 110.129 65.9918 110.424 65.7468C110.718 65.4982 110.866 65.168 110.866 64.756C110.866 64.4542 110.793 64.1879 110.647 63.957C110.502 63.7262 110.294 63.5451 110.024 63.4137C109.758 63.2823 109.44 63.2166 109.071 63.2166H107.137V66.1143ZM107.137 61.6559H108.847C109.163 61.6559 109.443 61.6009 109.688 61.4908C109.937 61.3771 110.132 61.2173 110.274 61.0114C110.42 60.8054 110.493 60.5586 110.493 60.271C110.493 59.8768 110.352 59.5589 110.072 59.3175C109.795 59.076 109.401 58.9553 108.889 58.9553H107.137V61.6559ZM120.665 60.2283C120.623 59.7987 120.44 59.4648 120.117 59.2269C119.794 58.989 119.355 58.87 118.801 58.87C118.425 58.87 118.107 58.9233 117.848 59.0298C117.588 59.1328 117.39 59.2766 117.251 59.4613C117.116 59.646 117.049 59.8555 117.049 60.0898C117.042 60.2852 117.082 60.4556 117.171 60.6012C117.263 60.7468 117.39 60.8729 117.549 60.9794C117.709 61.0824 117.894 61.1729 118.103 61.2511C118.313 61.3256 118.537 61.3896 118.774 61.4428L119.755 61.6772C120.23 61.7837 120.667 61.9258 121.065 62.1033C121.463 62.2809 121.807 62.4993 122.098 62.7585C122.39 63.0178 122.615 63.3232 122.775 63.6747C122.938 64.0263 123.022 64.4293 123.025 64.8839C123.022 65.5515 122.851 66.1303 122.514 66.6204C122.18 67.1069 121.697 67.4851 121.065 67.755C120.436 68.0213 119.678 68.1545 118.79 68.1545C117.91 68.1545 117.143 68.0195 116.489 67.7496C115.839 67.4798 115.332 67.0803 114.966 66.5511C114.604 66.0185 114.414 65.3597 114.396 64.5749H116.628C116.653 64.9407 116.757 65.2461 116.942 65.4911C117.13 65.7326 117.381 65.9155 117.693 66.0398C118.009 66.1605 118.366 66.2209 118.764 66.2209C119.154 66.2209 119.494 66.1641 119.781 66.0504C120.072 65.9368 120.298 65.7788 120.458 65.5763C120.617 65.3739 120.697 65.1413 120.697 64.8786C120.697 64.6335 120.625 64.4276 120.479 64.2607C120.337 64.0937 120.127 63.9517 119.85 63.8345C119.577 63.7173 119.241 63.6108 118.844 63.5149L117.656 63.2166C116.736 62.9929 116.01 62.6431 115.477 62.1673C114.945 61.6914 114.68 61.0504 114.684 60.2443C114.68 59.5838 114.856 59.0067 115.211 58.5131C115.57 58.0195 116.061 57.6342 116.686 57.3572C117.311 57.0803 118.022 56.9418 118.817 56.9418C119.627 56.9418 120.333 57.0803 120.937 57.3572C121.544 57.6342 122.017 58.0195 122.354 58.5131C122.691 59.0067 122.865 59.5785 122.876 60.2283H120.665Z" fill="white"/>
<path d="M94.9648 186V175.091H97.2712V179.901H97.415L101.341 175.091H104.105L100.057 179.975L104.153 186H101.394L98.4058 181.515L97.2712 182.9V186H94.9648ZM111.925 178.617C111.85 178.358 111.746 178.129 111.611 177.93C111.476 177.728 111.311 177.557 111.115 177.419C110.924 177.277 110.703 177.168 110.455 177.094C110.21 177.019 109.938 176.982 109.64 176.982C109.082 176.982 108.592 177.12 108.17 177.397C107.751 177.674 107.424 178.077 107.19 178.607C106.955 179.132 106.838 179.775 106.838 180.535C106.838 181.295 106.953 181.941 107.184 182.474C107.415 183.006 107.742 183.413 108.164 183.694C108.587 183.971 109.086 184.109 109.661 184.109C110.183 184.109 110.629 184.017 110.998 183.832C111.371 183.644 111.655 183.379 111.85 183.038C112.049 182.697 112.149 182.294 112.149 181.829L112.617 181.898H109.805V180.162H114.37V181.536C114.37 182.495 114.168 183.319 113.763 184.008C113.358 184.693 112.8 185.222 112.09 185.595C111.38 185.964 110.567 186.149 109.65 186.149C108.628 186.149 107.729 185.924 106.955 185.473C106.181 185.018 105.577 184.374 105.144 183.539C104.714 182.701 104.5 181.707 104.5 180.556C104.5 179.672 104.627 178.884 104.883 178.191C105.142 177.495 105.505 176.906 105.97 176.423C106.435 175.94 106.976 175.572 107.594 175.32C108.212 175.068 108.882 174.942 109.603 174.942C110.22 174.942 110.796 175.032 111.328 175.213C111.861 175.391 112.333 175.643 112.745 175.97C113.161 176.297 113.5 176.685 113.763 177.136C114.025 177.584 114.194 178.077 114.269 178.617H111.925ZM122.02 178.228C121.978 177.799 121.795 177.465 121.472 177.227C121.149 176.989 120.71 176.87 120.156 176.87C119.78 176.87 119.462 176.923 119.203 177.03C118.943 177.133 118.744 177.277 118.606 177.461C118.471 177.646 118.404 177.855 118.404 178.09C118.396 178.285 118.437 178.456 118.526 178.601C118.618 178.747 118.744 178.873 118.904 178.979C119.064 179.082 119.249 179.173 119.458 179.251C119.668 179.326 119.892 179.39 120.129 179.443L121.11 179.677C121.585 179.784 122.022 179.926 122.42 180.103C122.818 180.281 123.162 180.499 123.453 180.759C123.744 181.018 123.97 181.323 124.13 181.675C124.293 182.026 124.377 182.429 124.38 182.884C124.377 183.551 124.206 184.13 123.869 184.62C123.535 185.107 123.052 185.485 122.42 185.755C121.791 186.021 121.033 186.154 120.145 186.154C119.265 186.154 118.498 186.02 117.844 185.75C117.194 185.48 116.687 185.08 116.321 184.551C115.959 184.018 115.769 183.36 115.751 182.575H117.983C118.008 182.941 118.112 183.246 118.297 183.491C118.485 183.733 118.736 183.915 119.048 184.04C119.364 184.161 119.721 184.221 120.119 184.221C120.509 184.221 120.849 184.164 121.136 184.05C121.427 183.937 121.653 183.779 121.813 183.576C121.972 183.374 122.052 183.141 122.052 182.879C122.052 182.634 121.98 182.428 121.834 182.261C121.692 182.094 121.482 181.952 121.205 181.835C120.932 181.717 120.596 181.611 120.199 181.515L119.011 181.217C118.091 180.993 117.365 180.643 116.832 180.167C116.3 179.691 116.035 179.05 116.039 178.244C116.035 177.584 116.211 177.007 116.566 176.513C116.925 176.02 117.416 175.634 118.041 175.357C118.666 175.08 119.377 174.942 120.172 174.942C120.982 174.942 121.688 175.08 122.292 175.357C122.899 175.634 123.372 176.02 123.709 176.513C124.046 177.007 124.22 177.578 124.231 178.228H122.02Z" fill="white"/>
</g>
<g filter="url(#filter1_bd_21_328)">
<rect width="184.475" height="6.31241" transform="matrix(0.767545 0.640995 -0.644579 0.764538 40.8369 47.4034)" fill="#2E2525"/>
</g>
<g filter="url(#filter2_bd_21_328)">
<rect width="184.398" height="6.31502" transform="matrix(0.708784 -0.705425 0.708784 0.705425 41.6143 171.899)" fill="#2E2525"/>
</g>
<g filter="url(#filter3_d_21_328)">
<path d="M79.9601 109C79.9601 92.7628 93.2629 79.6 109.5 79.6V79.6C125.737 79.6 139.04 92.7628 139.04 109V109C139.04 125.237 125.737 138.4 109.5 138.4V138.4C93.2629 138.4 79.9601 125.237 79.9601 109V109Z" fill="#201919"/>
</g>
<g filter="url(#filter4_bd_21_328)">
<path d="M86.29 109C86.29 96.2422 96.7423 85.9 109.5 85.9V85.9C122.258 85.9 132.71 96.2422 132.71 109V109C132.71 121.758 122.258 132.1 109.5 132.1V132.1C96.7423 132.1 86.29 121.758 86.29 109V109Z" fill="url(#paint0_linear_21_328)"/>
</g>
<path d="M94.7301 109C94.7301 100.881 101.382 94.3 109.5 94.3V94.3C117.619 94.3 124.27 100.881 124.27 109V109C124.27 117.119 117.619 123.7 109.5 123.7V123.7C101.382 123.7 94.7301 117.119 94.7301 109V109Z" fill="url(#paint1_linear_21_328)"/>
<defs>
<filter id="filter0_d_21_328" x="0.0999999" y="0.0999999" width="219.48" height="218.6" filterUnits="userSpaceOnUse" color-interpolation-filters="sRGB">
<feFlood flood-opacity="0" result="BackgroundImageFix"/>
<feColorMatrix in="SourceAlpha" type="matrix" values="0 0 0 0 0 0 0 0 0 0 0 0 0 0 0 0 0 0 127 0" result="hardAlpha"/>
<feMorphology radius="9" operator="dilate" in="SourceAlpha" result="effect1_dropShadow_21_328"/>
<feOffset/>
<feGaussianBlur stdDeviation="3.95"/>
<feColorMatrix type="matrix" values="0 0 0 0 0 0 0 0 0 0 0 0 0 0 0 0 0 0 0.25 0"/>
<feBlend mode="normal" in2="BackgroundImageFix" result="effect1_dropShadow_21_328"/>
<feBlend mode="normal" in="SourceGraphic" in2="effect1_dropShadow_21_328" result="shape"/>
</filter>
<filter id="filter1_bd_21_328" x="30.7681" y="41.4034" width="157.661" height="137.073" filterUnits="userSpaceOnUse" color-interpolation-filters="sRGB">
<feFlood flood-opacity="0" result="BackgroundImageFix"/>
<feGaussianBlur in="BackgroundImageFix" stdDeviation="3"/>
<feComposite in2="SourceAlpha" operator="in" result="effect1_backgroundBlur_21_328"/>
<feColorMatrix in="SourceAlpha" type="matrix" values="0 0 0 0 0 0 0 0 0 0 0 0 0 0 0 0 0 0 127 0" result="hardAlpha"/>
<feOffset dy="4"/>
<feGaussianBlur stdDeviation="2"/>
<feComposite in2="hardAlpha" operator="out"/>
<feColorMatrix type="matrix" values="0 0 0 0 0 0 0 0 0 0 0 0 0 0 0 0 0 0 0.25 0"/>
<feBlend mode="normal" in2="effect1_backgroundBlur_21_328" result="effect2_dropShadow_21_328"/>
<feBlend mode="normal" in="SourceGraphic" in2="effect2_dropShadow_21_328" result="shape"/>
</filter>
<filter id="filter2_bd_21_328" x="35.6143" y="35.8199" width="147.175" height="148.534" filterUnits="userSpaceOnUse" color-interpolation-filters="sRGB">
<feFlood flood-opacity="0" result="BackgroundImageFix"/>
<feGaussianBlur in="BackgroundImageFix" stdDeviation="3"/>
<feComposite in2="SourceAlpha" operator="in" result="effect1_backgroundBlur_21_328"/>
<feColorMatrix in="SourceAlpha" type="matrix" values="0 0 0 0 0 0 0 0 0 0 0 0 0 0 0 0 0 0 127 0" result="hardAlpha"/>
<feOffset dy="4"/>
<feGaussianBlur stdDeviation="2"/>
<feComposite in2="hardAlpha" operator="out"/>
<feColorMatrix type="matrix" values="0 0 0 0 0 0 0 0 0 0 0 0 0 0 0 0 0 0 0.25 0"/>
<feBlend mode="normal" in2="effect1_backgroundBlur_21_328" result="effect2_dropShadow_21_328"/>
<feBlend mode="normal" in="SourceGraphic" in2="effect2_dropShadow_21_328" result="shape"/>
</filter>
<filter id="filter3_d_21_328" x="75.9601" y="79.6" width="67.08" height="66.8" filterUnits="userSpaceOnUse" color-interpolation-filters="sRGB">
<feFlood flood-opacity="0" result="BackgroundImageFix"/>
<feColorMatrix in="SourceAlpha" type="matrix" values="0 0 0 0 0 0 0 0 0 0 0 0 0 0 0 0 0 0 127 0" result="hardAlpha"/>
<feOffset dy="4"/>
<feGaussianBlur stdDeviation="2"/>
<feComposite in2="hardAlpha" operator="out"/>
<feColorMatrix type="matrix" values="0 0 0 0 0 0 0 0 0 0 0 0 0 0 0 0 0 0 0.25 0"/>
<feBlend mode="normal" in2="BackgroundImageFix" result="effect1_dropShadow_21_328"/>
<feBlend mode="normal" in="SourceGraphic" in2="effect1_dropShadow_21_328" result="shape"/>
</filter>
<filter id="filter4_bd_21_328" x="75.29" y="74.9" width="68.42" height="68.2" filterUnits="userSpaceOnUse" color-interpolation-filters="sRGB">
<feFlood flood-opacity="0" result="BackgroundImageFix"/>
<feGaussianBlur in="BackgroundImageFix" stdDeviation="2"/>
<feComposite in2="SourceAlpha" operator="in" result="effect1_backgroundBlur_21_328"/>
<feColorMatrix in="SourceAlpha" type="matrix" values="0 0 0 0 0 0 0 0 0 0 0 0 0 0 0 0 0 0 127 0" result="hardAlpha"/>
<feMorphology radius="4" operator="dilate" in="SourceAlpha" result="effect2_dropShadow_21_328"/>
<feOffset/>
<feGaussianBlur stdDeviation="3.5"/>
<feComposite in2="hardAlpha" operator="out"/>
<feColorMatrix type="matrix" values="0 0 0 0 0 0 0 0 0 0 0 0 0 0 0 0 0 0 0.25 0"/>
<feBlend mode="normal" in2="effect1_backgroundBlur_21_328" result="effect2_dropShadow_21_328"/>
<feBlend mode="normal" in="SourceGraphic" in2="effect2_dropShadow_21_328" result="shape"/>
</filter>
<linearGradient id="paint0_linear_21_328" x1="109.5" y1="85.9" x2="109.5" y2="132.1" gradientUnits="userSpaceOnUse">
<stop stop-color="#595959"/>
<stop offset="1" stop-color="#BFBFBF"/>
</linearGradient>
<linearGradient id="paint1_linear_21_328" x1="109.5" y1="94.3" x2="109.5" y2="123.7" gradientUnits="userSpaceOnUse">
<stop stop-color="#AAAAAA"/>
<stop offset="1" stop-color="#6E6E6E"/>
</linearGradient>
</defs>
</svg>
