<svg width="211" height="210" viewBox="0 0 211 210" fill="none" xmlns="http://www.w3.org/2000/svg">
<path d="M46 105C46 71.8629 72.8629 45 106 45V45C139.137 45 166 71.8629 166 105V105C166 138.137 139.137 165 106 165V165C72.8629 165 46 138.137 46 105V105Z" fill="#2E2525"/>
<g filter="url(#filter0_d_25_454)">
<path d="M53.2 105C53.2 75.8394 76.8393 52.2 106 52.2V52.2C135.161 52.2 158.8 75.8394 158.8 105V105C158.8 134.161 135.161 157.8 106 157.8V157.8C76.8393 157.8 53.2 134.161 53.2 105V105Z" fill="#3D3535" fill-opacity="0.98"/>
</g>
<g filter="url(#filter1_bd_25_454)">
<rect width="105.12" height="3.6" transform="translate(66.9498 69.8019) rotate(40)" fill="#2E2525"/>
</g>
<g filter="url(#filter2_bd_25_454)">
<rect width="105.12" height="3.6" transform="translate(67.3921 140.942) rotate(-45)" fill="#2E2525"/>
</g>
<g filter="url(#filter3_d_25_454)">
<path d="M89.2 105C89.2 95.7216 96.7216 88.2 106 88.2V88.2C115.278 88.2 122.8 95.7216 122.8 105V105C122.8 114.278 115.278 121.8 106 121.8V121.8C96.7216 121.8 89.2 114.278 89.2 105V105Z" fill="#201919"/>
</g>
<g filter="url(#filter4_bd_25_454)">
<path d="M92.8 105C92.8 97.7098 98.7099 91.8 106 91.8V91.8C113.29 91.8 119.2 97.7098 119.2 105V105C119.2 112.29 113.29 118.2 106 118.2V118.2C98.7099 118.2 92.8 112.29 92.8 105V105Z" fill="url(#paint0_linear_25_454)"/>
</g>
<path d="M97.6 105C97.6 100.361 101.361 96.6 106 96.6V96.6C110.639 96.6 114.4 100.361 114.4 105V105C114.4 109.639 110.639 113.4 106 113.4V113.4C101.361 113.4 97.6 109.639 97.6 105V105Z" fill="url(#paint1_linear_25_454)"/>
<path d="M100.186 150V145.636H101.108V147.56H101.166L102.736 145.636H103.842L102.223 147.59L103.861 150H102.758L101.562 148.206L101.108 148.76V150H100.186ZM106.97 147.047C106.94 146.943 106.898 146.852 106.844 146.772C106.79 146.691 106.724 146.623 106.646 146.567C106.569 146.511 106.481 146.467 106.382 146.438C106.284 146.408 106.175 146.393 106.056 146.393C105.833 146.393 105.637 146.448 105.468 146.559C105.3 146.67 105.17 146.831 105.076 147.043C104.982 147.253 104.935 147.51 104.935 147.814C104.935 148.118 104.981 148.376 105.074 148.589C105.166 148.803 105.297 148.965 105.466 149.077C105.635 149.188 105.834 149.244 106.064 149.244C106.273 149.244 106.452 149.207 106.599 149.133C106.748 149.058 106.862 148.952 106.94 148.815C107.02 148.679 107.059 148.518 107.059 148.332L107.247 148.359H106.122V147.665H107.948V148.214C107.948 148.598 107.867 148.928 107.705 149.203C107.543 149.477 107.32 149.689 107.036 149.838C106.752 149.986 106.427 150.06 106.06 150.06C105.651 150.06 105.292 149.969 104.982 149.789C104.672 149.607 104.431 149.349 104.258 149.016C104.086 148.68 104 148.283 104 147.822C104 147.469 104.051 147.153 104.153 146.876C104.257 146.598 104.402 146.362 104.588 146.169C104.774 145.976 104.991 145.829 105.238 145.728C105.485 145.627 105.753 145.577 106.041 145.577C106.288 145.577 106.518 145.613 106.731 145.685C106.944 145.756 107.133 145.857 107.298 145.988C107.464 146.119 107.6 146.274 107.705 146.455C107.81 146.634 107.878 146.831 107.907 147.047H106.97ZM111.008 146.891C110.991 146.719 110.918 146.586 110.789 146.491C110.659 146.396 110.484 146.348 110.262 146.348C110.112 146.348 109.985 146.369 109.881 146.412C109.777 146.453 109.698 146.511 109.642 146.585C109.588 146.658 109.561 146.742 109.561 146.836C109.559 146.914 109.575 146.982 109.61 147.04C109.647 147.099 109.698 147.149 109.762 147.192C109.826 147.233 109.9 147.269 109.983 147.3C110.067 147.33 110.157 147.356 110.252 147.377L110.644 147.471C110.834 147.513 111.009 147.57 111.168 147.641C111.327 147.712 111.465 147.8 111.581 147.903C111.698 148.007 111.788 148.129 111.852 148.27C111.917 148.411 111.951 148.572 111.952 148.754C111.951 149.021 111.882 149.252 111.748 149.448C111.614 149.643 111.421 149.794 111.168 149.902C110.917 150.009 110.613 150.062 110.258 150.062C109.906 150.062 109.599 150.008 109.338 149.9C109.078 149.792 108.875 149.632 108.728 149.42C108.583 149.207 108.507 148.944 108.5 148.63H109.393C109.403 148.776 109.445 148.898 109.519 148.996C109.594 149.093 109.694 149.166 109.819 149.216C109.946 149.264 110.088 149.288 110.248 149.288C110.404 149.288 110.539 149.266 110.654 149.22C110.771 149.175 110.861 149.112 110.925 149.031C110.989 148.95 111.021 148.857 111.021 148.751C111.021 148.653 110.992 148.571 110.934 148.504C110.877 148.437 110.793 148.381 110.682 148.334C110.573 148.287 110.439 148.244 110.279 148.206L109.804 148.087C109.436 147.997 109.146 147.857 108.933 147.667C108.72 147.477 108.614 147.22 108.615 146.898C108.614 146.634 108.684 146.403 108.826 146.205C108.97 146.008 109.167 145.854 109.417 145.743C109.667 145.632 109.951 145.577 110.269 145.577C110.593 145.577 110.875 145.632 111.117 145.743C111.36 145.854 111.549 146.008 111.684 146.205C111.819 146.403 111.888 146.631 111.892 146.891H111.008Z" fill="white"/>
<path d="M98.2575 62V60.892L100.846 58.495C101.066 58.282 101.251 58.0902 101.4 57.9197C101.552 57.7493 101.667 57.5824 101.745 57.419C101.823 57.2533 101.862 57.0746 101.862 56.8828C101.862 56.6697 101.813 56.4863 101.716 56.3324C101.619 56.1761 101.487 56.0566 101.319 55.9737C101.15 55.8885 100.96 55.8459 100.747 55.8459C100.524 55.8459 100.33 55.8909 100.164 55.9808C99.9987 56.0708 99.8709 56.1998 99.7809 56.3679C99.6909 56.536 99.6459 56.736 99.6459 56.968H98.1864C98.1864 56.4922 98.2942 56.0791 98.5096 55.7287C98.725 55.3783 99.0269 55.1072 99.4151 54.9155C99.8034 54.7237 100.251 54.6278 100.757 54.6278C101.278 54.6278 101.732 54.7202 102.118 54.9048C102.506 55.0871 102.808 55.3404 103.023 55.6648C103.239 55.9891 103.346 56.3608 103.346 56.7798C103.346 57.0545 103.292 57.3255 103.183 57.593C103.076 57.8606 102.886 58.1577 102.611 58.4844C102.337 58.8087 101.949 59.1982 101.45 59.6527L100.388 60.6932V60.7429H103.442V62H98.2575ZM105.455 62.0923C105.22 62.0923 105.019 62.0095 104.851 61.8438C104.685 61.6757 104.602 61.4744 104.602 61.2401C104.602 61.008 104.685 60.8092 104.851 60.6435C105.019 60.4777 105.22 60.3949 105.455 60.3949C105.682 60.3949 105.881 60.4777 106.051 60.6435C106.222 60.8092 106.307 61.008 106.307 61.2401C106.307 61.3963 106.267 61.5395 106.186 61.6697C106.108 61.7976 106.005 61.9006 105.877 61.9787C105.749 62.0545 105.609 62.0923 105.455 62.0923ZM110.132 62.0994C109.631 62.0994 109.183 62.0071 108.79 61.8224C108.4 61.6378 108.089 61.3833 107.86 61.0589C107.63 60.7346 107.511 60.3629 107.501 59.9439H108.993C109.009 60.2256 109.127 60.4541 109.348 60.6293C109.568 60.8045 109.829 60.892 110.132 60.892C110.374 60.892 110.587 60.8388 110.772 60.7322C110.959 60.6233 111.104 60.473 111.208 60.2812C111.315 60.0871 111.368 59.8646 111.368 59.6136C111.368 59.358 111.314 59.133 111.205 58.9389C111.098 58.7448 110.95 58.5933 110.761 58.4844C110.572 58.3755 110.355 58.3198 110.111 58.3175C109.898 58.3175 109.691 58.3613 109.49 58.4489C109.291 58.5365 109.136 58.656 109.025 58.8075L107.657 58.5625L108.002 54.7273H112.448V55.9844H109.27L109.081 57.8061H109.124C109.252 57.6262 109.445 57.477 109.703 57.3587C109.961 57.2403 110.25 57.1811 110.569 57.1811C111.007 57.1811 111.398 57.2841 111.741 57.4901C112.084 57.696 112.355 57.9789 112.554 58.3388C112.753 58.6963 112.851 59.1082 112.849 59.5746C112.851 60.0646 112.738 60.5002 112.508 60.8814C112.281 61.2602 111.962 61.5585 111.553 61.7763C111.146 61.9917 110.672 62.0994 110.132 62.0994Z" fill="white"/>
<path d="M100.1 136.983V144.256H98.5626V138.442H98.52L96.8545 139.487V138.123L98.6549 136.983H100.1ZM102.337 144.348C102.102 144.348 101.901 144.265 101.733 144.099C101.567 143.931 101.484 143.73 101.484 143.496C101.484 143.264 101.567 143.065 101.733 142.899C101.901 142.733 102.102 142.651 102.337 142.651C102.564 142.651 102.763 142.733 102.933 142.899C103.104 143.065 103.189 143.264 103.189 143.496C103.189 143.652 103.149 143.795 103.068 143.925C102.99 144.053 102.887 144.156 102.759 144.234C102.631 144.31 102.49 144.348 102.337 144.348ZM106.672 136.983V144.256H105.135V138.442H105.092L103.427 139.487V138.123L105.227 136.983H106.672ZM111.089 144.355C110.559 144.355 110.087 144.264 109.672 144.082C109.26 143.897 108.935 143.644 108.696 143.322C108.459 142.997 108.337 142.623 108.33 142.2H109.878C109.888 142.377 109.946 142.533 110.052 142.668C110.161 142.801 110.306 142.904 110.486 142.977C110.665 143.051 110.868 143.087 111.093 143.087C111.327 143.087 111.534 143.046 111.714 142.963C111.894 142.88 112.035 142.765 112.137 142.619C112.239 142.472 112.29 142.303 112.29 142.111C112.29 141.917 112.235 141.745 112.126 141.596C112.02 141.444 111.866 141.326 111.665 141.241C111.466 141.156 111.229 141.113 110.954 141.113H110.276V139.984H110.954C111.186 139.984 111.391 139.943 111.569 139.863C111.749 139.782 111.888 139.671 111.988 139.529C112.087 139.385 112.137 139.217 112.137 139.025C112.137 138.843 112.093 138.683 112.005 138.545C111.92 138.406 111.799 138.297 111.643 138.219C111.489 138.141 111.309 138.102 111.103 138.102C110.895 138.102 110.705 138.139 110.532 138.215C110.359 138.289 110.22 138.394 110.116 138.531C110.012 138.669 109.956 138.83 109.949 139.014H108.476C108.483 138.595 108.602 138.226 108.834 137.906C109.066 137.587 109.379 137.337 109.772 137.157C110.167 136.975 110.613 136.884 111.111 136.884C111.612 136.884 112.052 136.975 112.428 137.157C112.804 137.339 113.097 137.585 113.305 137.896C113.516 138.203 113.62 138.549 113.618 138.933C113.62 139.34 113.493 139.679 113.238 139.952C112.984 140.224 112.654 140.397 112.247 140.47V140.527C112.782 140.596 113.189 140.781 113.468 141.085C113.75 141.385 113.89 141.762 113.888 142.214C113.89 142.628 113.77 142.996 113.529 143.318C113.29 143.64 112.959 143.893 112.538 144.078C112.117 144.263 111.634 144.355 111.089 144.355Z" fill="white"/>
<path d="M100.311 70.7045V66.3409H101.102V70.0419H103.024V70.7045H100.311ZM103.71 70.7045V66.3409H105.38C105.695 66.3409 105.958 66.3906 106.166 66.4901C106.377 66.5881 106.534 66.7223 106.637 66.8928C106.742 67.0632 106.795 67.2564 106.795 67.4723C106.795 67.6499 106.761 67.8018 106.693 67.9283C106.624 68.0533 106.533 68.1548 106.418 68.233C106.303 68.3111 106.174 68.3672 106.032 68.4013V68.4439C106.187 68.4524 106.335 68.5 106.477 68.5866C106.621 68.6719 106.738 68.7926 106.829 68.9489C106.92 69.1051 106.965 69.294 106.965 69.5156C106.965 69.7415 106.911 69.9446 106.801 70.125C106.692 70.304 106.527 70.4453 106.307 70.549C106.087 70.6527 105.81 70.7045 105.476 70.7045H103.71ZM104.5 70.044H105.35C105.637 70.044 105.844 69.9893 105.97 69.88C106.098 69.7692 106.162 69.6271 106.162 69.4538C106.162 69.3246 106.13 69.2081 106.066 69.1044C106.002 68.9993 105.911 68.9169 105.793 68.8572C105.676 68.7962 105.535 68.7656 105.372 68.7656H104.5V70.044ZM104.5 68.1967H105.282C105.418 68.1967 105.541 68.1719 105.651 68.1222C105.76 68.071 105.846 67.9993 105.909 67.907C105.972 67.8132 106.004 67.7024 106.004 67.5746C106.004 67.4055 105.945 67.2663 105.825 67.157C105.708 67.0476 105.532 66.9929 105.299 66.9929H104.5V68.1967ZM110.025 67.5405C110.005 67.3544 109.921 67.2095 109.773 67.1058C109.627 67.0021 109.436 66.9503 109.202 66.9503C109.037 66.9503 108.896 66.9751 108.778 67.0249C108.66 67.0746 108.57 67.142 108.507 67.2273C108.445 67.3125 108.413 67.4098 108.412 67.5192C108.412 67.6101 108.432 67.6889 108.473 67.7557C108.516 67.8224 108.574 67.8793 108.646 67.9261C108.718 67.9716 108.799 68.0099 108.887 68.0412C108.975 68.0724 109.064 68.0987 109.153 68.12L109.562 68.2223C109.727 68.2607 109.885 68.3125 110.037 68.3778C110.191 68.4432 110.328 68.5256 110.449 68.625C110.571 68.7244 110.667 68.8445 110.738 68.9851C110.809 69.1257 110.845 69.2905 110.845 69.4794C110.845 69.7351 110.779 69.9602 110.649 70.1548C110.518 70.348 110.329 70.4993 110.082 70.6087C109.836 70.7166 109.539 70.7706 109.189 70.7706C108.85 70.7706 108.555 70.718 108.305 70.6129C108.056 70.5078 107.862 70.3544 107.721 70.1527C107.582 69.951 107.507 69.7053 107.495 69.4155H108.273C108.284 69.5675 108.331 69.6939 108.414 69.7947C108.496 69.8956 108.603 69.9709 108.735 70.0206C108.869 70.0703 109.018 70.0952 109.183 70.0952C109.355 70.0952 109.505 70.0696 109.635 70.0185C109.765 69.9659 109.868 69.8935 109.941 69.8011C110.015 69.7074 110.053 69.598 110.054 69.473C110.053 69.3594 110.02 69.2656 109.954 69.1918C109.889 69.1165 109.797 69.054 109.679 69.0043C109.563 68.9531 109.426 68.9077 109.27 68.8679L108.774 68.7401C108.414 68.6477 108.13 68.5078 107.922 68.3203C107.714 68.1314 107.61 67.8807 107.61 67.5682C107.61 67.3111 107.68 67.0859 107.819 66.8928C107.96 66.6996 108.151 66.5497 108.392 66.4432C108.634 66.3352 108.907 66.2812 109.213 66.2812C109.522 66.2812 109.794 66.3352 110.027 66.4432C110.261 66.5497 110.445 66.6982 110.578 66.8885C110.712 67.0774 110.781 67.2947 110.785 67.5405H110.025Z" fill="white"/>
<g filter="url(#filter5_d_25_454)">
<path d="M76 105.4C76 89.1628 89.3028 76 105.54 76V76C121.777 76 135.08 89.1628 135.08 105.4V105.4C135.08 121.637 121.777 134.8 105.54 134.8V134.8C89.3028 134.8 76 121.637 76 105.4V105.4Z" fill="#201919"/>
</g>
<g filter="url(#filter6_bd_25_454)">
<path d="M82.33 105.4C82.33 92.6422 92.7822 82.3 105.54 82.3V82.3C118.298 82.3 128.75 92.6422 128.75 105.4V105.4C128.75 118.158 118.298 128.5 105.54 128.5V128.5C92.7822 128.5 82.33 118.158 82.33 105.4V105.4Z" fill="url(#paint2_linear_25_454)"/>
</g>
<path d="M90.77 105.4C90.77 97.2814 97.4214 90.7 105.54 90.7V90.7C113.659 90.7 120.31 97.2814 120.31 105.4V105.4C120.31 113.519 113.659 120.1 105.54 120.1V120.1C97.4214 120.1 90.77 113.519 90.77 105.4V105.4Z" fill="url(#paint3_linear_25_454)"/>
<defs>
<filter id="filter0_d_25_454" x="36.3" y="35.3" width="139.4" height="139.4" filterUnits="userSpaceOnUse" color-interpolation-filters="sRGB">
<feFlood flood-opacity="0" result="BackgroundImageFix"/>
<feColorMatrix in="SourceAlpha" type="matrix" values="0 0 0 0 0 0 0 0 0 0 0 0 0 0 0 0 0 0 127 0" result="hardAlpha"/>
<feMorphology radius="9" operator="dilate" in="SourceAlpha" result="effect1_dropShadow_25_454"/>
<feOffset/>
<feGaussianBlur stdDeviation="3.95"/>
<feColorMatrix type="matrix" values="0 0 0 0 0 0 0 0 0 0 0 0 0 0 0 0 0 0 0.25 0"/>
<feBlend mode="normal" in2="BackgroundImageFix" result="effect1_dropShadow_25_454"/>
<feBlend mode="normal" in="SourceGraphic" in2="effect1_dropShadow_25_454" result="shape"/>
</filter>
<filter id="filter1_bd_25_454" x="58.6357" y="63.8019" width="94.8407" height="84.3276" filterUnits="userSpaceOnUse" color-interpolation-filters="sRGB">
<feFlood flood-opacity="0" result="BackgroundImageFix"/>
<feGaussianBlur in="BackgroundImageFix" stdDeviation="3"/>
<feComposite in2="SourceAlpha" operator="in" result="effect1_backgroundBlur_25_454"/>
<feColorMatrix in="SourceAlpha" type="matrix" values="0 0 0 0 0 0 0 0 0 0 0 0 0 0 0 0 0 0 127 0" result="hardAlpha"/>
<feOffset dy="4"/>
<feGaussianBlur stdDeviation="2"/>
<feComposite in2="hardAlpha" operator="out"/>
<feColorMatrix type="matrix" values="0 0 0 0 0 0 0 0 0 0 0 0 0 0 0 0 0 0 0.25 0"/>
<feBlend mode="normal" in2="effect1_backgroundBlur_25_454" result="effect2_dropShadow_25_454"/>
<feBlend mode="normal" in="SourceGraphic" in2="effect2_dropShadow_25_454" result="shape"/>
</filter>
<filter id="filter2_bd_25_454" x="61.3921" y="60.6114" width="88.8767" height="90.8766" filterUnits="userSpaceOnUse" color-interpolation-filters="sRGB">
<feFlood flood-opacity="0" result="BackgroundImageFix"/>
<feGaussianBlur in="BackgroundImageFix" stdDeviation="3"/>
<feComposite in2="SourceAlpha" operator="in" result="effect1_backgroundBlur_25_454"/>
<feColorMatrix in="SourceAlpha" type="matrix" values="0 0 0 0 0 0 0 0 0 0 0 0 0 0 0 0 0 0 127 0" result="hardAlpha"/>
<feOffset dy="4"/>
<feGaussianBlur stdDeviation="2"/>
<feComposite in2="hardAlpha" operator="out"/>
<feColorMatrix type="matrix" values="0 0 0 0 0 0 0 0 0 0 0 0 0 0 0 0 0 0 0.25 0"/>
<feBlend mode="normal" in2="effect1_backgroundBlur_25_454" result="effect2_dropShadow_25_454"/>
<feBlend mode="normal" in="SourceGraphic" in2="effect2_dropShadow_25_454" result="shape"/>
</filter>
<filter id="filter3_d_25_454" x="85.2" y="88.2" width="41.6" height="41.6" filterUnits="userSpaceOnUse" color-interpolation-filters="sRGB">
<feFlood flood-opacity="0" result="BackgroundImageFix"/>
<feColorMatrix in="SourceAlpha" type="matrix" values="0 0 0 0 0 0 0 0 0 0 0 0 0 0 0 0 0 0 127 0" result="hardAlpha"/>
<feOffset dy="4"/>
<feGaussianBlur stdDeviation="2"/>
<feComposite in2="hardAlpha" operator="out"/>
<feColorMatrix type="matrix" values="0 0 0 0 0 0 0 0 0 0 0 0 0 0 0 0 0 0 0.25 0"/>
<feBlend mode="normal" in2="BackgroundImageFix" result="effect1_dropShadow_25_454"/>
<feBlend mode="normal" in="SourceGraphic" in2="effect1_dropShadow_25_454" result="shape"/>
</filter>
<filter id="filter4_bd_25_454" x="81.8" y="80.8" width="48.4" height="48.4" filterUnits="userSpaceOnUse" color-interpolation-filters="sRGB">
<feFlood flood-opacity="0" result="BackgroundImageFix"/>
<feGaussianBlur in="BackgroundImageFix" stdDeviation="2"/>
<feComposite in2="SourceAlpha" operator="in" result="effect1_backgroundBlur_25_454"/>
<feColorMatrix in="SourceAlpha" type="matrix" values="0 0 0 0 0 0 0 0 0 0 0 0 0 0 0 0 0 0 127 0" result="hardAlpha"/>
<feMorphology radius="4" operator="dilate" in="SourceAlpha" result="effect2_dropShadow_25_454"/>
<feOffset/>
<feGaussianBlur stdDeviation="3.5"/>
<feComposite in2="hardAlpha" operator="out"/>
<feColorMatrix type="matrix" values="0 0 0 0 0 0 0 0 0 0 0 0 0 0 0 0 0 0 0.25 0"/>
<feBlend mode="normal" in2="effect1_backgroundBlur_25_454" result="effect2_dropShadow_25_454"/>
<feBlend mode="normal" in="SourceGraphic" in2="effect2_dropShadow_25_454" result="shape"/>
</filter>
<filter id="filter5_d_25_454" x="72" y="76" width="67.08" height="66.8" filterUnits="userSpaceOnUse" color-interpolation-filters="sRGB">
<feFlood flood-opacity="0" result="BackgroundImageFix"/>
<feColorMatrix in="SourceAlpha" type="matrix" values="0 0 0 0 0 0 0 0 0 0 0 0 0 0 0 0 0 0 127 0" result="hardAlpha"/>
<feOffset dy="4"/>
<feGaussianBlur stdDeviation="2"/>
<feComposite in2="hardAlpha" operator="out"/>
<feColorMatrix type="matrix" values="0 0 0 0 0 0 0 0 0 0 0 0 0 0 0 0 0 0 0.25 0"/>
<feBlend mode="normal" in2="BackgroundImageFix" result="effect1_dropShadow_25_454"/>
<feBlend mode="normal" in="SourceGraphic" in2="effect1_dropShadow_25_454" result="shape"/>
</filter>
<filter id="filter6_bd_25_454" x="71.33" y="71.3" width="68.42" height="68.2" filterUnits="userSpaceOnUse" color-interpolation-filters="sRGB">
<feFlood flood-opacity="0" result="BackgroundImageFix"/>
<feGaussianBlur in="BackgroundImageFix" stdDeviation="2"/>
<feComposite in2="SourceAlpha" operator="in" result="effect1_backgroundBlur_25_454"/>
<feColorMatrix in="SourceAlpha" type="matrix" values="0 0 0 0 0 0 0 0 0 0 0 0 0 0 0 0 0 0 127 0" result="hardAlpha"/>
<feMorphology radius="4" operator="dilate" in="SourceAlpha" result="effect2_dropShadow_25_454"/>
<feOffset/>
<feGaussianBlur stdDeviation="3.5"/>
<feComposite in2="hardAlpha" operator="out"/>
<feColorMatrix type="matrix" values="0 0 0 0 0 0 0 0 0 0 0 0 0 0 0 0 0 0 0.25 0"/>
<feBlend mode="normal" in2="effect1_backgroundBlur_25_454" result="effect2_dropShadow_25_454"/>
<feBlend mode="normal" in="SourceGraphic" in2="effect2_dropShadow_25_454" result="shape"/>
</filter>
<linearGradient id="paint0_linear_25_454" x1="106" y1="91.8" x2="106" y2="118.2" gradientUnits="userSpaceOnUse">
<stop stop-color="#595959"/>
<stop offset="1" stop-color="#BFBFBF"/>
</linearGradient>
<linearGradient id="paint1_linear_25_454" x1="106" y1="96.6" x2="106" y2="113.4" gradientUnits="userSpaceOnUse">
<stop stop-color="#AAAAAA"/>
<stop offset="1" stop-color="#6E6E6E"/>
</linearGradient>
<linearGradient id="paint2_linear_25_454" x1="105.54" y1="82.3" x2="105.54" y2="128.5" gradientUnits="userSpaceOnUse">
<stop stop-color="#595959"/>
<stop offset="1" stop-color="#BFBFBF"/>
</linearGradient>
<linearGradient id="paint3_linear_25_454" x1="105.54" y1="90.7" x2="105.54" y2="120.1" gradientUnits="userSpaceOnUse">
<stop stop-color="#AAAAAA"/>
<stop offset="1" stop-color="#6E6E6E"/>
</linearGradient>
</defs>
</svg>
