<svg width="220" height="219" viewBox="0 0 220 219" fill="none" xmlns="http://www.w3.org/2000/svg">
<path d="M4 109C4 51.0101 51.5101 4 109.5 4V4C167.49 4 215 51.0101 215 109V109C215 166.99 167.49 214 109.5 214V214C51.5101 214 4 166.99 4 109V109Z" fill="#2E2525"/>
<g filter="url(#filter0_d_21_186)">
<path d="M17 109.4C17 58.3689 58.8089 17 109.84 17V17C160.871 17 202.68 58.3689 202.68 109.4V109.4C202.68 160.431 160.871 201.8 109.84 201.8V201.8C58.8089 201.8 17 160.431 17 109.4V109.4Z" fill="#3D3535" fill-opacity="0.98"/>
<path d="M103.018 49.1989C101.958 49.1989 101.013 49.0166 100.184 48.652C99.3606 48.2827 98.7096 47.776 98.2314 47.1321C97.7579 46.4834 97.514 45.7353 97.4998 44.8878H100.596C100.615 45.2429 100.731 45.5554 100.944 45.8253C101.162 46.0904 101.451 46.2964 101.811 46.4432C102.171 46.59 102.576 46.6634 103.025 46.6634C103.494 46.6634 103.908 46.5805 104.268 46.4148C104.628 46.2491 104.91 46.0194 105.113 45.7259C105.317 45.4323 105.419 45.0937 105.419 44.7102C105.419 44.322 105.31 43.9787 105.092 43.6804C104.879 43.3774 104.571 43.1406 104.169 42.9702C103.771 42.7997 103.298 42.7145 102.748 42.7145H101.392V40.456H102.748C103.212 40.456 103.622 40.3755 103.977 40.2145C104.337 40.0535 104.616 39.831 104.815 39.5469C105.014 39.258 105.113 38.9219 105.113 38.5384C105.113 38.1738 105.026 37.8542 104.851 37.5795C104.68 37.3002 104.439 37.0824 104.126 36.9261C103.818 36.7699 103.459 36.6918 103.047 36.6918C102.63 36.6918 102.249 36.7675 101.903 36.919C101.558 37.0658 101.281 37.2765 101.072 37.5511C100.864 37.8258 100.753 38.1477 100.738 38.517H97.791C97.8052 37.679 98.0443 36.9403 98.5083 36.3011C98.9724 35.6619 99.5974 35.1624 100.383 34.8026C101.174 34.438 102.067 34.2557 103.061 34.2557C104.065 34.2557 104.943 34.438 105.696 34.8026C106.449 35.1671 107.033 35.6596 107.45 36.2798C107.872 36.8954 108.08 37.5866 108.075 38.3537C108.08 39.1681 107.827 39.8475 107.315 40.392C106.809 40.9366 106.148 41.2822 105.334 41.429V41.5426C106.404 41.6799 107.218 42.0516 107.777 42.6577C108.34 43.259 108.62 44.0118 108.615 44.9162C108.62 45.7448 108.381 46.4811 107.898 47.125C107.419 47.7689 106.759 48.2756 105.916 48.6449C105.073 49.0142 104.107 49.1989 103.018 49.1989ZM116.138 49.1989C115.134 49.1989 114.239 49.0142 113.453 48.6449C112.672 48.2756 112.052 47.7666 111.593 47.1179C111.133 46.4692 110.894 45.7259 110.875 44.8878H113.858C113.891 45.4512 114.128 45.9081 114.568 46.2585C115.009 46.6089 115.532 46.7841 116.138 46.7841C116.621 46.7841 117.047 46.6776 117.416 46.4645C117.79 46.2467 118.082 45.946 118.29 45.5625C118.503 45.1742 118.61 44.7292 118.61 44.2273C118.61 43.7159 118.501 43.2661 118.283 42.8778C118.07 42.4896 117.774 42.1866 117.395 41.9688C117.016 41.7509 116.583 41.6397 116.095 41.6349C115.669 41.6349 115.255 41.7225 114.852 41.8977C114.455 42.0729 114.145 42.312 113.922 42.6151L111.188 42.125L111.877 34.4545H120.769V36.9688H114.412L114.036 40.6122H114.121C114.377 40.2524 114.762 39.9541 115.279 39.7173C115.795 39.4806 116.372 39.3622 117.012 39.3622C117.887 39.3622 118.669 39.5682 119.355 39.9801C120.042 40.392 120.584 40.9579 120.982 41.6776C121.379 42.3925 121.576 43.2164 121.571 44.1491C121.576 45.1293 121.349 46.0005 120.889 46.7628C120.435 47.5204 119.798 48.117 118.979 48.5526C118.164 48.9834 117.218 49.1989 116.138 49.1989Z" fill="white"/>
<path d="M95.9602 152.455V167H92.8849V155.374H92.7997L89.4688 157.462V154.734L93.0696 152.455H95.9602ZM104.73 167.199C103.726 167.199 102.831 167.014 102.045 166.645C101.264 166.276 100.644 165.767 100.184 165.118C99.725 164.469 99.4859 163.726 99.467 162.888H102.45C102.483 163.451 102.72 163.908 103.16 164.259C103.6 164.609 104.124 164.784 104.73 164.784C105.213 164.784 105.639 164.678 106.008 164.464C106.382 164.247 106.673 163.946 106.882 163.562C107.095 163.174 107.201 162.729 107.201 162.227C107.201 161.716 107.092 161.266 106.875 160.878C106.662 160.49 106.366 160.187 105.987 159.969C105.608 159.751 105.175 159.64 104.687 159.635C104.261 159.635 103.847 159.723 103.444 159.898C103.047 160.073 102.736 160.312 102.514 160.615L99.7795 160.125L100.468 152.455H109.36V154.969H103.004L102.627 158.612H102.713C102.968 158.252 103.354 157.954 103.87 157.717C104.386 157.481 104.964 157.362 105.603 157.362C106.479 157.362 107.261 157.568 107.947 157.98C108.634 158.392 109.176 158.958 109.574 159.678C109.971 160.393 110.168 161.216 110.163 162.149C110.168 163.129 109.94 164 109.481 164.763C109.027 165.52 108.39 166.117 107.571 166.553C106.756 166.983 105.809 167.199 104.73 167.199ZM113.636 167.185C113.167 167.185 112.765 167.019 112.429 166.688C112.097 166.351 111.931 165.949 111.931 165.48C111.931 165.016 112.097 164.618 112.429 164.287C112.765 163.955 113.167 163.79 113.636 163.79C114.091 163.79 114.488 163.955 114.829 164.287C115.17 164.618 115.341 165.016 115.341 165.48C115.341 165.793 115.26 166.079 115.099 166.339C114.943 166.595 114.737 166.801 114.481 166.957C114.225 167.109 113.944 167.185 113.636 167.185ZM122.786 152.256C123.534 152.256 124.253 152.381 124.945 152.632C125.641 152.883 126.261 153.283 126.805 153.832C127.355 154.382 127.788 155.111 128.105 156.02C128.427 156.924 128.59 158.035 128.595 159.351C128.595 160.587 128.455 161.69 128.176 162.661C127.902 163.626 127.506 164.448 126.99 165.125C126.474 165.802 125.851 166.318 125.122 166.673C124.393 167.024 123.579 167.199 122.679 167.199C121.708 167.199 120.851 167.012 120.108 166.638C119.365 166.259 118.766 165.745 118.311 165.097C117.861 164.443 117.589 163.709 117.494 162.895H120.527C120.645 163.425 120.894 163.837 121.273 164.131C121.652 164.42 122.12 164.564 122.679 164.564C123.626 164.564 124.346 164.152 124.838 163.328C125.33 162.5 125.579 161.366 125.584 159.926H125.484C125.267 160.352 124.973 160.719 124.604 161.027C124.234 161.33 123.811 161.564 123.332 161.73C122.859 161.896 122.355 161.979 121.82 161.979C120.963 161.979 120.198 161.777 119.526 161.375C118.853 160.973 118.323 160.419 117.935 159.713C117.546 159.008 117.352 158.203 117.352 157.298C117.348 156.323 117.572 155.454 118.027 154.692C118.482 153.929 119.116 153.333 119.93 152.902C120.75 152.466 121.701 152.251 122.786 152.256ZM122.807 154.67C122.329 154.67 121.902 154.784 121.528 155.011C121.159 155.239 120.866 155.544 120.648 155.928C120.435 156.311 120.33 156.74 120.335 157.213C120.335 157.691 120.439 158.122 120.648 158.506C120.861 158.884 121.15 159.187 121.514 159.415C121.884 159.637 122.305 159.749 122.778 159.749C123.134 159.749 123.463 159.682 123.766 159.55C124.069 159.417 124.331 159.235 124.554 159.003C124.781 158.766 124.959 158.494 125.087 158.186C125.214 157.878 125.278 157.552 125.278 157.206C125.274 156.747 125.165 156.325 124.952 155.942C124.739 155.558 124.445 155.25 124.071 155.018C123.697 154.786 123.276 154.67 122.807 154.67Z" fill="white"/>
<path d="M96.3197 68V57.0909H98.6262V66.0984H103.303V68H96.3197ZM104.83 68V57.0909H109.198C110.001 57.0909 110.67 57.2099 111.207 57.4478C111.743 57.6857 112.146 58.016 112.416 58.4386C112.686 58.8576 112.821 59.3406 112.821 59.8874C112.821 60.3136 112.735 60.6882 112.565 61.0114C112.394 61.331 112.16 61.5937 111.862 61.7997C111.567 62.0021 111.23 62.146 110.85 62.2312V62.3377C111.265 62.3555 111.654 62.4727 112.016 62.6893C112.382 62.9059 112.678 63.2095 112.906 63.6001C113.133 63.9872 113.247 64.4489 113.247 64.9851C113.247 65.5639 113.103 66.0806 112.815 66.5352C112.531 66.9862 112.11 67.343 111.553 67.6058C110.995 67.8686 110.308 68 109.491 68H104.83ZM107.137 66.1143H109.017C109.66 66.1143 110.129 65.9918 110.424 65.7468C110.718 65.4982 110.866 65.168 110.866 64.756C110.866 64.4542 110.793 64.1879 110.647 63.957C110.502 63.7262 110.294 63.5451 110.024 63.4137C109.758 63.2823 109.44 63.2166 109.071 63.2166H107.137V66.1143ZM107.137 61.6559H108.847C109.163 61.6559 109.443 61.6009 109.688 61.4908C109.937 61.3771 110.132 61.2173 110.274 61.0114C110.42 60.8054 110.493 60.5586 110.493 60.271C110.493 59.8768 110.352 59.5589 110.072 59.3175C109.795 59.076 109.401 58.9553 108.889 58.9553H107.137V61.6559ZM120.665 60.2283C120.623 59.7987 120.44 59.4648 120.117 59.2269C119.794 58.989 119.355 58.87 118.801 58.87C118.425 58.87 118.107 58.9233 117.848 59.0298C117.588 59.1328 117.39 59.2766 117.251 59.4613C117.116 59.646 117.049 59.8555 117.049 60.0898C117.042 60.2852 117.082 60.4556 117.171 60.6012C117.263 60.7468 117.39 60.8729 117.549 60.9794C117.709 61.0824 117.894 61.1729 118.103 61.2511C118.313 61.3256 118.537 61.3896 118.774 61.4428L119.755 61.6772C120.23 61.7837 120.667 61.9258 121.065 62.1033C121.463 62.2809 121.807 62.4993 122.098 62.7585C122.39 63.0178 122.615 63.3232 122.775 63.6747C122.938 64.0263 123.022 64.4293 123.025 64.8839C123.022 65.5515 122.851 66.1303 122.514 66.6204C122.18 67.1069 121.697 67.4851 121.065 67.755C120.436 68.0213 119.678 68.1545 118.79 68.1545C117.91 68.1545 117.143 68.0195 116.489 67.7496C115.839 67.4798 115.332 67.0803 114.966 66.5511C114.604 66.0185 114.414 65.3597 114.396 64.5749H116.628C116.653 64.9407 116.757 65.2461 116.942 65.4911C117.13 65.7326 117.381 65.9155 117.693 66.0398C118.009 66.1605 118.366 66.2209 118.764 66.2209C119.154 66.2209 119.494 66.1641 119.781 66.0504C120.072 65.9368 120.298 65.7788 120.458 65.5763C120.617 65.3739 120.697 65.1413 120.697 64.8786C120.697 64.6335 120.625 64.4276 120.479 64.2607C120.337 64.0937 120.127 63.9517 119.85 63.8345C119.577 63.7173 119.241 63.6108 118.844 63.5149L117.656 63.2166C116.736 62.9929 116.01 62.6431 115.477 62.1673C114.945 61.6914 114.68 61.0504 114.684 60.2443C114.68 59.5838 114.856 59.0067 115.211 58.5131C115.57 58.0195 116.061 57.6342 116.686 57.3572C117.311 57.0803 118.022 56.9418 118.817 56.9418C119.627 56.9418 120.333 57.0803 120.937 57.3572C121.544 57.6342 122.017 58.0195 122.354 58.5131C122.691 59.0067 122.865 59.5785 122.876 60.2283H120.665Z" fill="white"/>
<path d="M94.9648 186V175.091H97.2712V179.901H97.415L101.341 175.091H104.105L100.057 179.975L104.153 186H101.394L98.4058 181.515L97.2712 182.9V186H94.9648ZM111.925 178.617C111.85 178.358 111.746 178.129 111.611 177.93C111.476 177.728 111.311 177.557 111.115 177.419C110.924 177.277 110.703 177.168 110.455 177.094C110.21 177.019 109.938 176.982 109.64 176.982C109.082 176.982 108.592 177.12 108.17 177.397C107.751 177.674 107.424 178.077 107.19 178.607C106.955 179.132 106.838 179.775 106.838 180.535C106.838 181.295 106.953 181.941 107.184 182.474C107.415 183.006 107.742 183.413 108.164 183.694C108.587 183.971 109.086 184.109 109.661 184.109C110.183 184.109 110.629 184.017 110.998 183.832C111.371 183.644 111.655 183.379 111.85 183.038C112.049 182.697 112.149 182.294 112.149 181.829L112.617 181.898H109.805V180.162H114.37V181.536C114.37 182.495 114.168 183.319 113.763 184.008C113.358 184.693 112.8 185.222 112.09 185.595C111.38 185.964 110.567 186.149 109.65 186.149C108.628 186.149 107.729 185.924 106.955 185.473C106.181 185.018 105.577 184.374 105.144 183.539C104.714 182.701 104.5 181.707 104.5 180.556C104.5 179.672 104.627 178.884 104.883 178.191C105.142 177.495 105.505 176.906 105.97 176.423C106.435 175.94 106.976 175.572 107.594 175.32C108.212 175.068 108.882 174.942 109.603 174.942C110.22 174.942 110.796 175.032 111.328 175.213C111.861 175.391 112.333 175.643 112.745 175.97C113.161 176.297 113.5 176.685 113.763 177.136C114.025 177.584 114.194 178.077 114.269 178.617H111.925ZM122.02 178.228C121.978 177.799 121.795 177.465 121.472 177.227C121.149 176.989 120.71 176.87 120.156 176.87C119.78 176.87 119.462 176.923 119.203 177.03C118.943 177.133 118.744 177.277 118.606 177.461C118.471 177.646 118.404 177.855 118.404 178.09C118.396 178.285 118.437 178.456 118.526 178.601C118.618 178.747 118.744 178.873 118.904 178.979C119.064 179.082 119.249 179.173 119.458 179.251C119.668 179.326 119.892 179.39 120.129 179.443L121.11 179.677C121.585 179.784 122.022 179.926 122.42 180.103C122.818 180.281 123.162 180.499 123.453 180.759C123.744 181.018 123.97 181.323 124.13 181.675C124.293 182.026 124.377 182.429 124.38 182.884C124.377 183.551 124.206 184.13 123.869 184.62C123.535 185.107 123.052 185.485 122.42 185.755C121.791 186.021 121.033 186.154 120.145 186.154C119.265 186.154 118.498 186.02 117.844 185.75C117.194 185.48 116.687 185.08 116.321 184.551C115.959 184.018 115.769 183.36 115.751 182.575H117.983C118.008 182.941 118.112 183.246 118.297 183.491C118.485 183.733 118.736 183.915 119.048 184.04C119.364 184.161 119.721 184.221 120.119 184.221C120.509 184.221 120.849 184.164 121.136 184.05C121.427 183.937 121.653 183.779 121.813 183.576C121.972 183.374 122.052 183.141 122.052 182.879C122.052 182.634 121.98 182.428 121.834 182.261C121.692 182.094 121.482 181.952 121.205 181.835C120.932 181.717 120.596 181.611 120.199 181.515L119.011 181.217C118.091 180.993 117.365 180.643 116.832 180.167C116.3 179.691 116.035 179.05 116.039 178.244C116.035 177.584 116.211 177.007 116.566 176.513C116.925 176.02 117.416 175.634 118.041 175.357C118.666 175.08 119.377 174.942 120.172 174.942C120.982 174.942 121.688 175.08 122.292 175.357C122.899 175.634 123.372 176.02 123.709 176.513C124.046 177.007 124.22 177.578 124.231 178.228H122.02Z" fill="white"/>
</g>
<g filter="url(#filter1_bd_21_186)">
<rect width="184.475" height="6.31241" transform="matrix(0.767545 0.640995 -0.644579 0.764538 40.8369 47.4034)" fill="#2E2525"/>
</g>
<g filter="url(#filter2_bd_21_186)">
<rect width="184.398" height="6.31502" transform="matrix(0.708784 -0.705425 0.708784 0.705425 41.6143 171.899)" fill="#2E2525"/>
</g>
<g filter="url(#filter3_d_21_186)">
<path d="M79.96 109C79.96 92.7628 93.2629 79.6 109.5 79.6V79.6C125.737 79.6 139.04 92.7628 139.04 109V109C139.04 125.237 125.737 138.4 109.5 138.4V138.4C93.2629 138.4 79.96 125.237 79.96 109V109Z" fill="#201919"/>
</g>
<g filter="url(#filter4_bd_21_186)">
<path d="M86.29 109C86.29 96.2422 96.7422 85.9 109.5 85.9V85.9C122.258 85.9 132.71 96.2422 132.71 109V109C132.71 121.758 122.258 132.1 109.5 132.1V132.1C96.7422 132.1 86.29 121.758 86.29 109V109Z" fill="url(#paint0_linear_21_186)"/>
</g>
<path d="M94.73 109C94.73 100.881 101.381 94.3 109.5 94.3V94.3C117.619 94.3 124.27 100.881 124.27 109V109C124.27 117.119 117.619 123.7 109.5 123.7V123.7C101.381 123.7 94.73 117.119 94.73 109V109Z" fill="url(#paint1_linear_21_186)"/>
<defs>
<filter id="filter0_d_21_186" x="0.0999999" y="0.0999999" width="219.48" height="218.6" filterUnits="userSpaceOnUse" color-interpolation-filters="sRGB">
<feFlood flood-opacity="0" result="BackgroundImageFix"/>
<feColorMatrix in="SourceAlpha" type="matrix" values="0 0 0 0 0 0 0 0 0 0 0 0 0 0 0 0 0 0 127 0" result="hardAlpha"/>
<feMorphology radius="9" operator="dilate" in="SourceAlpha" result="effect1_dropShadow_21_186"/>
<feOffset/>
<feGaussianBlur stdDeviation="3.95"/>
<feColorMatrix type="matrix" values="0 0 0 0 0 0 0 0 0 0 0 0 0 0 0 0 0 0 0.25 0"/>
<feBlend mode="normal" in2="BackgroundImageFix" result="effect1_dropShadow_21_186"/>
<feBlend mode="normal" in="SourceGraphic" in2="effect1_dropShadow_21_186" result="shape"/>
</filter>
<filter id="filter1_bd_21_186" x="30.768" y="41.4034" width="157.661" height="137.073" filterUnits="userSpaceOnUse" color-interpolation-filters="sRGB">
<feFlood flood-opacity="0" result="BackgroundImageFix"/>
<feGaussianBlur in="BackgroundImageFix" stdDeviation="3"/>
<feComposite in2="SourceAlpha" operator="in" result="effect1_backgroundBlur_21_186"/>
<feColorMatrix in="SourceAlpha" type="matrix" values="0 0 0 0 0 0 0 0 0 0 0 0 0 0 0 0 0 0 127 0" result="hardAlpha"/>
<feOffset dy="4"/>
<feGaussianBlur stdDeviation="2"/>
<feComposite in2="hardAlpha" operator="out"/>
<feColorMatrix type="matrix" values="0 0 0 0 0 0 0 0 0 0 0 0 0 0 0 0 0 0 0.25 0"/>
<feBlend mode="normal" in2="effect1_backgroundBlur_21_186" result="effect2_dropShadow_21_186"/>
<feBlend mode="normal" in="SourceGraphic" in2="effect2_dropShadow_21_186" result="shape"/>
</filter>
<filter id="filter2_bd_21_186" x="35.6143" y="35.8199" width="147.175" height="148.534" filterUnits="userSpaceOnUse" color-interpolation-filters="sRGB">
<feFlood flood-opacity="0" result="BackgroundImageFix"/>
<feGaussianBlur in="BackgroundImageFix" stdDeviation="3"/>
<feComposite in2="SourceAlpha" operator="in" result="effect1_backgroundBlur_21_186"/>
<feColorMatrix in="SourceAlpha" type="matrix" values="0 0 0 0 0 0 0 0 0 0 0 0 0 0 0 0 0 0 127 0" result="hardAlpha"/>
<feOffset dy="4"/>
<feGaussianBlur stdDeviation="2"/>
<feComposite in2="hardAlpha" operator="out"/>
<feColorMatrix type="matrix" values="0 0 0 0 0 0 0 0 0 0 0 0 0 0 0 0 0 0 0.25 0"/>
<feBlend mode="normal" in2="effect1_backgroundBlur_21_186" result="effect2_dropShadow_21_186"/>
<feBlend mode="normal" in="SourceGraphic" in2="effect2_dropShadow_21_186" result="shape"/>
</filter>
<filter id="filter3_d_21_186" x="75.96" y="79.6" width="67.08" height="66.8" filterUnits="userSpaceOnUse" color-interpolation-filters="sRGB">
<feFlood flood-opacity="0" result="BackgroundImageFix"/>
<feColorMatrix in="SourceAlpha" type="matrix" values="0 0 0 0 0 0 0 0 0 0 0 0 0 0 0 0 0 0 127 0" result="hardAlpha"/>
<feOffset dy="4"/>
<feGaussianBlur stdDeviation="2"/>
<feComposite in2="hardAlpha" operator="out"/>
<feColorMatrix type="matrix" values="0 0 0 0 0 0 0 0 0 0 0 0 0 0 0 0 0 0 0.25 0"/>
<feBlend mode="normal" in2="BackgroundImageFix" result="effect1_dropShadow_21_186"/>
<feBlend mode="normal" in="SourceGraphic" in2="effect1_dropShadow_21_186" result="shape"/>
</filter>
<filter id="filter4_bd_21_186" x="75.29" y="74.9" width="68.42" height="68.2" filterUnits="userSpaceOnUse" color-interpolation-filters="sRGB">
<feFlood flood-opacity="0" result="BackgroundImageFix"/>
<feGaussianBlur in="BackgroundImageFix" stdDeviation="2"/>
<feComposite in2="SourceAlpha" operator="in" result="effect1_backgroundBlur_21_186"/>
<feColorMatrix in="SourceAlpha" type="matrix" values="0 0 0 0 0 0 0 0 0 0 0 0 0 0 0 0 0 0 127 0" result="hardAlpha"/>
<feMorphology radius="4" operator="dilate" in="SourceAlpha" result="effect2_dropShadow_21_186"/>
<feOffset/>
<feGaussianBlur stdDeviation="3.5"/>
<feComposite in2="hardAlpha" operator="out"/>
<feColorMatrix type="matrix" values="0 0 0 0 0 0 0 0 0 0 0 0 0 0 0 0 0 0 0.25 0"/>
<feBlend mode="normal" in2="effect1_backgroundBlur_21_186" result="effect2_dropShadow_21_186"/>
<feBlend mode="normal" in="SourceGraphic" in2="effect2_dropShadow_21_186" result="shape"/>
</filter>
<linearGradient id="paint0_linear_21_186" x1="109.5" y1="85.9" x2="109.5" y2="132.1" gradientUnits="userSpaceOnUse">
<stop stop-color="#595959"/>
<stop offset="1" stop-color="#BFBFBF"/>
</linearGradient>
<linearGradient id="paint1_linear_21_186" x1="109.5" y1="94.3" x2="109.5" y2="123.7" gradientUnits="userSpaceOnUse">
<stop stop-color="#AAAAAA"/>
<stop offset="1" stop-color="#6E6E6E"/>
</linearGradient>
</defs>
</svg>
