<svg width="211" height="210" viewBox="0 0 211 210" fill="none" xmlns="http://www.w3.org/2000/svg">
<path d="M0 105C0 47.0101 47.5101 0 105.5 0V0C163.49 0 211 47.0101 211 105V105C211 162.99 163.49 210 105.5 210V210C47.5101 210 0 162.99 0 105V105Z" fill="#2E2525"/>
<path d="M13 105.4C13 54.3689 54.8089 13 105.84 13V13C156.871 13 198.68 54.3689 198.68 105.4V105.4C198.68 156.431 156.871 197.8 105.84 197.8V197.8C54.8089 197.8 13 156.431 13 105.4V105.4Z" fill="#3D3535"/>
<path d="M93.2362 42.4432V40.0213L99.3086 30.4545H101.397V33.8068H100.161L96.3327 39.8651V39.9787H104.962V42.4432H93.2362ZM100.218 45V41.7045L100.275 40.6321V30.4545H103.158V45H100.218ZM112.324 45.1989C111.32 45.1989 110.425 45.0142 109.639 44.6449C108.858 44.2756 108.237 43.7666 107.778 43.1179C107.319 42.4692 107.08 41.7259 107.061 40.8878H110.044C110.077 41.4512 110.314 41.9081 110.754 42.2585C111.194 42.6089 111.717 42.7841 112.324 42.7841C112.806 42.7841 113.233 42.6776 113.602 42.4645C113.976 42.2467 114.267 41.946 114.475 41.5625C114.689 41.1742 114.795 40.7292 114.795 40.2273C114.795 39.7159 114.686 39.2661 114.468 38.8778C114.255 38.4896 113.959 38.1866 113.581 37.9688C113.202 37.7509 112.769 37.6397 112.281 37.6349C111.855 37.6349 111.44 37.7225 111.038 37.8977C110.64 38.0729 110.33 38.312 110.108 38.6151L107.373 38.125L108.062 30.4545H116.954V32.9688H110.598L110.221 36.6122H110.306C110.562 36.2524 110.948 35.9541 111.464 35.7173C111.98 35.4806 112.558 35.3622 113.197 35.3622C114.073 35.3622 114.854 35.5682 115.541 35.9801C116.227 36.392 116.77 36.9579 117.167 37.6776C117.565 38.3925 117.761 39.2164 117.757 40.1491C117.761 41.1293 117.534 42.0005 117.075 42.7628C116.62 43.5204 115.984 44.117 115.164 44.5526C114.35 44.9834 113.403 45.1989 112.324 45.1989Z" fill="white"/>
<path d="M83.5325 163V160.784L88.71 155.99C89.1504 155.564 89.5197 155.18 89.818 154.839C90.121 154.499 90.3507 154.165 90.5069 153.838C90.6632 153.507 90.7413 153.149 90.7413 152.766C90.7413 152.339 90.6442 151.973 90.4501 151.665C90.256 151.352 89.9908 151.113 89.6547 150.947C89.3185 150.777 88.9373 150.692 88.5112 150.692C88.0661 150.692 87.6779 150.782 87.3464 150.962C87.015 151.142 86.7593 151.4 86.5794 151.736C86.3994 152.072 86.3095 152.472 86.3095 152.936H83.3904C83.3904 151.984 83.6059 151.158 84.0368 150.457C84.4676 149.757 85.0713 149.214 85.8478 148.831C86.6243 148.447 87.5192 148.256 88.5325 148.256C89.5742 148.256 90.4809 148.44 91.2527 148.81C92.0292 149.174 92.6329 149.681 93.0637 150.33C93.4946 150.978 93.7101 151.722 93.7101 152.56C93.7101 153.109 93.6011 153.651 93.3833 154.186C93.1703 154.721 92.7891 155.315 92.2399 155.969C91.6906 156.617 90.9165 157.396 89.9174 158.305L87.7939 160.386V160.486H93.9018V163H83.5325ZM101.833 163.32C100.612 163.315 99.5605 163.014 98.6799 162.418C97.8039 161.821 97.1292 160.957 96.6557 159.825C96.187 158.694 95.955 157.332 95.9597 155.741C95.9597 154.155 96.1941 152.804 96.6628 151.686C97.1363 150.569 97.811 149.719 98.687 149.136C99.5676 148.549 100.616 148.256 101.833 148.256C103.05 148.256 104.097 148.549 104.972 149.136C105.853 149.723 106.53 150.576 107.004 151.693C107.477 152.806 107.712 154.155 107.707 155.741C107.707 157.337 107.47 158.701 106.997 159.832C106.528 160.964 105.856 161.828 104.98 162.425C104.104 163.021 103.055 163.32 101.833 163.32ZM101.833 160.77C102.667 160.77 103.332 160.351 103.829 159.513C104.326 158.675 104.572 157.418 104.568 155.741C104.568 154.638 104.454 153.72 104.227 152.986C104.004 152.252 103.687 151.7 103.275 151.331C102.868 150.962 102.387 150.777 101.833 150.777C101.005 150.777 100.342 151.191 99.8446 152.02C99.3475 152.848 99.0965 154.089 99.0918 155.741C99.0918 156.859 99.2031 157.792 99.4256 158.54C99.6529 159.283 99.9725 159.842 100.384 160.216C100.796 160.585 101.279 160.77 101.833 160.77ZM111.111 163.185C110.642 163.185 110.239 163.019 109.903 162.688C109.572 162.351 109.406 161.949 109.406 161.48C109.406 161.016 109.572 160.618 109.903 160.287C110.239 159.955 110.642 159.79 111.111 159.79C111.565 159.79 111.963 159.955 112.304 160.287C112.645 160.618 112.815 161.016 112.815 161.48C112.815 161.793 112.735 162.079 112.574 162.339C112.417 162.595 112.211 162.801 111.956 162.957C111.7 163.109 111.418 163.185 111.111 163.185ZM115.051 160.443V158.021L121.123 148.455H123.211V151.807H121.975L118.147 157.865V157.979H126.776V160.443H115.051ZM122.032 163V159.705L122.089 158.632V148.455H124.972V163H122.032Z" fill="white"/>
<path d="M92.3197 64V53.0909H94.6262V62.0984H99.303V64H92.3197ZM100.83 64V53.0909H105.198C106.001 53.0909 106.67 53.2099 107.207 53.4478C107.743 53.6857 108.146 54.016 108.416 54.4386C108.686 54.8576 108.821 55.3406 108.821 55.8874C108.821 56.3136 108.735 56.6882 108.565 57.0114C108.394 57.331 108.16 57.5937 107.862 57.7997C107.567 58.0021 107.23 58.146 106.85 58.2312V58.3377C107.265 58.3555 107.654 58.4727 108.016 58.6893C108.382 58.9059 108.678 59.2095 108.906 59.6001C109.133 59.9872 109.247 60.4489 109.247 60.9851C109.247 61.5639 109.103 62.0806 108.815 62.5352C108.531 62.9862 108.11 63.343 107.553 63.6058C106.995 63.8686 106.308 64 105.491 64H100.83ZM103.137 62.1143H105.017C105.66 62.1143 106.129 61.9918 106.424 61.7468C106.718 61.4982 106.866 61.168 106.866 60.756C106.866 60.4542 106.793 60.1879 106.647 59.957C106.502 59.7262 106.294 59.5451 106.024 59.4137C105.758 59.2823 105.44 59.2166 105.071 59.2166H103.137V62.1143ZM103.137 57.6559H104.847C105.163 57.6559 105.443 57.6009 105.688 57.4908C105.937 57.3771 106.132 57.2173 106.274 57.0114C106.42 56.8054 106.493 56.5586 106.493 56.271C106.493 55.8768 106.352 55.5589 106.072 55.3175C105.795 55.076 105.401 54.9553 104.889 54.9553H103.137V57.6559ZM116.665 56.2283C116.623 55.7987 116.44 55.4648 116.117 55.2269C115.794 54.989 115.355 54.87 114.801 54.87C114.425 54.87 114.107 54.9233 113.848 55.0298C113.588 55.1328 113.39 55.2766 113.251 55.4613C113.116 55.646 113.049 55.8555 113.049 56.0898C113.042 56.2852 113.082 56.4556 113.171 56.6012C113.263 56.7468 113.39 56.8729 113.549 56.9794C113.709 57.0824 113.894 57.1729 114.103 57.2511C114.313 57.3256 114.537 57.3896 114.774 57.4428L115.755 57.6772C116.23 57.7837 116.667 57.9258 117.065 58.1033C117.463 58.2809 117.807 58.4993 118.098 58.7585C118.39 59.0178 118.615 59.3232 118.775 59.6747C118.938 60.0263 119.022 60.4293 119.025 60.8839C119.022 61.5515 118.851 62.1303 118.514 62.6204C118.18 63.1069 117.697 63.4851 117.065 63.755C116.436 64.0213 115.678 64.1545 114.79 64.1545C113.91 64.1545 113.143 64.0195 112.489 63.7496C111.839 63.4798 111.332 63.0803 110.966 62.5511C110.604 62.0185 110.414 61.3597 110.396 60.5749H112.628C112.653 60.9407 112.757 61.2461 112.942 61.4911C113.13 61.7326 113.381 61.9155 113.693 62.0398C114.009 62.1605 114.366 62.2209 114.764 62.2209C115.154 62.2209 115.494 62.1641 115.781 62.0504C116.072 61.9368 116.298 61.7788 116.458 61.5763C116.617 61.3739 116.697 61.1413 116.697 60.8786C116.697 60.6335 116.625 60.4276 116.479 60.2607C116.337 60.0937 116.127 59.9517 115.85 59.8345C115.577 59.7173 115.241 59.6108 114.844 59.5149L113.656 59.2166C112.736 58.9929 112.01 58.6431 111.477 58.1673C110.945 57.6914 110.68 57.0504 110.684 56.2443C110.68 55.5838 110.856 55.0067 111.211 54.5131C111.57 54.0195 112.061 53.6342 112.686 53.3572C113.311 53.0803 114.022 52.9418 114.817 52.9418C115.627 52.9418 116.333 53.0803 116.937 53.3572C117.544 53.6342 118.017 54.0195 118.354 54.5131C118.691 55.0067 118.865 55.5785 118.876 56.2283H116.665Z" fill="white"/>
<path d="M90.9648 182V171.091H93.2712V175.901H93.415L97.3408 171.091H100.105L96.0571 175.975L100.153 182H97.3941L94.4058 177.515L93.2712 178.9V182H90.9648ZM107.925 174.617C107.85 174.358 107.746 174.129 107.611 173.93C107.476 173.728 107.311 173.557 107.115 173.419C106.924 173.277 106.703 173.168 106.455 173.094C106.21 173.019 105.938 172.982 105.64 172.982C105.082 172.982 104.592 173.12 104.17 173.397C103.751 173.674 103.424 174.077 103.19 174.607C102.955 175.132 102.838 175.775 102.838 176.535C102.838 177.295 102.953 177.941 103.184 178.474C103.415 179.006 103.742 179.413 104.164 179.694C104.587 179.971 105.086 180.109 105.661 180.109C106.183 180.109 106.629 180.017 106.998 179.832C107.371 179.644 107.655 179.379 107.85 179.038C108.049 178.697 108.149 178.294 108.149 177.829L108.617 177.898H105.805V176.162H110.37V177.536C110.37 178.495 110.168 179.319 109.763 180.008C109.358 180.693 108.8 181.222 108.09 181.595C107.38 181.964 106.567 182.149 105.65 182.149C104.628 182.149 103.729 181.924 102.955 181.473C102.181 181.018 101.577 180.374 101.144 179.539C100.714 178.701 100.5 177.707 100.5 176.556C100.5 175.672 100.627 174.884 100.883 174.191C101.142 173.495 101.505 172.906 101.97 172.423C102.435 171.94 102.976 171.572 103.594 171.32C104.212 171.068 104.882 170.942 105.603 170.942C106.22 170.942 106.796 171.032 107.328 171.213C107.861 171.391 108.333 171.643 108.745 171.97C109.161 172.297 109.5 172.685 109.763 173.136C110.025 173.584 110.194 174.077 110.269 174.617H107.925ZM118.02 174.228C117.978 173.799 117.795 173.465 117.472 173.227C117.149 172.989 116.71 172.87 116.156 172.87C115.78 172.87 115.462 172.923 115.203 173.03C114.943 173.133 114.744 173.277 114.606 173.461C114.471 173.646 114.404 173.855 114.404 174.09C114.396 174.285 114.437 174.456 114.526 174.601C114.618 174.747 114.744 174.873 114.904 174.979C115.064 175.082 115.249 175.173 115.458 175.251C115.668 175.326 115.892 175.39 116.129 175.443L117.11 175.677C117.585 175.784 118.022 175.926 118.42 176.103C118.818 176.281 119.162 176.499 119.453 176.759C119.744 177.018 119.97 177.323 120.13 177.675C120.293 178.026 120.377 178.429 120.38 178.884C120.377 179.551 120.206 180.13 119.869 180.62C119.535 181.107 119.052 181.485 118.42 181.755C117.791 182.021 117.033 182.154 116.145 182.154C115.265 182.154 114.498 182.02 113.844 181.75C113.194 181.48 112.687 181.08 112.321 180.551C111.959 180.018 111.769 179.36 111.751 178.575H113.983C114.008 178.941 114.112 179.246 114.297 179.491C114.485 179.733 114.736 179.915 115.048 180.04C115.364 180.161 115.721 180.221 116.119 180.221C116.509 180.221 116.849 180.164 117.136 180.05C117.427 179.937 117.653 179.779 117.813 179.576C117.972 179.374 118.052 179.141 118.052 178.879C118.052 178.634 117.98 178.428 117.834 178.261C117.692 178.094 117.482 177.952 117.205 177.835C116.932 177.717 116.596 177.611 116.199 177.515L115.011 177.217C114.091 176.993 113.365 176.643 112.832 176.167C112.3 175.691 112.035 175.05 112.039 174.244C112.035 173.584 112.211 173.007 112.566 172.513C112.925 172.02 113.416 171.634 114.041 171.357C114.666 171.08 115.377 170.942 116.172 170.942C116.982 170.942 117.688 171.08 118.292 171.357C118.899 171.634 119.372 172.02 119.709 172.513C120.046 173.007 120.22 173.578 120.231 174.228H118.02Z" fill="white"/>
<g filter="url(#filter0_bd_21_224)">
<rect width="184.475" height="6.31241" transform="matrix(0.767545 0.640995 -0.644579 0.764538 36.8369 43.4033)" fill="#2E2525"/>
</g>
<g filter="url(#filter1_bd_21_224)">
<rect width="184.398" height="6.31502" transform="matrix(0.708784 -0.705425 0.708784 0.705425 37.6143 167.899)" fill="#2E2525"/>
</g>
<g filter="url(#filter2_d_21_224)">
<path d="M75.96 105C75.96 88.7628 89.2629 75.6 105.5 75.6V75.6C121.737 75.6 135.04 88.7628 135.04 105V105C135.04 121.237 121.737 134.4 105.5 134.4V134.4C89.2629 134.4 75.96 121.237 75.96 105V105Z" fill="#201919"/>
</g>
<g filter="url(#filter3_bd_21_224)">
<path d="M82.29 105C82.29 92.2422 92.7422 81.9 105.5 81.9V81.9C118.258 81.9 128.71 92.2422 128.71 105V105C128.71 117.758 118.258 128.1 105.5 128.1V128.1C92.7422 128.1 82.29 117.758 82.29 105V105Z" fill="url(#paint0_linear_21_224)"/>
</g>
<path d="M90.73 105C90.73 96.8813 97.3815 90.2999 105.5 90.2999V90.2999C113.619 90.2999 120.27 96.8813 120.27 105V105C120.27 113.119 113.619 119.7 105.5 119.7V119.7C97.3815 119.7 90.73 113.119 90.73 105V105Z" fill="url(#paint1_linear_21_224)"/>
<defs>
<filter id="filter0_bd_21_224" x="26.768" y="37.4033" width="157.661" height="137.073" filterUnits="userSpaceOnUse" color-interpolation-filters="sRGB">
<feFlood flood-opacity="0" result="BackgroundImageFix"/>
<feGaussianBlur in="BackgroundImageFix" stdDeviation="3"/>
<feComposite in2="SourceAlpha" operator="in" result="effect1_backgroundBlur_21_224"/>
<feColorMatrix in="SourceAlpha" type="matrix" values="0 0 0 0 0 0 0 0 0 0 0 0 0 0 0 0 0 0 127 0" result="hardAlpha"/>
<feOffset dy="4"/>
<feGaussianBlur stdDeviation="2"/>
<feComposite in2="hardAlpha" operator="out"/>
<feColorMatrix type="matrix" values="0 0 0 0 0 0 0 0 0 0 0 0 0 0 0 0 0 0 0.25 0"/>
<feBlend mode="normal" in2="effect1_backgroundBlur_21_224" result="effect2_dropShadow_21_224"/>
<feBlend mode="normal" in="SourceGraphic" in2="effect2_dropShadow_21_224" result="shape"/>
</filter>
<filter id="filter1_bd_21_224" x="31.6143" y="31.8199" width="147.175" height="148.534" filterUnits="userSpaceOnUse" color-interpolation-filters="sRGB">
<feFlood flood-opacity="0" result="BackgroundImageFix"/>
<feGaussianBlur in="BackgroundImageFix" stdDeviation="3"/>
<feComposite in2="SourceAlpha" operator="in" result="effect1_backgroundBlur_21_224"/>
<feColorMatrix in="SourceAlpha" type="matrix" values="0 0 0 0 0 0 0 0 0 0 0 0 0 0 0 0 0 0 127 0" result="hardAlpha"/>
<feOffset dy="4"/>
<feGaussianBlur stdDeviation="2"/>
<feComposite in2="hardAlpha" operator="out"/>
<feColorMatrix type="matrix" values="0 0 0 0 0 0 0 0 0 0 0 0 0 0 0 0 0 0 0.25 0"/>
<feBlend mode="normal" in2="effect1_backgroundBlur_21_224" result="effect2_dropShadow_21_224"/>
<feBlend mode="normal" in="SourceGraphic" in2="effect2_dropShadow_21_224" result="shape"/>
</filter>
<filter id="filter2_d_21_224" x="71.96" y="75.6" width="67.08" height="66.8" filterUnits="userSpaceOnUse" color-interpolation-filters="sRGB">
<feFlood flood-opacity="0" result="BackgroundImageFix"/>
<feColorMatrix in="SourceAlpha" type="matrix" values="0 0 0 0 0 0 0 0 0 0 0 0 0 0 0 0 0 0 127 0" result="hardAlpha"/>
<feOffset dy="4"/>
<feGaussianBlur stdDeviation="2"/>
<feComposite in2="hardAlpha" operator="out"/>
<feColorMatrix type="matrix" values="0 0 0 0 0 0 0 0 0 0 0 0 0 0 0 0 0 0 0.25 0"/>
<feBlend mode="normal" in2="BackgroundImageFix" result="effect1_dropShadow_21_224"/>
<feBlend mode="normal" in="SourceGraphic" in2="effect1_dropShadow_21_224" result="shape"/>
</filter>
<filter id="filter3_bd_21_224" x="71.29" y="70.9" width="68.42" height="68.2" filterUnits="userSpaceOnUse" color-interpolation-filters="sRGB">
<feFlood flood-opacity="0" result="BackgroundImageFix"/>
<feGaussianBlur in="BackgroundImageFix" stdDeviation="2"/>
<feComposite in2="SourceAlpha" operator="in" result="effect1_backgroundBlur_21_224"/>
<feColorMatrix in="SourceAlpha" type="matrix" values="0 0 0 0 0 0 0 0 0 0 0 0 0 0 0 0 0 0 127 0" result="hardAlpha"/>
<feMorphology radius="4" operator="dilate" in="SourceAlpha" result="effect2_dropShadow_21_224"/>
<feOffset/>
<feGaussianBlur stdDeviation="3.5"/>
<feComposite in2="hardAlpha" operator="out"/>
<feColorMatrix type="matrix" values="0 0 0 0 0 0 0 0 0 0 0 0 0 0 0 0 0 0 0.25 0"/>
<feBlend mode="normal" in2="effect1_backgroundBlur_21_224" result="effect2_dropShadow_21_224"/>
<feBlend mode="normal" in="SourceGraphic" in2="effect2_dropShadow_21_224" result="shape"/>
</filter>
<linearGradient id="paint0_linear_21_224" x1="105.5" y1="81.9" x2="105.5" y2="128.1" gradientUnits="userSpaceOnUse">
<stop stop-color="#595959"/>
<stop offset="1" stop-color="#BFBFBF"/>
</linearGradient>
<linearGradient id="paint1_linear_21_224" x1="105.5" y1="90.2999" x2="105.5" y2="119.7" gradientUnits="userSpaceOnUse">
<stop stop-color="#AAAAAA"/>
<stop offset="1" stop-color="#6E6E6E"/>
</linearGradient>
</defs>
</svg>
