<svg width="211" height="210" viewBox="0 0 211 210" fill="none" xmlns="http://www.w3.org/2000/svg">
<path d="M26 105C26 60.8172 61.8172 25 106 25V25C150.183 25 186 60.8172 186 105V105C186 149.183 150.183 185 106 185V185C61.8172 185 26 149.183 26 105V105Z" fill="#2E2525"/>
<g filter="url(#filter0_d_25_441)">
<path d="M35.6 105C35.6 66.1191 67.1191 34.6 106 34.6V34.6C144.881 34.6 176.4 66.1191 176.4 105V105C176.4 143.881 144.881 175.4 106 175.4V175.4C67.1191 175.4 35.6 143.881 35.6 105V105Z" fill="#3D3535" fill-opacity="0.98"/>
</g>
<g filter="url(#filter1_bd_25_441)">
<rect width="140.16" height="4.8" transform="translate(53.9331 58.0692) rotate(40)" fill="#2E2525"/>
</g>
<g filter="url(#filter2_bd_25_441)">
<rect width="140.16" height="4.8" transform="translate(54.5227 152.923) rotate(-45)" fill="#2E2525"/>
</g>
<g filter="url(#filter3_d_25_441)">
<path d="M83.6 105C83.6 92.6288 93.6288 82.6 106 82.6V82.6C118.371 82.6 128.4 92.6288 128.4 105V105C128.4 117.371 118.371 127.4 106 127.4V127.4C93.6288 127.4 83.6 117.371 83.6 105V105Z" fill="#201919"/>
</g>
<g filter="url(#filter4_bd_25_441)">
<path d="M88.4 105C88.4 95.2798 96.2798 87.4 106 87.4V87.4C115.72 87.4 123.6 95.2798 123.6 105V105C123.6 114.72 115.72 122.6 106 122.6V122.6C96.2798 122.6 88.4 114.72 88.4 105V105Z" fill="url(#paint0_linear_25_441)"/>
</g>
<path d="M94.8 105C94.8 98.8144 99.8145 93.8 106 93.8V93.8C112.186 93.8 117.2 98.8144 117.2 105V105C117.2 111.186 112.186 116.2 106 116.2V116.2C99.8145 116.2 94.8 111.186 94.8 105V105Z" fill="url(#paint1_linear_25_441)"/>
<path d="M99.7479 161V155.182H100.978V157.747H101.055L103.148 155.182H104.623L102.464 157.787L104.648 161H103.177L101.583 158.608L100.978 159.347V161H99.7479ZM108.793 157.063C108.754 156.924 108.698 156.802 108.626 156.696C108.554 156.588 108.466 156.497 108.362 156.423C108.259 156.348 108.142 156.29 108.009 156.25C107.879 156.21 107.734 156.19 107.575 156.19C107.277 156.19 107.016 156.264 106.79 156.412C106.567 156.56 106.393 156.775 106.268 157.057C106.143 157.337 106.08 157.68 106.08 158.085C106.08 158.491 106.142 158.835 106.265 159.119C106.388 159.403 106.562 159.62 106.788 159.77C107.013 159.918 107.279 159.991 107.586 159.991C107.864 159.991 108.102 159.942 108.299 159.844C108.498 159.743 108.649 159.602 108.754 159.42C108.86 159.239 108.913 159.024 108.913 158.776L109.163 158.813H107.663V157.886H110.097V158.619C110.097 159.131 109.989 159.57 109.773 159.938C109.558 160.303 109.26 160.585 108.881 160.784C108.503 160.981 108.069 161.08 107.58 161.08C107.035 161.08 106.556 160.959 106.143 160.719C105.73 160.476 105.408 160.133 105.177 159.688C104.948 159.241 104.833 158.71 104.833 158.097C104.833 157.625 104.901 157.205 105.038 156.835C105.176 156.464 105.369 156.15 105.617 155.892C105.865 155.634 106.154 155.438 106.484 155.304C106.813 155.17 107.17 155.102 107.555 155.102C107.884 155.102 108.191 155.151 108.475 155.247C108.759 155.342 109.011 155.476 109.231 155.651C109.452 155.825 109.633 156.032 109.773 156.273C109.914 156.511 110.004 156.775 110.043 157.063H108.793ZM114.178 156.855C114.155 156.626 114.057 156.448 113.885 156.321C113.713 156.194 113.479 156.131 113.183 156.131C112.982 156.131 112.813 156.159 112.675 156.216C112.536 156.271 112.43 156.348 112.357 156.446C112.285 156.545 112.249 156.656 112.249 156.781C112.245 156.885 112.267 156.976 112.314 157.054C112.363 157.132 112.43 157.199 112.516 157.256C112.601 157.311 112.699 157.359 112.811 157.401C112.923 157.44 113.042 157.474 113.169 157.503L113.692 157.628C113.946 157.685 114.179 157.76 114.391 157.855C114.603 157.95 114.786 158.066 114.942 158.205C115.097 158.343 115.217 158.506 115.303 158.693C115.39 158.881 115.434 159.096 115.436 159.338C115.434 159.694 115.343 160.003 115.163 160.264C114.985 160.524 114.728 160.725 114.391 160.869C114.055 161.011 113.651 161.082 113.178 161.082C112.708 161.082 112.299 161.01 111.95 160.866C111.604 160.723 111.333 160.509 111.138 160.227C110.945 159.943 110.843 159.592 110.834 159.173H112.024C112.037 159.368 112.093 159.531 112.192 159.662C112.292 159.791 112.426 159.888 112.592 159.955C112.761 160.019 112.951 160.051 113.163 160.051C113.372 160.051 113.553 160.021 113.706 159.96C113.861 159.9 113.982 159.815 114.067 159.707C114.152 159.599 114.195 159.475 114.195 159.335C114.195 159.205 114.156 159.095 114.078 159.006C114.002 158.917 113.891 158.841 113.743 158.778C113.597 158.716 113.418 158.659 113.206 158.608L112.572 158.449C112.082 158.33 111.695 158.143 111.411 157.889C111.126 157.635 110.985 157.294 110.987 156.864C110.985 156.511 111.079 156.204 111.268 155.94C111.46 155.677 111.722 155.472 112.055 155.324C112.389 155.176 112.768 155.102 113.192 155.102C113.624 155.102 114 155.176 114.322 155.324C114.646 155.472 114.898 155.677 115.078 155.94C115.258 156.204 115.351 156.509 115.357 156.855H114.178Z" fill="white"/>
<path d="M104.755 57.1491C104.002 57.1491 103.331 57.0107 102.741 56.7337C102.155 56.4567 101.69 56.0749 101.346 55.5884C101.001 55.1019 100.822 54.5444 100.808 53.9158H103.045C103.07 54.3384 103.247 54.6811 103.577 54.9439C103.908 55.2067 104.3 55.3381 104.755 55.3381C105.117 55.3381 105.436 55.2582 105.713 55.0984C105.994 54.935 106.212 54.7095 106.369 54.4219C106.528 54.1307 106.608 53.7969 106.608 53.4205C106.608 53.0369 106.527 52.6996 106.363 52.4084C106.203 52.1172 105.982 51.8899 105.697 51.7266C105.413 51.5632 105.088 51.4798 104.723 51.4762C104.403 51.4762 104.092 51.5419 103.79 51.6733C103.492 51.8047 103.26 51.984 103.093 52.2113L101.042 51.8438L101.559 46.0909H108.228V47.9766H103.46L103.178 50.7092H103.242C103.434 50.4393 103.723 50.2156 104.11 50.038C104.497 49.8604 104.93 49.7717 105.41 49.7717C106.067 49.7717 106.653 49.9261 107.168 50.2351C107.683 50.544 108.089 50.9684 108.387 51.5082C108.686 52.0444 108.833 52.6623 108.83 53.3619C108.833 54.0969 108.663 54.7504 108.318 55.3221C107.977 55.8903 107.5 56.3377 106.885 56.6644C106.275 56.9876 105.564 57.1491 104.755 57.1491Z" fill="white"/>
<path d="M95.6582 149V147.338L99.5413 143.743C99.8716 143.423 100.149 143.135 100.372 142.88C100.6 142.624 100.772 142.374 100.889 142.129C101.006 141.88 101.065 141.612 101.065 141.324C101.065 141.005 100.992 140.729 100.846 140.499C100.701 140.264 100.502 140.085 100.25 139.961C99.9976 139.833 99.7118 139.769 99.3922 139.769C99.0584 139.769 98.7672 139.836 98.5186 139.971C98.27 140.106 98.0783 140.3 97.9433 140.552C97.8084 140.804 97.7409 141.104 97.7409 141.452H95.5516C95.5516 140.738 95.7132 140.119 96.0364 139.593C96.3595 139.067 96.8123 138.661 97.3947 138.373C97.977 138.086 98.6482 137.942 99.4082 137.942C100.189 137.942 100.869 138.08 101.448 138.357C102.031 138.631 102.483 139.011 102.807 139.497C103.13 139.984 103.291 140.541 103.291 141.17C103.291 141.582 103.21 141.988 103.046 142.39C102.886 142.791 102.601 143.237 102.189 143.727C101.777 144.213 101.196 144.797 100.447 145.479L98.8542 147.04V147.114H103.435V149H95.6582ZM106.454 149.138C106.102 149.138 105.801 149.014 105.549 148.766C105.3 148.513 105.176 148.212 105.176 147.86C105.176 147.512 105.3 147.214 105.549 146.965C105.801 146.717 106.102 146.592 106.454 146.592C106.795 146.592 107.093 146.717 107.349 146.965C107.605 147.214 107.732 147.512 107.732 147.86C107.732 148.094 107.672 148.309 107.551 148.505C107.434 148.696 107.28 148.851 107.088 148.968C106.896 149.082 106.685 149.138 106.454 149.138ZM113.255 149.149C112.459 149.149 111.751 149.012 111.13 148.739C110.512 148.462 110.023 148.082 109.665 147.599C109.31 147.113 109.127 146.551 109.116 145.916H111.439C111.453 146.182 111.54 146.417 111.7 146.619C111.863 146.818 112.079 146.972 112.349 147.082C112.619 147.192 112.923 147.248 113.26 147.248C113.612 147.248 113.923 147.185 114.192 147.061C114.462 146.937 114.674 146.765 114.826 146.544C114.979 146.324 115.055 146.07 115.055 145.783C115.055 145.491 114.974 145.234 114.81 145.01C114.651 144.783 114.42 144.605 114.118 144.478C113.82 144.35 113.464 144.286 113.053 144.286H112.035V142.592H113.053C113.401 142.592 113.708 142.532 113.974 142.411C114.244 142.29 114.453 142.123 114.603 141.91C114.752 141.694 114.826 141.441 114.826 141.154C114.826 140.88 114.761 140.641 114.629 140.435C114.501 140.225 114.32 140.062 114.086 139.945C113.855 139.827 113.585 139.769 113.276 139.769C112.964 139.769 112.678 139.826 112.419 139.939C112.159 140.049 111.952 140.207 111.795 140.413C111.639 140.619 111.556 140.861 111.545 141.138H109.334C109.345 140.509 109.524 139.955 109.872 139.476C110.22 138.996 110.689 138.622 111.279 138.352C111.872 138.078 112.541 137.942 113.287 137.942C114.04 137.942 114.698 138.078 115.263 138.352C115.828 138.625 116.266 138.995 116.579 139.46C116.895 139.922 117.051 140.44 117.048 141.015C117.051 141.626 116.861 142.136 116.478 142.544C116.098 142.952 115.602 143.212 114.991 143.322V143.407C115.794 143.51 116.405 143.789 116.824 144.243C117.246 144.694 117.456 145.259 117.452 145.937C117.456 146.559 117.277 147.111 116.914 147.594C116.556 148.077 116.06 148.457 115.428 148.734C114.796 149.011 114.072 149.149 113.255 149.149Z" fill="white"/>
<path d="M98.2305 68V62.1818H99.4606V66.9858H101.955V68H98.2305ZM102.77 68V62.1818H105.099C105.527 62.1818 105.884 62.2453 106.17 62.3722C106.456 62.4991 106.671 62.6752 106.815 62.9006C106.959 63.1241 107.031 63.3816 107.031 63.6733C107.031 63.9006 106.985 64.1004 106.895 64.2727C106.804 64.4432 106.679 64.5833 106.52 64.6932C106.362 64.8011 106.182 64.8778 105.98 64.9233V64.9801C106.201 64.9896 106.409 65.0521 106.602 65.1676C106.797 65.2831 106.955 65.4451 107.076 65.6534C107.198 65.8598 107.258 66.1061 107.258 66.392C107.258 66.7008 107.182 66.9763 107.028 67.2188C106.877 67.4593 106.652 67.6496 106.355 67.7898C106.057 67.9299 105.691 68 105.255 68H102.77ZM104 66.9943H105.003C105.345 66.9943 105.595 66.929 105.753 66.7983C105.91 66.6657 105.988 66.4896 105.988 66.2699C105.988 66.1089 105.95 65.9669 105.872 65.8438C105.794 65.7206 105.683 65.6241 105.539 65.554C105.397 65.4839 105.228 65.4489 105.031 65.4489H104V66.9943ZM104 64.6165H104.912C105.08 64.6165 105.23 64.5871 105.36 64.5284C105.493 64.4678 105.597 64.3826 105.673 64.2727C105.751 64.1629 105.789 64.0312 105.789 63.8778C105.789 63.6676 105.715 63.4981 105.565 63.3693C105.417 63.2405 105.207 63.1761 104.934 63.1761H104V64.6165ZM111.215 63.8551C111.192 63.6259 111.095 63.4479 110.922 63.321C110.75 63.1941 110.516 63.1307 110.221 63.1307C110.02 63.1307 109.85 63.1591 109.712 63.2159C109.574 63.2708 109.468 63.3475 109.394 63.446C109.322 63.5445 109.286 63.6562 109.286 63.7812C109.282 63.8854 109.304 63.9763 109.351 64.054C109.401 64.1316 109.468 64.1989 109.553 64.2557C109.638 64.3106 109.737 64.3589 109.848 64.4006C109.96 64.4403 110.079 64.4744 110.206 64.5028L110.729 64.6278C110.983 64.6847 111.216 64.7604 111.428 64.8551C111.64 64.9498 111.824 65.0663 111.979 65.2045C112.134 65.3428 112.255 65.5057 112.34 65.6932C112.427 65.8807 112.472 66.0956 112.473 66.3381C112.472 66.6941 112.381 67.0028 112.201 67.2642C112.023 67.5237 111.765 67.7254 111.428 67.8693C111.093 68.0114 110.688 68.0824 110.215 68.0824C109.745 68.0824 109.336 68.0104 108.988 67.8665C108.641 67.7225 108.37 67.5095 108.175 67.2273C107.982 66.9432 107.881 66.5919 107.871 66.1733H109.061C109.075 66.3684 109.131 66.5312 109.229 66.6619C109.329 66.7907 109.463 66.8883 109.63 66.9545C109.798 67.0189 109.989 67.0511 110.201 67.0511C110.409 67.0511 110.59 67.0208 110.743 66.9602C110.899 66.8996 111.019 66.8153 111.104 66.7074C111.189 66.5994 111.232 66.4754 111.232 66.3352C111.232 66.2045 111.193 66.0947 111.115 66.0057C111.04 65.9167 110.928 65.8409 110.78 65.7784C110.634 65.7159 110.455 65.6591 110.243 65.608L109.61 65.4489C109.119 65.3295 108.732 65.143 108.448 64.8892C108.164 64.6354 108.023 64.2936 108.025 63.8636C108.023 63.5114 108.116 63.2036 108.306 62.9403C108.497 62.6771 108.759 62.4716 109.093 62.3239C109.426 62.1761 109.805 62.1023 110.229 62.1023C110.661 62.1023 111.038 62.1761 111.36 62.3239C111.684 62.4716 111.936 62.6771 112.115 62.9403C112.295 63.2036 112.388 63.5085 112.394 63.8551H111.215Z" fill="white"/>
<g filter="url(#filter5_d_25_441)">
<path d="M76.192 102.18C76.192 85.9429 89.4949 72.7801 105.732 72.7801V72.7801C121.969 72.7801 135.272 85.9429 135.272 102.18V102.18C135.272 118.417 121.969 131.58 105.732 131.58V131.58C89.4949 131.58 76.192 118.417 76.192 102.18V102.18Z" fill="#201919"/>
</g>
<g filter="url(#filter6_bd_25_441)">
<path d="M82.522 102.18C82.522 89.4223 92.9742 79.0801 105.732 79.0801V79.0801C118.49 79.0801 128.942 89.4223 128.942 102.18V102.18C128.942 114.938 118.49 125.28 105.732 125.28V125.28C92.9742 125.28 82.522 114.938 82.522 102.18V102.18Z" fill="url(#paint2_linear_25_441)"/>
</g>
<path d="M90.962 102.18C90.962 94.0615 97.6135 87.4801 105.732 87.4801V87.4801C113.851 87.4801 120.502 94.0615 120.502 102.18V102.18C120.502 110.299 113.851 116.88 105.732 116.88V116.88C97.6135 116.88 90.962 110.299 90.962 102.18V102.18Z" fill="url(#paint3_linear_25_441)"/>
<defs>
<filter id="filter0_d_25_441" x="18.7" y="17.7" width="174.6" height="174.6" filterUnits="userSpaceOnUse" color-interpolation-filters="sRGB">
<feFlood flood-opacity="0" result="BackgroundImageFix"/>
<feColorMatrix in="SourceAlpha" type="matrix" values="0 0 0 0 0 0 0 0 0 0 0 0 0 0 0 0 0 0 127 0" result="hardAlpha"/>
<feMorphology radius="9" operator="dilate" in="SourceAlpha" result="effect1_dropShadow_25_441"/>
<feOffset/>
<feGaussianBlur stdDeviation="3.95"/>
<feColorMatrix type="matrix" values="0 0 0 0 0 0 0 0 0 0 0 0 0 0 0 0 0 0 0.25 0"/>
<feBlend mode="normal" in2="BackgroundImageFix" result="effect1_dropShadow_25_441"/>
<feBlend mode="normal" in="SourceGraphic" in2="effect1_dropShadow_25_441" result="shape"/>
</filter>
<filter id="filter1_bd_25_441" x="44.8478" y="52.0692" width="122.454" height="107.77" filterUnits="userSpaceOnUse" color-interpolation-filters="sRGB">
<feFlood flood-opacity="0" result="BackgroundImageFix"/>
<feGaussianBlur in="BackgroundImageFix" stdDeviation="3"/>
<feComposite in2="SourceAlpha" operator="in" result="effect1_backgroundBlur_25_441"/>
<feColorMatrix in="SourceAlpha" type="matrix" values="0 0 0 0 0 0 0 0 0 0 0 0 0 0 0 0 0 0 127 0" result="hardAlpha"/>
<feOffset dy="4"/>
<feGaussianBlur stdDeviation="2"/>
<feComposite in2="hardAlpha" operator="out"/>
<feColorMatrix type="matrix" values="0 0 0 0 0 0 0 0 0 0 0 0 0 0 0 0 0 0 0.25 0"/>
<feBlend mode="normal" in2="effect1_backgroundBlur_25_441" result="effect2_dropShadow_25_441"/>
<feBlend mode="normal" in="SourceGraphic" in2="effect2_dropShadow_25_441" result="shape"/>
</filter>
<filter id="filter2_bd_25_441" x="48.5227" y="47.8152" width="114.502" height="116.502" filterUnits="userSpaceOnUse" color-interpolation-filters="sRGB">
<feFlood flood-opacity="0" result="BackgroundImageFix"/>
<feGaussianBlur in="BackgroundImageFix" stdDeviation="3"/>
<feComposite in2="SourceAlpha" operator="in" result="effect1_backgroundBlur_25_441"/>
<feColorMatrix in="SourceAlpha" type="matrix" values="0 0 0 0 0 0 0 0 0 0 0 0 0 0 0 0 0 0 127 0" result="hardAlpha"/>
<feOffset dy="4"/>
<feGaussianBlur stdDeviation="2"/>
<feComposite in2="hardAlpha" operator="out"/>
<feColorMatrix type="matrix" values="0 0 0 0 0 0 0 0 0 0 0 0 0 0 0 0 0 0 0.25 0"/>
<feBlend mode="normal" in2="effect1_backgroundBlur_25_441" result="effect2_dropShadow_25_441"/>
<feBlend mode="normal" in="SourceGraphic" in2="effect2_dropShadow_25_441" result="shape"/>
</filter>
<filter id="filter3_d_25_441" x="79.6" y="82.6" width="52.8" height="52.8" filterUnits="userSpaceOnUse" color-interpolation-filters="sRGB">
<feFlood flood-opacity="0" result="BackgroundImageFix"/>
<feColorMatrix in="SourceAlpha" type="matrix" values="0 0 0 0 0 0 0 0 0 0 0 0 0 0 0 0 0 0 127 0" result="hardAlpha"/>
<feOffset dy="4"/>
<feGaussianBlur stdDeviation="2"/>
<feComposite in2="hardAlpha" operator="out"/>
<feColorMatrix type="matrix" values="0 0 0 0 0 0 0 0 0 0 0 0 0 0 0 0 0 0 0.25 0"/>
<feBlend mode="normal" in2="BackgroundImageFix" result="effect1_dropShadow_25_441"/>
<feBlend mode="normal" in="SourceGraphic" in2="effect1_dropShadow_25_441" result="shape"/>
</filter>
<filter id="filter4_bd_25_441" x="77.4" y="76.4" width="57.2" height="57.2" filterUnits="userSpaceOnUse" color-interpolation-filters="sRGB">
<feFlood flood-opacity="0" result="BackgroundImageFix"/>
<feGaussianBlur in="BackgroundImageFix" stdDeviation="2"/>
<feComposite in2="SourceAlpha" operator="in" result="effect1_backgroundBlur_25_441"/>
<feColorMatrix in="SourceAlpha" type="matrix" values="0 0 0 0 0 0 0 0 0 0 0 0 0 0 0 0 0 0 127 0" result="hardAlpha"/>
<feMorphology radius="4" operator="dilate" in="SourceAlpha" result="effect2_dropShadow_25_441"/>
<feOffset/>
<feGaussianBlur stdDeviation="3.5"/>
<feComposite in2="hardAlpha" operator="out"/>
<feColorMatrix type="matrix" values="0 0 0 0 0 0 0 0 0 0 0 0 0 0 0 0 0 0 0.25 0"/>
<feBlend mode="normal" in2="effect1_backgroundBlur_25_441" result="effect2_dropShadow_25_441"/>
<feBlend mode="normal" in="SourceGraphic" in2="effect2_dropShadow_25_441" result="shape"/>
</filter>
<filter id="filter5_d_25_441" x="72.192" y="72.7801" width="67.08" height="66.8" filterUnits="userSpaceOnUse" color-interpolation-filters="sRGB">
<feFlood flood-opacity="0" result="BackgroundImageFix"/>
<feColorMatrix in="SourceAlpha" type="matrix" values="0 0 0 0 0 0 0 0 0 0 0 0 0 0 0 0 0 0 127 0" result="hardAlpha"/>
<feOffset dy="4"/>
<feGaussianBlur stdDeviation="2"/>
<feComposite in2="hardAlpha" operator="out"/>
<feColorMatrix type="matrix" values="0 0 0 0 0 0 0 0 0 0 0 0 0 0 0 0 0 0 0.25 0"/>
<feBlend mode="normal" in2="BackgroundImageFix" result="effect1_dropShadow_25_441"/>
<feBlend mode="normal" in="SourceGraphic" in2="effect1_dropShadow_25_441" result="shape"/>
</filter>
<filter id="filter6_bd_25_441" x="71.522" y="68.0801" width="68.42" height="68.2" filterUnits="userSpaceOnUse" color-interpolation-filters="sRGB">
<feFlood flood-opacity="0" result="BackgroundImageFix"/>
<feGaussianBlur in="BackgroundImageFix" stdDeviation="2"/>
<feComposite in2="SourceAlpha" operator="in" result="effect1_backgroundBlur_25_441"/>
<feColorMatrix in="SourceAlpha" type="matrix" values="0 0 0 0 0 0 0 0 0 0 0 0 0 0 0 0 0 0 127 0" result="hardAlpha"/>
<feMorphology radius="4" operator="dilate" in="SourceAlpha" result="effect2_dropShadow_25_441"/>
<feOffset/>
<feGaussianBlur stdDeviation="3.5"/>
<feComposite in2="hardAlpha" operator="out"/>
<feColorMatrix type="matrix" values="0 0 0 0 0 0 0 0 0 0 0 0 0 0 0 0 0 0 0.25 0"/>
<feBlend mode="normal" in2="effect1_backgroundBlur_25_441" result="effect2_dropShadow_25_441"/>
<feBlend mode="normal" in="SourceGraphic" in2="effect2_dropShadow_25_441" result="shape"/>
</filter>
<linearGradient id="paint0_linear_25_441" x1="106" y1="87.4" x2="106" y2="122.6" gradientUnits="userSpaceOnUse">
<stop stop-color="#595959"/>
<stop offset="1" stop-color="#BFBFBF"/>
</linearGradient>
<linearGradient id="paint1_linear_25_441" x1="106" y1="93.8" x2="106" y2="116.2" gradientUnits="userSpaceOnUse">
<stop stop-color="#AAAAAA"/>
<stop offset="1" stop-color="#6E6E6E"/>
</linearGradient>
<linearGradient id="paint2_linear_25_441" x1="105.732" y1="79.0801" x2="105.732" y2="125.28" gradientUnits="userSpaceOnUse">
<stop stop-color="#595959"/>
<stop offset="1" stop-color="#BFBFBF"/>
</linearGradient>
<linearGradient id="paint3_linear_25_441" x1="105.732" y1="87.4801" x2="105.732" y2="116.88" gradientUnits="userSpaceOnUse">
<stop stop-color="#AAAAAA"/>
<stop offset="1" stop-color="#6E6E6E"/>
</linearGradient>
</defs>
</svg>
